<svg xmlns="http://www.w3.org/2000/svg" fill="none" viewBox="0 0 60 60">
  <path fill="#F49D37" d="M30 4.69c-1.562 0-3.087.148-4.568.418l-2.582-4.06c-.58-.914-1.914-1.306-2.965-.87l-3.82 1.584c-1.05.434-1.719 1.656-1.483 2.712l1.044 4.695a25.446 25.446 0 0 0-6.458 6.458l-4.696-1.044c-1.055-.236-2.276.432-2.71 1.481L.177 19.885c-.436 1.051-.044 2.386.868 2.966l4.061 2.582A25.451 25.451 0 0 0 4.688 30c0 1.561.15 3.085.42 4.566l-4.062 2.582c-.913.581-1.304 1.915-.868 2.967l1.583 3.821c.436 1.05 1.656 1.718 2.711 1.481l4.696-1.045a25.48 25.48 0 0 0 6.458 6.46l-1.045 4.695c-.236 1.055.433 2.276 1.482 2.71l3.821 1.584c1.052.434 2.385.044 2.966-.869l2.582-4.06c1.482.271 3.007.42 4.567.42l.001-5.62h-.002a19.694 19.694 0 0 1-6.456-1.108l-2.066-.855a19.736 19.736 0 0 1-9.205-9.209l-.852-2.056a19.619 19.619 0 0 1-1.107-6.462c0-2.273.405-4.446 1.113-6.478l.842-2.033a19.743 19.743 0 0 1 9.208-9.215l2.068-.857a19.6 19.6 0 0 1 6.455-1.105H30V4.69Z"/>
  <path fill="#F49D37" d="M30 15.002c-8.284 0-15 6.716-15 15 0 8.284 6.716 15 15 15v-7.5a7.5 7.5 0 0 1 0-15v-7.5ZM30 0h3v3h-3zM36 0h3v3h-3zM45 0h3v3h-3zM51 0h3v3h-3zM30 3h3v3h-3zM33 3h3v3h-3zM36 3h3v3h-3zM39 3h3v3h-3zM57 3h3v3h-3zM30 6h3v3h-3zM33 6h3v3h-3zM36 6h3v3h-3zM45 6h3v3h-3zM48 6h3v3h-3zM30 9h3v3h-3zM33 9h3v3h-3zM39 9h3v3h-3zM42 9h3v3h-3zM54 9h3v3h-3zM33 12h3v3h-3zM36 12h3v3h-3zM39 12h3v3h-3zM45 12h3v3h-3zM51 12h3v3h-3zM30 15h3v3h-3zM33 15h3v3h-3zM36 15h3v3h-3zM48 15h3v3h-3zM30 18h3v3h-3zM42 18h3v3h-3zM45 18h3v3h-3zM57 18h3v3h-3zM30 21h3v3h-3zM33 21h3v3h-3zM36 21h3v3h-3zM39 21h3v3h-3zM42 21h3v3h-3zM51 21h3v3h-3zM36 24h3v3h-3zM42 24h3v3h-3zM45 24h3v3h-3zM48 24h3v3h-3zM54 24h3v3h-3zM39 30h3v3h-3zM39 27h3v3h-3zM36 33h3v3h-3zM42 30h3v3h-3zM45 30h3v3h-3zM51 30h3v3h-3zM57 30h3v3h-3zM42 33h3v3h-3zM48 33h3v3h-3zM30 36h3v3h-3zM33 36h3v3h-3zM36 36h3v3h-3zM39 36h3v3h-3zM45 36h3v3h-3zM54 36h3v3h-3zM30 39h3v3h-3zM33 39h3v3h-3zM36 39h3v3h-3zM51 39h3v3h-3zM57 39h3v3h-3zM30 42h3v3h-3zM33 42h3v3h-3zM39 42h3v3h-3zM45 42h3v3h-3zM48 42h3v3h-3zM57 42h3v3h-3zM33 45h3v3h-3zM36 45h3v3h-3zM39 45h3v3h-3zM42 45h3v3h-3zM30 48h3v3h-3zM36 48h3v3h-3zM42 48h3v3h-3zM45 48h3v3h-3zM51 48h3v3h-3zM30 51h3v3h-3zM33 51h3v3h-3zM36 51h3v3h-3zM48 51h3v3h-3zM54 51h3v3h-3zM30 54h3v3h-3zM33 54h3v3h-3zM36 54h3v3h-3zM39 54h3v3h-3zM45 54h3v3h-3zM51 57h3v3h-3zM30 57h3v3h-3zM33 57h3v3h-3zM42 57h3v3h-3zM57 54h3v3h-3z"/>
</svg>
