<svg xmlns="http://www.w3.org/2000/svg" fill="none" viewBox="0 0 60 60">
  <path fill="#F49D37" d="M30 0a30 30 0 0 0 0 60V33.755l-9.563 6.482a1.874 1.874 0 1 1-2.062-3.13l9.375-6.357V16.406A1.875 1.875 0 0 1 30 14.57V8.616a21.356 21.356 0 0 0-5.044 42.121l-.581 2.944A24.374 24.374 0 0 1 30 5.566V0ZM30 0h3v3h-3zM36 0h3v3h-3zM45 0h3v3h-3zM51 0h3v3h-3zM30 3h3v3h-3zM33 3h3v3h-3zM36 3h3v3h-3zM39 3h3v3h-3zM57 3h3v3h-3zM36 6h3v3h-3zM45 6h3v3h-3zM48 6h3v3h-3zM30 9h3v3h-3zM33 9h3v3h-3zM39 9h3v3h-3zM42 9h3v3h-3zM54 9h3v3h-3zM30 12h3v3h-3zM33 12h3v3h-3zM36 12h3v3h-3zM39 12h3v3h-3zM45 12h3v3h-3zM51 12h3v3h-3zM30 15h3v3h-3zM33 15h3v3h-3zM36 15h3v3h-3zM48 15h3v3h-3zM30 18h3v3h-3zM42 18h3v3h-3zM45 18h3v3h-3zM57 18h3v3h-3zM30 21h3v3h-3zM33 21h3v3h-3zM36 21h3v3h-3zM39 21h3v3h-3zM42 21h3v3h-3zM51 21h3v3h-3zM30 24h3v3h-3zM33 24h3v3h-3zM36 24h3v3h-3zM42 24h3v3h-3zM45 24h3v3h-3zM48 24h3v3h-3zM54 24h3v3h-3zM30 27h3v3h-3zM33 27h3v3h-3zM36 27h3v3h-3zM39 27h3v3h-3zM30 30h3v3h-3zM36 30h3v3h-3zM42 30h3v3h-3zM45 30h3v3h-3zM51 30h3v3h-3zM57 30h3v3h-3zM30 33h3v3h-3zM33 33h3v3h-3zM42 33h3v3h-3zM48 33h3v3h-3zM30 36h3v3h-3zM33 36h3v3h-3zM36 36h3v3h-3zM39 36h3v3h-3zM45 36h3v3h-3zM54 36h3v3h-3zM30 39h3v3h-3zM33 39h3v3h-3zM36 39h3v3h-3zM51 39h3v3h-3zM57 39h3v3h-3zM30 42h3v3h-3zM33 42h3v3h-3zM39 42h3v3h-3zM45 42h3v3h-3zM48 42h3v3h-3zM57 42h3v3h-3zM30 45h3v3h-3zM33 45h3v3h-3zM36 45h3v3h-3zM39 45h3v3h-3zM42 45h3v3h-3zM30 48h3v3h-3zM36 48h3v3h-3zM42 48h3v3h-3zM45 48h3v3h-3zM51 48h3v3h-3zM30 51h3v3h-3zM33 51h3v3h-3zM36 51h3v3h-3zM48 51h3v3h-3zM54 51h3v3h-3zM30 54h3v3h-3zM33 54h3v3h-3zM36 54h3v3h-3zM39 54h3v3h-3zM45 54h3v3h-3zM51 57h3v3h-3zM30 57h3v3h-3zM33 57h3v3h-3zM42 57h3v3h-3zM57 54h3v3h-3z"/>
</svg>
