<svg xmlns="http://www.w3.org/2000/svg" fill="none" viewBox="0 0 60 60">
  <g fill="#F49D37" clip-path="url(#a)">
    <path d="M31.063 4.901 16.349 0l-5.578 16.228.012-.004-.008.008c-2.22.747-3.843 3.036-3.843 5.775v5.775h18.862c2.835 0 5.136 2.445 5.136 5.453v9.268c0 3.008-2.305 5.606-5.14 5.606H6.928v5.835c0 3.341 2.41 6.056 5.394 6.056h18.741V15.947H17.47h.012l3.132-9.112 10.449 3.575V4.901Z"/>
    <path fill-rule="evenodd" d="M22.895 32.165H2.788c-2.124 0-3.851 1.876-3.851 4.197v3.276c0 2.314 1.727 4.193 3.851 4.193h20.107c2.124 0 3.847-1.88 3.847-4.193v-3.276c0-2.318-1.723-4.197-3.847-4.197Zm.08 7.85h-8.28v-4.079h8.28v4.08Z" clip-rule="evenodd"/>
    <path d="M30 0h3v3h-3zM36 0h3v3h-3zM45 0h3v3h-3zM51 0h3v3h-3zM30 3h3v3h-3zM33 3h3v3h-3zM36 3h3v3h-3zM39 3h3v3h-3zM57 3h3v3h-3zM30 6h3v3h-3zM33 6h3v3h-3zM36 6h3v3h-3zM45 6h3v3h-3zM48 6h3v3h-3zM30 9h3v3h-3zM33 9h3v3h-3zM39 9h3v3h-3zM42 9h3v3h-3zM54 9h3v3h-3zM33 30h3v3h-3zM36 12h3v3h-3zM39 12h3v3h-3zM45 12h3v3h-3zM51 12h3v3h-3zM30 15h3v3h-3zM33 15h3v3h-3zM36 15h3v3h-3zM48 15h3v3h-3zM30 18h3v3h-3zM42 18h3v3h-3zM45 18h3v3h-3zM57 18h3v3h-3zM30 21h3v3h-3zM33 21h3v3h-3zM36 21h3v3h-3zM39 21h3v3h-3zM42 21h3v3h-3zM51 21h3v3h-3zM30 24h3v3h-3zM33 24h3v3h-3zM36 24h3v3h-3zM42 24h3v3h-3zM45 24h3v3h-3zM48 24h3v3h-3zM54 24h3v3h-3zM30 27h3v3h-3zM33 27h3v3h-3zM36 27h3v3h-3zM39 27h3v3h-3zM30 30h3v3h-3zM36 30h3v3h-3zM42 30h3v3h-3zM45 30h3v3h-3zM51 30h3v3h-3zM57 30h3v3h-3zM30 33h3v3h-3zM33 33h3v3h-3zM42 33h3v3h-3zM48 33h3v3h-3zM30 36h3v3h-3zM33 36h3v3h-3zM36 36h3v3h-3zM39 36h3v3h-3zM45 36h3v3h-3zM54 36h3v3h-3zM30 39h3v3h-3zM33 39h3v3h-3zM36 39h3v3h-3zM51 39h3v3h-3zM57 39h3v3h-3zM30 42h3v3h-3zM33 42h3v3h-3zM39 42h3v3h-3zM45 42h3v3h-3zM48 42h3v3h-3zM57 42h3v3h-3zM30 45h3v3h-3zM33 45h3v3h-3zM36 45h3v3h-3zM39 45h3v3h-3zM42 45h3v3h-3zM30 48h3v3h-3zM36 48h3v3h-3zM42 48h3v3h-3zM45 48h3v3h-3zM51 48h3v3h-3zM30 51h3v3h-3zM33 51h3v3h-3zM36 51h3v3h-3zM48 51h3v3h-3zM54 51h3v3h-3zM30 54h3v3h-3zM33 54h3v3h-3zM36 54h3v3h-3zM39 54h3v3h-3zM45 54h3v3h-3zM51 57h3v3h-3zM30 57h3v3h-3zM33 57h3v3h-3zM42 57h3v3h-3zM57 54h3v3h-3z"/>
  </g>
  <defs>
    <clipPath id="a">
      <path fill="#fff" d="M0 0h60v60H0z"/>
    </clipPath>
  </defs>
</svg>
