<svg xmlns="http://www.w3.org/2000/svg" fill="none" viewBox="0 0 60 60">
  <path fill="#F49D37" d="M30 0h3v3h-3zM51 0h3v3h-3zM30 3h3v3h-3zM33 3h3v3h-3zM57 3h3v3h-3zM33 6h3v3h-3zM36 6h3v3h-3zM48 6h3v3h-3zM30 9h3v3h-3zM33 9h3v3h-3zM39 9h3v3h-3zM54 9h3v3h-3zM30 12h3v3h-3zM33 12h3v3h-3zM36 12h3v3h-3zM39 12h3v3h-3zM45 12h3v3h-3zM51 12h3v3h-3zM30 15h3v3h-3zM33 15h3v3h-3zM36 15h3v3h-3zM48 15h3v3h-3zM30 18h3v3h-3zM42 18h3v3h-3zM45 18h3v3h-3zM57 18h3v3h-3zM30 21h3v3h-3zM33 21h3v3h-3zM36 21h3v3h-3zM39 21h3v3h-3zM42 21h3v3h-3zM51 21h3v3h-3zM30 24h3v3h-3zM36 24h3v3h-3zM42 24h3v3h-3zM45 24h3v3h-3zM48 24h3v3h-3zM54 24h3v3h-3zM30 27h3v3h-3zM33 27h3v3h-3zM36 27h3v3h-3zM39 27h3v3h-3zM30 30h3v3h-3zM36 30h3v3h-3zM42 30h3v3h-3zM45 30h3v3h-3zM51 30h3v3h-3zM57 30h3v3h-3zM30 33h3v3h-3zM42 33h3v3h-3zM48 33h3v3h-3zM39 36h3v3h-3zM45 36h3v3h-3zM54 36h3v3h-3zM51 39h3v3h-3zM57 39h3v3h-3zM39 42h3v3h-3zM45 42h3v3h-3zM48 42h3v3h-3zM57 42h3v3h-3zM42 45h3v3h-3zM45 48h3v3h-3zM51 48h3v3h-3zM48 51h3v3h-3zM54 51h3v3h-3zM45 54h3v3h-3zM51 57h3v3h-3zM57 54h3v3h-3zM5.482 37.557C3.637 46.514 6.863 53.072 19.117 60c-3.85-8.035-1.8-12.64 1.16-16.978 3.239-4.75 4.074-9.453 4.074-9.453s2.433 3.55 1.186 11.946c2.265-2.53 3.691-6.682 4.463-10.575V3.694C27.166 1.312 24.94 0 24.94 0c-.236 10.827-4.24 21.135-10.297 28.58-.213-3.633-1.009-6.14-2.914-9.618-.237 3.673-1.723 6.968-3.229 10.307-1.2 2.663-2.414 5.355-3.018 8.288Z"/>
</svg>
