<svg xmlns="http://www.w3.org/2000/svg" fill="none" viewBox="0 0 60 60">
  <g fill="#F49D37" clip-path="url(#a)">
    <path fill-rule="evenodd" d="M30.772 60H30V37.5a44.805 44.805 0 0 0-22.502 6.023A26.25 26.25 0 0 1 30 3.758v-3.76h.683a30.009 30.009 0 1 0 .088 60ZM30 7.5a1.875 1.875 0 0 0-1.873 1.875V15A1.875 1.875 0 0 0 30 16.875V7.5Zm0 18.458L16.026 14.002a1.459 1.459 0 0 0-1.976.075h-.004a1.46 1.46 0 0 0-.109 1.943l12.878 16.114A3.412 3.412 0 0 0 30 33.377v-7.42Zm30 3.315v1.452c.012-.483.012-.967 0-1.452ZM16.877 30a1.875 1.875 0 0 0-1.875-1.875H9.377a1.875 1.875 0 0 0 0 3.75h5.625A1.875 1.875 0 0 0 16.877 30Z" clip-rule="evenodd"/>
    <path d="M30 0h3v3h-3zM36 0h3v3h-3zM45 0h3v3h-3zM51 0h3v3h-3zM30 3h3v3h-3zM33 3h3v3h-3zM36 3h3v3h-3zM39 3h3v3h-3zM57 3h3v3h-3zM30 6h3v3h-3zM33 6h3v3h-3zM36 6h3v3h-3zM45 6h3v3h-3zM48 6h3v3h-3zM30 9h3v3h-3zM33 9h3v3h-3zM39 9h3v3h-3zM42 9h3v3h-3zM54 9h3v3h-3zM30 12h3v3h-3zM36 12h3v3h-3zM39 12h3v3h-3zM45 12h3v3h-3zM51 12h3v3h-3zM30 15h3v3h-3zM36 15h3v3h-3zM48 15h3v3h-3zM42 18h3v3h-3zM45 18h3v3h-3zM57 18h3v3h-3zM33 21h3v3h-3zM36 21h3v3h-3zM39 21h3v3h-3zM42 21h3v3h-3zM51 21h3v3h-3zM33 24h3v3h-3zM36 24h3v3h-3zM42 24h3v3h-3zM45 24h3v3h-3zM48 24h3v3h-3zM54 24h3v3h-3zM30 27h3v3h-3zM33 27h3v3h-3zM36 27h3v3h-3zM39 27h3v3h-3zM30 30h3v3h-3zM36 30h3v3h-3zM42 30h3v3h-3zM45 30h3v3h-3zM51 30h3v3h-3zM57 30h3v3h-3zM33 33h3v3h-3zM42 33h3v3h-3zM48 33h3v3h-3zM30 36h3v3h-3zM33 36h3v3h-3zM36 36h3v3h-3zM39 36h3v3h-3zM45 36h3v3h-3zM54 36h3v3h-3zM30 39h3v3h-3zM33 39h3v3h-3zM36 39h3v3h-3zM51 39h3v3h-3zM57 39h3v3h-3zM30 42h3v3h-3zM33 42h3v3h-3zM39 42h3v3h-3zM45 42h3v3h-3zM48 42h3v3h-3zM57 42h3v3h-3zM30 45h3v3h-3zM33 45h3v3h-3zM36 45h3v3h-3zM39 45h3v3h-3zM42 45h3v3h-3zM30 48h3v3h-3zM36 48h3v3h-3zM42 48h3v3h-3zM45 48h3v3h-3zM51 48h3v3h-3zM30 51h3v3h-3zM33 51h3v3h-3zM36 51h3v3h-3zM48 51h3v3h-3zM54 51h3v3h-3zM30 54h3v3h-3zM33 54h3v3h-3zM36 54h3v3h-3zM39 54h3v3h-3zM45 54h3v3h-3zM51 57h3v3h-3zM30 57h3v3h-3zM33 57h3v3h-3zM42 57h3v3h-3zM57 54h3v3h-3z"/>
  </g>
  <defs>
    <clipPath id="a">
      <path fill="#fff" d="M0 0h60v60H0z"/>
    </clipPath>
  </defs>
</svg>
