<svg xmlns="http://www.w3.org/2000/svg" fill="none" viewBox="0 0 60 60">
  <path fill="#F49D37" d="m30 .008-4.227 1.64-22.494 9.12c-.5.203-.965.48-1.38.825l10.122 3.91L30 8.51V.008ZM30 13.34l-11.751 4.568L30 22.45v-9.11ZM27.75 26.404 0 15.682V44.59a5.25 5.25 0 0 0 3.279 4.866l22.494 9.12c.645.261 1.305.462 1.977.597V26.404ZM30 0h3v3h-3zM36 0h3v3h-3zM45 0h3v3h-3zM51 0h3v3h-3zM30 3h3v3h-3zM33 3h3v3h-3zM36 3h3v3h-3zM39 3h3v3h-3zM57 3h3v3h-3zM30 6h3v3h-3zM33 6h3v3h-3zM36 6h3v3h-3zM45 6h3v3h-3zM48 6h3v3h-3zM33 9h3v3h-3zM39 9h3v3h-3zM42 9h3v3h-3zM54 9h3v3h-3zM30 12h3v3h-3zM33 12h3v3h-3zM36 12h3v3h-3zM39 12h3v3h-3zM45 12h3v3h-3zM51 12h3v3h-3zM30 15h3v3h-3zM33 15h3v3h-3zM36 15h3v3h-3zM48 15h3v3h-3zM30 18h3v3h-3zM42 18h3v3h-3zM45 18h3v3h-3zM57 18h3v3h-3zM30 21h3v3h-3zM33 21h3v3h-3zM36 21h3v3h-3zM39 21h3v3h-3zM42 21h3v3h-3zM51 21h3v3h-3zM30 24h3v3h-3zM33 24h3v3h-3zM36 24h3v3h-3zM42 24h3v3h-3zM45 24h3v3h-3zM48 24h3v3h-3zM54 24h3v3h-3zM30 27h3v3h-3zM33 27h3v3h-3zM36 27h3v3h-3zM39 27h3v3h-3zM30 30h3v3h-3zM36 30h3v3h-3zM42 30h3v3h-3zM45 30h3v3h-3zM51 30h3v3h-3zM57 30h3v3h-3zM30 33h3v3h-3zM33 33h3v3h-3zM42 33h3v3h-3zM48 33h3v3h-3zM30 36h3v3h-3zM33 36h3v3h-3zM36 36h3v3h-3zM39 36h3v3h-3zM45 36h3v3h-3zM54 36h3v3h-3zM30 39h3v3h-3zM33 39h3v3h-3zM36 39h3v3h-3zM51 39h3v3h-3zM57 39h3v3h-3zM30 42h3v3h-3zM33 42h3v3h-3zM39 42h3v3h-3zM45 42h3v3h-3zM48 42h3v3h-3zM57 42h3v3h-3zM30 45h3v3h-3zM33 45h3v3h-3zM36 45h3v3h-3zM39 45h3v3h-3zM42 45h3v3h-3zM30 48h3v3h-3zM36 48h3v3h-3zM42 48h3v3h-3zM45 48h3v3h-3zM51 48h3v3h-3zM30 51h3v3h-3zM33 51h3v3h-3zM36 51h3v3h-3zM48 51h3v3h-3zM54 51h3v3h-3zM30 54h3v3h-3zM33 54h3v3h-3zM36 54h3v3h-3zM39 54h3v3h-3zM45 54h3v3h-3zM51 57h3v3h-3zM30 57h3v3h-3zM33 57h3v3h-3zM42 57h3v3h-3zM57 54h3v3h-3z"/>
</svg>
