<svg xmlns="http://www.w3.org/2000/svg" fill="none" viewBox="0 0 60 60">
  <path fill="#F49D37" fill-rule="evenodd" d="m29.89 8.098.11.165v6.131l-1.987 6.11a.5.5 0 0 0 .475.654H30V21h15v3h6v3h-9v-3h-3v3h3v3h-3v3h-3v-3h-3v3h3v3h6v3h-3v3h-3v3h3v-3h3v3h3v3h3v3h-6v-3h-3v6H16a3 3 0 0 1-3-3V22.036a6 6 0 0 1 1.535-4.008L25.333 6h.555c.782 0 1.552.19 2.248.555a4.968 4.968 0 0 1 1.753 1.543ZM36 51v-3h-3v3h3Z" clip-rule="evenodd"/>
  <path fill="#F49D37" d="M51 51v3h-3v-3h3ZM54 51h-3v-3h3v3ZM54 51h3v3h-3v-3ZM51 42v3h-6v-3h6ZM54 39v3h-3v-3h3ZM57 39h-3v-3h3v3ZM57 39h3v6h-3v-6ZM45 36h-3v-6h6v3h-3v3ZM48 36v3h-3v-3h3ZM51 33v3h-3v-3h3ZM51 33v-3h3v3h-3ZM54 24h-3v-3h3v3ZM54 24h3v3h-3v-3ZM8 54H5.333a5.473 5.473 0 0 1-3.77-1.487A4.956 4.956 0 0 1 0 48.923V26.077c0-1.347.562-2.638 1.562-3.59A5.473 5.473 0 0 1 5.333 21H8v33ZM57 30h3v3h-3v-3Z"/>
</svg>
