<svg xmlns="http://www.w3.org/2000/svg" fill="none" viewBox="0 0 30 30">
  <path fill="#fff" d="m15 .004-2.114.82L1.64 5.384a2.62 2.62 0 0 0-.69.413L6.01 7.75 15 4.255V.004ZM15 6.67 9.124 8.954 15 11.225V6.67ZM13.875 13.202 0 7.842v14.453a2.625 2.625 0 0 0 1.64 2.433l11.246 4.56c.323.13.653.231.989.299V13.202ZM15 0h1.5v1.5H15zM18 0h1.5v1.5H18zM22.5 0H24v1.5h-1.5zM25.5 0H27v1.5h-1.5zM15 1.5h1.5V3H15zM16.5 1.5H18V3h-1.5zM18 1.5h1.5V3H18zM19.5 1.5H21V3h-1.5zM28.5 1.5H30V3h-1.5zM15 3h1.5v1.5H15zM16.5 3H18v1.5h-1.5zM18 3h1.5v1.5H18zM22.5 3H24v1.5h-1.5zM24 3h1.5v1.5H24zM16.5 4.5H18V6h-1.5zM19.5 4.5H21V6h-1.5zM21 4.5h1.5V6H21zM27 4.5h1.5V6H27zM15 6h1.5v1.5H15zM16.5 6H18v1.5h-1.5zM18 6h1.5v1.5H18zM19.5 6H21v1.5h-1.5zM22.5 6H24v1.5h-1.5zM25.5 6H27v1.5h-1.5zM15 7.5h1.5V9H15zM16.5 7.5H18V9h-1.5zM18 7.5h1.5V9H18zM24 7.5h1.5V9H24zM15 9h1.5v1.5H15zM21 9h1.5v1.5H21zM22.5 9H24v1.5h-1.5zM28.5 9H30v1.5h-1.5zM15 10.5h1.5V12H15zM16.5 10.5H18V12h-1.5zM18 10.5h1.5V12H18zM19.5 10.5H21V12h-1.5zM21 10.5h1.5V12H21zM25.5 10.5H27V12h-1.5zM15 12h1.5v1.5H15zM16.5 12H18v1.5h-1.5zM18 12h1.5v1.5H18zM21 12h1.5v1.5H21zM22.5 12H24v1.5h-1.5zM24 12h1.5v1.5H24zM27 12h1.5v1.5H27zM15 13.5h1.5V15H15zM16.5 13.5H18V15h-1.5zM18 13.5h1.5V15H18zM19.5 13.5H21V15h-1.5zM15 15h1.5v1.5H15zM18 15h1.5v1.5H18zM21 15h1.5v1.5H21zM22.5 15H24v1.5h-1.5zM25.5 15H27v1.5h-1.5zM28.5 15H30v1.5h-1.5zM15 16.5h1.5V18H15zM16.5 16.5H18V18h-1.5zM21 16.5h1.5V18H21zM24 16.5h1.5V18H24zM15 18h1.5v1.5H15zM16.5 18H18v1.5h-1.5zM18 18h1.5v1.5H18zM19.5 18H21v1.5h-1.5zM22.5 18H24v1.5h-1.5zM27 18h1.5v1.5H27zM15 19.5h1.5V21H15zM16.5 19.5H18V21h-1.5zM18 19.5h1.5V21H18zM25.5 19.5H27V21h-1.5zM28.5 19.5H30V21h-1.5zM15 21h1.5v1.5H15zM16.5 21H18v1.5h-1.5zM19.5 21H21v1.5h-1.5zM22.5 21H24v1.5h-1.5zM24 21h1.5v1.5H24zM28.5 21H30v1.5h-1.5zM15 22.5h1.5V24H15zM16.5 22.5H18V24h-1.5zM18 22.5h1.5V24H18zM19.5 22.5H21V24h-1.5zM21 22.5h1.5V24H21zM15 24h1.5v1.5H15zM18 24h1.5v1.5H18zM21 24h1.5v1.5H21zM22.5 24H24v1.5h-1.5zM25.5 24H27v1.5h-1.5zM15 25.5h1.5V27H15zM16.5 25.5H18V27h-1.5zM18 25.5h1.5V27H18zM24 25.5h1.5V27H24zM27 25.5h1.5V27H27zM15 27h1.5v1.5H15zM16.5 27H18v1.5h-1.5zM18 27h1.5v1.5H18zM19.5 27H21v1.5h-1.5zM22.5 27H24v1.5h-1.5zM25.5 28.5H27V30h-1.5zM15 28.5h1.5V30H15zM16.5 28.5H18V30h-1.5zM21 28.5h1.5V30H21zM28.5 27H30v1.5h-1.5z"/>
</svg>
