<svg xmlns="http://www.w3.org/2000/svg" fill="none" viewBox="0 0 21 20">
  <path fill="#F49D37" fill-rule="evenodd" d="M10 0c-.884 0-1.753.146-2.575.426A5.354 5.354 0 0 1 10 2.749V0Zm.012 20H10V7.917a5.332 5.332 0 0 1-7.782 1.746c1.189 4.946 6.842 9.845 7.13 10.096l.002.001A1 1 0 0 0 10 20h.012Z" clip-rule="evenodd"/>
  <path fill="#F49D37" fill-rule="evenodd" d="M10.667 5.333A5.333 5.333 0 1 1 0 5.333a5.333 5.333 0 0 1 10.667 0Zm-5.946-4h1.225v2.015H8.19v1.225H5.946v1.756l1.244.447V8l-1.244-.447v1.78H4.72v-2.22l-1.245-.446V5.442l1.245.447V4.573H2.476V3.348h2.245V1.333Z" clip-rule="evenodd"/>
  <path fill="#F49D37" d="M10.011 0h1v1h-1zM12.011 0h1v1h-1zM15.011 0h1v1h-1zM17.011 0h1v1h-1zM10.011 1h1v1h-1zM11.011 1h1v1h-1zM12.011 1h1v1h-1zM13.011 1h1v1h-1zM19.011 1h1v1h-1zM10.011 2h1v1h-1zM11.011 2h1v1h-1zM12.011 2h1v1h-1zM15.011 2h1v1h-1zM16.011 2h1v1h-1zM10.011 3h1v1h-1zM11.011 3h1v1h-1zM13.011 3h1v1h-1zM14.011 3h1v1h-1zM18.011 3h1v1h-1zM10.011 4h1v1h-1zM11.011 4h1v1h-1zM12.011 4h1v1h-1zM13.011 4h1v1h-1zM15.011 4h1v1h-1zM17.011 4h1v1h-1zM10.011 5h1v1h-1zM11.011 5h1v1h-1zM12.011 5h1v1h-1zM16.011 5h1v1h-1zM10.011 6h1v1h-1zM14.011 6h1v1h-1zM15.011 6h1v1h-1zM19.011 6h1v1h-1zM10.011 7h1v1h-1zM11.011 7h1v1h-1zM12.011 7h1v1h-1zM13.011 7h1v1h-1zM14.011 7h1v1h-1zM17.011 7h1v1h-1zM10.011 8h1v1h-1zM11.011 8h1v1h-1zM12.011 8h1v1h-1zM14.011 8h1v1h-1zM15.011 8h1v1h-1zM16.011 8h1v1h-1zM18.011 8h1v1h-1zM10.011 9h1v1h-1zM11.011 9h1v1h-1zM12.011 9h1v1h-1zM13.011 9h1v1h-1zM10.011 10h1v1h-1zM12.011 10h1v1h-1zM14.011 10h1v1h-1zM15.011 10h1v1h-1zM17.011 10h1v1h-1zM19.011 10h1v1h-1zM10.011 11h1v1h-1zM11.011 11h1v1h-1zM14.011 11h1v1h-1zM16.011 11h1v1h-1zM10.011 12h1v1h-1zM11.011 12h1v1h-1zM12.011 12h1v1h-1zM13.011 12h1v1h-1zM15.011 12h1v1h-1zM18.011 12h1v1h-1zM10.011 13h1v1h-1zM11.011 13h1v1h-1zM12.011 13h1v1h-1zM17.011 13h1v1h-1zM19.011 13h1v1h-1zM10.011 14h1v1h-1zM11.011 14h1v1h-1zM13.011 14h1v1h-1zM15.011 14h1v1h-1zM16.011 14h1v1h-1zM19.011 14h1v1h-1zM10.011 15h1v1h-1zM11.011 15h1v1h-1zM12.011 15h1v1h-1zM13.011 15h1v1h-1zM14.011 15h1v1h-1zM10.011 16h1v1h-1zM12.011 16h1v1h-1zM14.011 16h1v1h-1zM15.011 16h1v1h-1zM17.011 16h1v1h-1zM10.011 17h1v1h-1zM11.011 17h1v1h-1zM12.011 17h1v1h-1zM16.011 17h1v1h-1zM18.011 17h1v1h-1zM10.011 18h1v1h-1zM11.011 18h1v1h-1zM12.011 18h1v1h-1zM13.011 18h1v1h-1zM15.011 18h1v1h-1zM17.011 19h1v1h-1zM10.011 19h1v1h-1zM11.011 19h1v1h-1zM14.011 19h1v1h-1zM19.011 18h1v1h-1z"/>
</svg>
