<svg xmlns="http://www.w3.org/2000/svg" fill="none" viewBox="0 0 20 20">
  <path fill="#F49D37" fill-rule="evenodd" d="M10 11.53V8.47l-5.358 5.357 1.531 1.53L10 11.531Zm0-6.121V2.348L7.705 4.644l1.53 1.53L10 5.41ZM14.103.022h.977a5.422 5.422 0 0 0-.977 0ZM10 14.592v3.06l-.765.766A5.396 5.396 0 0 1 5.408 20a5.393 5.393 0 0 1-3.826-1.582 5.418 5.418 0 0 1 0-7.653l3.062-3.06 1.53 1.53-3.061 3.06a3.252 3.252 0 0 0 0 4.592 3.254 3.254 0 0 0 4.592 0L10 14.591Z" clip-rule="evenodd"/>
  <path fill="#F49D37" d="M10 0h1v1h-1zM12 0h1v1h-1zM15 0h1v1h-1zM17 0h1v1h-1zM11 1h1v1h-1zM12 1h1v1h-1zM13 1h1v1h-1zM19 1h1v1h-1zM10 2h1v1h-1zM11 2h1v1h-1zM12 2h1v1h-1zM15 2h1v1h-1zM16 2h1v1h-1zM10 3h1v1h-1zM11 3h1v1h-1zM13 3h1v1h-1zM12 4h1v1h-1zM11 5h1v1h-1zM14 3h1v1h-1zM18 3h1v1h-1zM10 4h1v1h-1zM14 2h1v1h-1zM13 2h1v1h-1zM15 4h1v1h-1zM17 4h1v1h-1zM14 4h1v1h-1zM13 5h1v1h-1zM12 6h1v1h-1zM16 5h1v1h-1zM15 5h1v1h-1zM13 6h1v1h-1zM15 6h1v1h-1zM19 6h1v1h-1zM11 7h1v1h-1zM12 7h1v1h-1zM13 7h1v1h-1zM14 1h1v1h-1zM17 7h1v1h-1zM14 7h1v1h-1zM10 8h1v1h-1zM11 8h1v1h-1zM12 8h1v1h-1zM15 9h1v1h-1zM15 8h1v1h-1zM16 8h1v1h-1zM18 8h1v1h-1zM10 9h1v1h-1zM11 9h1v1h-1zM12 9h1v1h-1zM10 10h1v1h-1zM13 11h1v1h-1zM14 10h1v1h-1zM15 10h1v1h-1zM17 10h1v1h-1zM19 10h1v1h-1zM14 11h1v1h-1zM16 11h1v1h-1zM12 12h1v1h-1zM13 12h1v1h-1zM15 12h1v1h-1zM18 12h1v1h-1zM11 13h1v1h-1zM12 13h1v1h-1zM17 13h1v1h-1zM19 13h1v1h-1zM10 14h1v1h-1zM11 14h1v1h-1zM13 14h1v1h-1zM15 14h1v1h-1zM16 14h1v1h-1zM19 14h1v1h-1zM10 15h1v1h-1zM11 15h1v1h-1zM12 15h1v1h-1zM13 15h1v1h-1zM14 15h1v1h-1zM10 16h1v1h-1zM12 16h1v1h-1zM14 16h1v1h-1zM15 16h1v1h-1zM17 16h1v1h-1zM12 17h1v1h-1zM16 17h1v1h-1zM18 17h1v1h-1zM11 18h1v1h-1zM12 18h1v1h-1zM13 18h1v1h-1zM15 18h1v1h-1zM17 19h1v1h-1zM10 19h1v1h-1zM11 19h1v1h-1zM14 19h1v1h-1zM14 8h1v1h-1z"/>
</svg>
