<svg version="1.0" xmlns="http://www.w3.org/2000/svg" viewBox="0 0 90 90"><path d="M13.9 13.7c-1.3 1.6-1.2 1.7.4.4.9-.7 1.7-1.5 1.7-1.7 0-.8-.8-.3-2.1 1.3zm61.1-.3c0 .2.8 1 1.8 1.7 1.5 1.3 1.6 1.2.3-.4S75 12.6 75 13.4z" fill="#FFF" fill-opacity=".38"/><g fill="#FFF" stroke-width="0"><path d="M33.9 1.4C-.8 11-11.5 53.9 14.8 78c28.6 26.4 75 6 75.2-33 .1-28.8-28.6-51.1-56.1-43.6zm20.3.7C70 5.4 83.3 18.3 87.6 34.5c3.9 14.3-1 31.2-12 41.9-24.2 23.7-64.4 12.2-73.2-20.9-7-26.1 14.1-53.9 41.3-54.4 2.9-.1 7.6.4 10.5 1z"/><path d="M36.8 19.5c-.3.3-1.5.8-2.7 1-5.7 1.1-11.1 4.7-11.1 7.4 0 .6-.8.8-1.7.4-1-.3-1.5-.2-1 .2.4.5-.7 3.3-2.4 6.3-2.5 4.5-2.9 5.9-2 7.8.8 1.8.7 2.2-.2 1.8-.8-.3-1.3.4-1.3 1.5s.4 1.7.9 1.4c.5-.3.7.3.5 1.3-.3 1.7.8 1.9 11.7 2.1 9.3.3 12.3.7 13.1 1.9.9 1.2 1.3 1.2 1.7.2.2-.7.6 2.4.8 6.8l.4 8.1-2.3-1.5c-1.8-1.2-2.2-1.2-2-.1.3 1.3-.2 1.5-5.9 1.7-1.8.1-3.3.7-3.3 1.3 0 .8 1.4 1 4.5.6 2.8-.4 4.5-.3 4.5.4 0 .6.5.7 1.1.4.6-.4 5-.7 9.7-.7h8.7l-4.8-1.3c-7.7-2.1-8-2.6-7.4-12.7.4-6.4.2-8.8-.6-8.8-.7 0-.6-.4.3-1 .8-.5 1.1-1 .5-1-.5 0-.3-.5.5-1 1.3-.8 1.2-1-.3-1-1 0-1.5-.5-1.2-1 .4-.6-.6-1-2.2-1.1-2.4 0-2.5-.1-.8-.8 1.1-.5 2.4-.6 2.9-.3s.6-.5.2-1.9c-.4-1.3-.8-3.3-.7-4.4 0-1.1-.8-2.8-1.7-3.9-1.2-1.4-1.3-1.7-.2-1.1.8.5 2.4 1.1 3.5 1.3 1.9.2 1.9.2.1-1.1-1-.7-1.8-2.5-1.8-4 0-1.6-.7-2.8-1.7-3-1-.3-.8-.5.7-.6 1.2 0 2.2-.5 2.2-1 0-1-3.2-.7-5 .4-.6.3-1 .1-1-.4 0-1.1-2.3-1.5-3.2-.6zm5.4 4.9c1.5 2.2.8 2.9-1.1 1.2-1.6-1.4-2.3-1.5-4.1-.6-1.2.6-2.4.9-2.7.6-.3-.3.2-.9 1.1-1.2 1.4-.5 1.5-.9.4-1.5-.8-.5.1-.6 2.2-.2 1.9.3 3.8 1.1 4.2 1.7zm-9.7.6c.3.5-.1 1-1 1s-1.3-.5-1-1c.3-.6.8-1 1-1 .2 0 .7.4 1 1zm7.5 2.1c0 1.7-.3 1.9-1.3 1-.8-.6-1.8-.7-2.3-.3-.4.4-.2-.1.5-1.1 1.8-2.3 3.1-2.2 3.1.4zm-9.9.6c1.3 1.7 1.3 1.7-.6.3-1.1-.8-2.2-1.6-2.4-1.7-.2-.2 0-.3.6-.3s1.7.8 2.4 1.7zm-2.4.9c-.3.3-1.2.4-1.9.1-.8-.3-.5-.6.6-.6 1.1-.1 1.7.2 1.3.5zm6.7 2.6c-.4.6-.2.8.4.4.6-.3 1.3-.2 1.6.3.6 1-3.3 2.3-4.6 1.5-.4-.3-.8-1.1-.8-1.7 0-.7.4-.6 1 .3.8 1.2 1 1 1-.8 0-1.3.4-2 1-1.7.6.4.7 1.1.4 1.7zm-6.4-.1c0 .5.4.8.9.5.5-.3 1.1.3 1.4 1.4.3 1.1 1.2 2 2.1 2 .9 0 1.6.4 1.6 1 0 1.6-1.5 1.2-3.5-1-1-1.1-2.1-1.7-2.5-1.5-.5.3-1-.1-1.3-.7-.2-.7-.7-1-1.1-.7-1.2 1.1.5 3.8 2 3.2 1-.4 1.2 0 .8 1.1-.6 1.5-.9 1.5-3-.5-1.6-1.5-2.8-1.9-3.7-1.3-.7.5-.5.2.5-.8 1-.9 1.8-2.1 1.8-2.7 0-.6.9-1.1 2-1.1s2 .5 2 1.1zm13.4 6.8c-.7.8-3.5-.9-2.9-1.9.4-.6 1.1-.5 2 .3.7.6 1.1 1.4.9 1.6zm-6.3.1c-1.3 1.1-2.8 2-3.5 1.9-.6 0-.1-.5 1.2-1.1 1.2-.6 2.2-1.5 2.2-2 0-.4.6-.8 1.3-.8.6.1.1 1-1.2 2zm-8.2.4c.8.5 1.7.3 2.2-.5.6-.9.9-1 .9-.2 0 .6-.5 1.5-1.1 1.9-.8.4-.7.9.2 1.5 1.1.7 1.1.9.1.9-.7 0-1.5-.6-1.8-1.3-.3-.8-1-1.4-1.7-1.5-2.2-.2-4.6-.8-5.2-1.3-.8-.9 4.9-.4 6.4.5zm-8.1 4.7c-.3.8-.7.3-1.1-1-.4-1.7-.3-2.1.5-1.3.5.5.8 1.6.6 2.3zM40 41c0 .5-.5 1-1.1 1-.5 0-.7-.5-.4-1 .3-.6.8-1 1.1-1 .2 0 .4.4.4 1zm-3.6.8c.3.5-.8.9-2.4 1-1.7 0-3-.4-3-.9 0-1.1 4.7-1.2 5.4-.1zM25 43c-1.2.8-1.1 1 .7 1 3.2 0 3.6 1.5.5 1.7-3 .1-4.8-1.7-2.9-2.9.7-.4 1.7-.8 2.2-.8.6 0 .3.5-.5 1zm-4 1.8c0 .4-1 1.3-2.2 2.1-2.3 1.4-2.3 1.4-.4-.8 2-2.2 2.6-2.5 2.6-1.3zm22 2c0 .5-.7.9-1.5.9s-1.5-.4-1.5-.9c0-.4.7-.8 1.5-.8s1.5.4 1.5.8zm-12.3.8c-.3.3-1.2.4-1.9.1-.8-.3-.5-.6.6-.6 1.1-.1 1.7.2 1.3.5zm5.3.4c0 .5-.5 1-1.1 1-.5 0-.7-.5-.4-1 .3-.6.8-1 1.1-1 .2 0 .4.4.4 1z"/><path d="M46.5 23c-.3.5-.2 1 .4 1 .5 0 1.3-.5 1.6-1 .3-.6.2-1-.4-1-.5 0-1.3.4-1.6 1zm6.2.5c-.8.8-1.8 1.1-2.2.7-.4-.4-.2.2.5 1.4.9 1.5 2 1.9 3.8 1.6 1.6-.3 2.8.1 3.4 1.2 1 1.8 2.8 2.2 2.8.5 0-.5-.4-.8-.9-.5-.5.3-1.1-.1-1.5-.9-.3-.9-1.8-1.5-3.6-1.5-2.9 0-3-.1-1.6-1.6 1.6-1.5 2-2.4 1.2-2.4-.3 0-1.1.7-1.9 1.5zM47 26c-1.2.8-1 1 .8 1 1.3 0 2-.4 1.7-1-.7-1.2-.6-1.2-2.5 0zm15 1c0 .5.7.7 1.5.4.8-.4 1.5-.8 1.5-1 0-.2-.7-.4-1.5-.4s-1.5.4-1.5 1zm3 2c-.9.6-1 1-.3 1 .6 0 1.5-.5 1.8-1 .8-1.2.4-1.2-1.5 0zm-13.5 1.9c-1.3 2.3 4.7 3.7 6.5 1.6.8-.9.8-1.5.2-1.5-.6 0-1.2.4-1.4 1-.1.5-1.3.7-2.5.4-1.3-.4-2-1-1.7-1.5.3-.5.3-.9 0-.9s-.7.4-1.1.9zm9 1.1c.3.5.8 1 1.1 1 .2 0 .4-.5.4-1 0-.6-.5-1-1.1-1-.5 0-.7.4-.4 1zm-14 1c-.3.5.1 1 1 1s1.3-.5 1-1c-.3-.6-.8-1-1-1-.2 0-.7.4-1 1zm.7 4.2c.2.6 1 1.3 1.6 1.4.7.1.8 0 .2-.3-.5-.2-.8-.9-.4-1.4.3-.5 0-.9-.6-.9-.7 0-1 .5-.8 1.2zm5.6-.5c.7.3 1.6.2 1.9-.1.4-.3-.2-.6-1.3-.5-1.1 0-1.4.3-.6.6zm5.2.8c-.7.8-1.5 1.3-1.9 1.1-.4-.3-1.3 0-2.1.5-1.1.7-.7.8 1.4.5 3-.5 5.4-2.2 4.4-3.1-.3-.3-1.1.1-1.8 1zM48.5 41c-.3.6.1.7.9.4 1.8-.7 2.1-1.4.7-1.4-.6 0-1.3.4-1.6 1zM62 42c0 .5.7.7 1.5.4.8-.4 1.5-.8 1.5-1 0-.2-.7-.4-1.5-.4s-1.5.4-1.5 1zm-7.5 2.1c-1.1 1.6-.1 1.9 1.3.3.7-.8.8-1.4.3-1.4s-1.3.5-1.6 1.1zm10-.1c-.3.5-.1 1 .4 1 .6 0 1.1-.5 1.1-1 0-.6-.2-1-.4-1-.3 0-.8.4-1.1 1zM48 46c0 .5.5 1 1.1 1 .5 0 .7-.5.4-1-.3-.6-.8-1-1.1-1-.2 0-.4.4-.4 1z"/></g><path d="M12 74.4c0 .2.8 1 1.8 1.7 1.5 1.3 1.6 1.2.3-.4S12 73.6 12 74.4zm62.9 2.3c-1.3 1.6-1.2 1.7.4.4.9-.7 1.7-1.5 1.7-1.7 0-.8-.8-.3-2.1 1.3z" fill="#FFF" fill-opacity=".37"/></svg>