<svg xmlns="http://www.w3.org/2000/svg" fill="none" viewBox="0 0 90 90">
  <path fill="#fff" d="M32.004 68.922c-.126-.042-.252-.126-.372-.12-.732.06-1.47.096-2.196.228-.624.114-1.218.396-1.842.522-.624.12-1.266.138-1.896.198-.042.006-.09-.018-.15-.09.864-.276 1.716-.588 2.586-.828 1.08-.294 2.184-.48 3.258-.792 1.512-.438 3.006-.948 4.506-1.434.24-.078.474-.186.708-.282l.048.084c-.078.054-.15.132-.24.168-.636.252-1.266.534-1.926.738-.588.18-1.134.42-1.626.84.18-.012.354-.018.534-.042.744-.096 1.488-.162 2.22-.318.702-.144 1.32-.462 1.62-1.188a.315.315 0 0 1 .186-.174c-.054.156-.102.318-.168.474-.096.222-.216.432-.3.654-.042.108-.036.24-.048.354.138-.03.306-.03.408-.108.114-.096.186-.252.246-.396.378-.924.744-1.854 1.116-2.778.066-.174.156-.336.234-.504.024.006.048.018.078.024-.024.18-.036.366-.084.534-.204.708-.42 1.416-.648 2.118-.072.216-.204.408-.3.618-.03.066-.048.156-.024.216.012.036.126.06.186.042.672-.168 1.062-.45 1.14-1.14.084-.774.3-1.548.546-2.292.132-.396.234-.78.246-1.188.054-1.848.102-3.696.15-5.544 0-.078 0-.156.066-.258.048.162.138.318.138.48.018 1.56.06 3.12.012 4.674-.024.792-.204 1.578-.324 2.364-.024.168-.084.33-.156.48-.402.828-.426 1.692-.3 2.574a.318.318 0 0 0 .03.114c.27.516.312 1.038.048 1.572-.03.054-.006.18.036.216.036.03.15.006.216-.024.81-.402 1.08-1.074.678-1.878a2.27 2.27 0 0 1-.156-1.734c.216-.756.39-1.524.594-2.286.036-.138.126-.258.192-.384.036.012.078.018.114.03-.036.276-.084.552-.114.828-.078.744-.15 1.488-.204 2.232-.012.144.108.3.162.444.096-.126.24-.246.282-.39.192-.714.354-1.434.522-2.148a.563.563 0 0 1 .084-.198c.042.618.144 1.236.126 1.854-.036 1.14.618 1.83 1.452 2.418.072.048.18.042.27.06.018-.096.072-.204.042-.282-.096-.228-.18-.486-.342-.66-.726-.786-.9-1.734-.774-2.736.234-1.944.186-3.894.162-5.838-.006-.588.03-1.2-.108-1.758-.378-1.476-.216-2.958-.198-4.44.006-.456 0-.918 0-1.428-.276.09-.546.156-.792.276-.072.036-.102.222-.096.336.06 1.056.144 2.112.204 3.168.012.246-.018.498-.054.744-.012.072-.096.132-.15.198-.054-.06-.15-.12-.162-.186-.036-.234-.042-.474-.048-.708-.018-.438-.018-.876-.042-1.314-.006-.084-.06-.162-.108-.294-.384.36-.504.828-.768 1.224 0-.6-.006-1.206 0-1.806 0-.174.102-.252.282-.204.078.018.156.042.234.036.18-.012.234-.102.12-.258a.637.637 0 0 0-.174-.162.975.975 0 0 1-.54-.744c-.018-.102-.21-.222-.342-.252-.252-.054-.522-.018-.774-.072-.3-.066-.582-.192-.876-.276-.21-.06-.432-.09-.642-.138-.126-.03-.252-.054-.366-.108-.204-.09-.378-.06-.558.072-.552.42-.978.408-1.53-.036-.414-.33-.738-.282-1.032.138-.174.258-.36.27-.63.06-.162-.126-.324-.27-.51-.36-.264-.126-.516-.03-.678.21-.264.384-.672.372-.93-.024-.084-.132-.144-.288-.246-.408-.234-.27-.546-.222-.684.114-.102.252-.24.45-.534.444-.312-.006-.51-.174-.66-.444-.084-.15-.21-.33-.354-.372-.192-.06-.534.276-.606.498-.03.084-.096.234-.132.228a.573.573 0 0 1-.306-.138c-.084-.078-.114-.216-.198-.294-.084-.078-.228-.174-.318-.15-.084.018-.18.18-.192.288-.048.366-.036.366-.384.306a7.265 7.265 0 0 0-.354-.06c-.192-.03-.324 0-.372.228-.066.288-.294.408-.564.342-.24-.06-.3-.228-.258-.546.024-.198.03-.42-.024-.612-.072-.228-.288-.294-.516-.252-.228.042-.312.192-.276.42.012.066.006.138.006.21 0 .432-.054.474-.456.342-.114-.036-.24-.078-.348-.048-.246.06-.3-.078-.318-.27-.006-.09 0-.18-.012-.27-.06-.444-.318-.564-.678-.3-.216.156-.36.144-.528-.066-.144-.18-.306-.366-.642-.288.066.114.114.192.162.276.126.216.084.336-.156.39-.126.03-.258.024-.39.036-.216.024-.384.09-.414.348-.006.06-.078.156-.132.162-.06.006-.132-.06-.198-.102-.024-.012-.03-.054-.048-.072l-.312-.312c-.096.132-.222.252-.276.402-.222.66-.216.66-.888.438A2.84 2.84 0 0 1 18 50.664c-.168-.174-.228-.324-.006-.492.054-.042.114-.102.126-.162.024-.084.006-.18.006-.27-.09.006-.186-.012-.264.018-.096.042-.174.138-.27.18-.234.108-.366.024-.444-.216-.036-.102-.12-.186-.186-.276-.06.102-.15.204-.168.312-.024.174-.006.36 0 .54.006.216-.078.33-.306.348-.204.018-.402.096-.612.132-.096.012-.228.006-.3-.048-.234-.174-.282-.708-.15-.972.06-.12.09-.324.024-.426-.228-.354-.198-.486.156-.744.066-.048.138-.078.15-.09-.09-.192-.21-.354-.18-.408.126-.186.282-.396.474-.486.354-.168.558-.39.522-.744-.024-.228-.126-.372-.378-.378-.246 0-.366.126-.378.366v.03c-.048.168-.102.33-.15.498-.138-.072-.282-.144-.48-.252-.048.162-.102.342-.15.522-.096.336-.3.48-.564.354a.593.593 0 0 1-.27-.342c-.048-.174.108-.21.258-.252.078-.018.168-.138.174-.222.012-.168-.024-.336-.048-.504-.048-.318-.024-.6.324-.75.048-.024.084-.078.198-.174-.084-.048-.15-.09-.222-.126-.294-.162-.486-.378-.402-.75.018-.072-.018-.162-.054-.228-.168-.33-.072-.798.216-1.014.21-.156.378-.018.534.102.252.192.27.192.384-.108.192-.504.642-.594 1.05-.234.048.042.15.06.21.042.324-.114.702-.804.624-1.146a.488.488 0 0 0-.108-.24c-.054-.06-.162-.132-.216-.114-.072.024-.15.12-.174.204-.054.168-.054.36-.126.516a.425.425 0 0 1-.264.198c-.042.012-.144-.126-.186-.21-.114-.24-.456-.42-.81-.408-.138.006-.282.024-.414-.006-.09-.024-.204-.12-.222-.198-.018-.096.054-.21.096-.312.042-.096.144-.21.126-.282-.072-.24.048-.336.234-.408.048-.018.096-.03.144-.042.33-.12.36-.27.084-.504-.108-.09-.228-.168-.336-.246-.15-.114-.204-.24-.06-.402.168-.192.234-.372-.03-.546-.048-.03-.09-.18-.066-.204.06-.06.174-.132.246-.114.348.102.54-.006.666-.354.03-.084.258-.132.396-.138.192-.012.438.12.516-.138.078-.246-.15-.39-.33-.516-.132-.09-.288-.15-.402-.252-.228-.204-.174-.522.12-.534.522-.03.774-.234.78-.774 0-.084.21-.216.342-.24.186-.042.378-.042.402-.27.03-.252.126-.546-.15-.714-.216-.132-.204-.294-.156-.486.054-.216.186-.36.42-.342.18.012.354.054.528.084.12.018.24.078.348.06.108-.012.258-.072.288-.15.03-.078-.066-.204-.108-.306-.012-.024-.048-.036-.066-.06-.408-.342-.402-.486.042-.786.342-.228.354-.282.168-.654-.18-.348-.168-.42.186-.576.42-.186.618-.486.6-.936-.012-.258.072-.36.372-.336.552.048.882-.486.63-.972-.084-.162-.192-.306-.282-.462-.084-.138-.198-.27-.228-.414-.036-.18-.06-.426.03-.552.144-.198.396-.102.57.012.198.126.372.294.546.456.276.258.57.474.966.492.222.012.438-.054.474-.276.024-.156-.078-.342-.162-.492-.06-.102-.198-.162-.294-.252-.228-.222-.24-.444.018-.636.336-.246.408-.564.39-.948-.042-.852.102-.942.924-.738.282.072.612.042.906-.024.306-.072.348-.252.258-.552-.078-.258-.162-.516-.186-.78-.036-.336.204-.492.522-.378.12.042.222.132.336.192.156.078.312.18.486.222.45.12.72-.078.768-.534.036-.336.054-.678.108-1.014.078-.498.21-.594.72-.594h1.566v-.666c-.006-.24.12-.366.354-.33.528.072 1.002-.048 1.464-.306.15-.084.402-.042.588.012.276.078.534.228.804.312.096.03.252.006.33-.054.048-.042.018-.198 0-.3-.018-.108-.096-.21-.096-.312.006-.156.006-.39.096-.456a.635.635 0 0 1 .522-.048c.168.066.318.234.432.39.39.516.612.54 1.086.09.096-.09.186-.18.282-.27.186-.18.39-.204.63-.096.72.33 1.062.192 1.398-.546.036-.084.078-.162.12-.24.18-.33.372-.42.684-.228.45.282.774.156 1.11-.186.294-.294.474-.294.798-.09.198.126.276.27.198.528-.084.27-.108.564-.132.852-.018.228.126.372.336.384.216.012.444 0 .642-.072.33-.114.354-.294.168-.594-.066-.108-.12-.288-.072-.378.048-.096.246-.186.348-.162.27.066.546.168.786.312.306.18.438.18.606-.12.234-.42.27-.438.732-.264.378.144.762.216 1.14.066a.995.995 0 0 0 .444-.39c.132-.21.294-.198.522-.18-.108.756-.216 1.488-.318 2.238-.3.024-.552-.03-.75-.24-.144-.15-.294-.174-.438-.018-.144.15-.18.354 0 .474.258.18.54.342.84.438.222.072.282.168.252.378-.03.186-.042.378-.06.576-.096.018-.186.024-.27.048-.222.06-.282.186-.192.408.234.57.228.552-.366.666a.705.705 0 0 0-.426.312c-.126.228-.258.384-.534.414-.294.03-.348.144-.27.438.024.084.048.174.09.252.138.3.33.318.534.048a.795.795 0 0 0 .096-.15c.108-.216.246-.192.402-.054.09.078.174.174.276.228.132.072.288.108.474.18v4.32c-.21-.06-.438-.084-.612-.186-.24-.138-.444-.33-.654-.51-.306-.264-.558-.27-.852 0-.204.186-.18.336.066.462.09.048.186.072.276.108.144.06.162.144.084.282-.21.354-.192.504.036.63.24.132.474.042.66-.27.018-.03.042-.06.084-.12.318.21.438.702.948.618l.162 3.024c-.27.006-.438.084-.324.396.012.03-.12.156-.186.162-.126.006-.252-.042-.378-.084-.228-.072-.414-.024-.648.054-.342.114-.738.084-1.11.078-.06 0-.126-.174-.174-.27-.06-.114-.096-.324-.18-.342a.811.811 0 0 0-.516.072c-.054.03-.048.306.024.414.276.42.72.576 1.194.654.39.066.774.156 1.17.216.156.024.318.012.474-.006.234-.024.474-.066.744-.108.168 1.704.336 3.372.51 5.058-.468-.12-.804-.018-1.026.3-.174.252-.09.522.204.522.378 0 .624.222.9.402.048.03.078.108.09.168.036.246.132.516.066.738-.084.276.048.462.09.696.174.96.258 1.938.372 2.91.006.024-.012.054-.024.12-.246 0-.492-.012-.738.006-.294.018-.492.156-.492.486v.78c0 .186.06.348.27.366.228.018.45.036.6-.216.114-.192.276-.354.414-.528l.084.036c.024.204.06.402.072.606a40.184 40.184 0 0 1-.06 5.508c-.006.096-.078.192-.138.27-.21.276-.42.54-.294.948.102-.114.198-.228.348-.396-.054.27-.066.492-.138.696-.324.942-.402 1.92-.42 2.892-.03 1.5-.03 3 .018 4.494.036 1.086.108 2.178.516 3.21.192.486.504.816.954 1.098 1.77 1.116 3.762 1.512 5.778 1.848.372.06.732.192 1.098.282.192.048.384.126.582.132 1.176.036 2.274.408 3.384.75.264.084.528.162.792.3-.072.006-.144.024-.216.018-2.07-.066-4.14-.108-6.204-.216-.498-.024-.942.024-1.398.192-.912.336-1.872.276-2.82.222a6.497 6.497 0 0 1-2.316-.564c-.312-.144-.696-.138-1.056-.156-.186-.006-.378.042-.474.282-.036.096-.276.156-.42.15a16.626 16.626 0 0 1-1.728-.138c-.384-.054-.708-.006-1.002.252-.288.246-.63.36-1.014.396-.228.024-.45.138-.672.216-.456.162-.906.33-1.356.498-.018-.036-.042-.072-.06-.108.126-.15.258-.294.372-.45.15-.198.3-.402.414-.618.144-.282.06-.486-.258-.516a3.533 3.533 0 0 0-1.068.036c-2.916.612-5.88.606-8.838.618-.168 0-.336-.024-.51-.042a.932.932 0 0 1-.138-.03c0-.024-.006-.054-.006-.078.204-.018.414-.048.618-.054.45-.018.888-.018 1.302-.258.186-.108.444-.078.672-.108.24-.03.48-.036.714-.084.114-.024.222-.102.33-.15-.018-.006-.018-.042-.018-.072Zm-4.014-36.21c.132.006.174-.006.204.012.354.192.648.438.72.864.036.21.144.342.354.33.186-.012.372-.072.564-.114-.078-.15-.126-.324-.24-.438-.174-.174-.174-.276.054-.366.12-.048.252-.09.348-.168.15-.12.336-.252.402-.414.21-.54-.24-1.422-.792-1.608-.102-.036-.27-.042-.33.018-.054.054-.03.216-.006.324.054.234.15.456.204.684.054.228-.048.306-.264.216-.21-.084-.42-.186-.63-.27-.174-.066-.354-.114-.534-.168.06-.186.12-.372.186-.552.108-.282-.036-.48-.198-.678-.156-.192-.342-.156-.546-.078-.24.09-.486.18-.738.246-.228.06-.372-.018-.426-.282-.114-.594-1.02-.888-1.452-.474-.264.258-.51.534-.744.822-.312.384-.306.528.018.912.198.234.282.486.15.774a.707.707 0 0 1-.69.438c-.294-.006-.594-.072-.888-.114-.204-.03-.408-.114-.612-.108-.15 0-.3.108-.45.168.078.132.132.282.234.384.234.222.246.252-.018.444-.276.198-.564.384-.816.606-.204.18-.162.372.096.444.216.06.468.102.672.036.342-.114.66-.312.978-.486.444-.246.672-.186.9.258.21.408.21.408.624.228.408-.18.792.09.738.54-.012.126-.078.246-.12.366-.12.348.024.552.396.528.402-.024.714-.246.978-.528.078-.084.096-.222.144-.342-.108-.042-.21-.096-.318-.12-.156-.03-.324-.054-.27-.264.066-.252-.06-.408-.246-.522-.204-.126-.42-.228-.624-.354-.42-.258-.462-.522-.114-.864.324-.318.516-.702.618-1.14.126-.54.474-.702.924-.378.372.27.69.624 1.02.96.138.144.132.324.024.498a2.25 2.25 0 0 0-.144.264c-.138.306-.09.45.222.552.18.06.366.102.552.12.12.012.3-.006.348-.078.048-.072-.006-.246-.054-.354-.102-.264-.246-.486-.408-.774Zm7.374-8.244c-.174-.036-.33-.066-.492-.096-.162-.03-.312-.018-.33.192-.024.228-.156.252-.336.21-.192-.042-.384-.108-.582-.132-.084-.012-.246.048-.264.102-.024.096.006.246.078.312.084.084.228.102.342.162.288.15.576.3.858.462.138.078.246.21.384.288.42.246.744.174 1.05-.198.096-.114.21-.21.33-.294.342-.234.708-.438 1.026-.702.366-.306.75-.534 1.218-.666.648-.18 1.224.084 1.824.21.066.012.15.114.168.186.09.408.36.69.654.942.468.408.984.78.948 1.506 0 .042.036.09.06.132.102.162.24.198.414.108.468-.252.522-.684.132-1.026-.06-.054-.15-.102-.168-.168-.036-.114-.078-.27-.03-.36.126-.228.09-.42-.054-.612-.198-.258-.48-.348-.786-.372-.12-.012-.258 0-.348-.06-.084-.06-.114-.204-.162-.312.09-.03.192-.102.276-.084.264.054.522.138.78.21.192.054.384.096.504-.114.132-.222.09-.462-.108-.588-.234-.15-.516-.234-.786-.324-.252-.084-.534-.102-.774-.204-1.002-.42-1.968-.48-2.952.138-.042-.048-.084-.144-.162-.198-.15-.108-.306-.234-.48-.276-.306-.072-.402.048-.354.354l.072.498-.102.048c-.15-.12-.294-.258-.462-.354-.102-.06-.264-.102-.348-.06-.084.042-.12.21-.132.33-.018.12.012.246.03.408-.18-.018-.318-.018-.45-.048-.534-.108-.534-.108-.486.45Zm-7.668 13.11c.012-.024.018-.048.03-.078.174 0 .348-.006.522 0 .246.006.408-.072.408-.354s-.162-.354-.408-.342a3.624 3.624 0 0 1-.57-.006c-.27-.03-.48-.174-.552-.438-.03-.12.036-.264.06-.396.078.09.186.174.222.282.09.264.282.336.492.156a.468.468 0 0 0 .156-.216c.096-.288.3-.378.582-.366.132.006.258.006.39.006.492.006.588-.084.606-.588.012-.36-.066-.438-.414-.372-.414.078-.81.072-1.188-.162-.162-.102-.312-.054-.456.078-.198.18-.432.312-.636.486-.102.09-.216.234-.21.348.018.228-.084.306-.264.366-.246.084-.39.258-.372.516.018.264.198.372.45.384.204.012.294.096.222.312-.072.216-.024.39.204.492.192.084.168.228.072.372-.096.15-.162.408-.408.282-.522-.282-1.104-.522-1.086-1.284.006-.192-.066-.402-.324-.384-.246.018-.384.186-.378.42 0 .138.078.282.132.42.048.12.108.234.186.408-.486-.09-.582-.636-1.038-.66-.096.402.318.546.384.864-.204.114-.366.174-.564-.03a1.357 1.357 0 0 0-.504-.306c-.162-.06-.24-.138-.336-.288-.162-.264-.39-.486-.618-.696-.06-.054-.276-.036-.336.03-.33.354-.066 1.206.396 1.32.204.048.342.132.39.354.06.294.3.414.552.486.336.096.666.054.99-.09.168-.072.366-.138.54-.108.252.042.474.036.684-.114.162-.12.3-.072.42.066.072.084.126.186.216.246.054.042.204.06.222.036.204-.354.528-.498.912-.54.024-.006.066-.024.072-.048.108-.246.288-.204.498-.162.192.042.402.036.432-.228-.264-.168-.522-.318-.78-.474Zm11.46-10.116c.012-.036.018-.072.03-.102.234.024.474.072.708.072.09 0 .252-.108.252-.168 0-.108-.072-.258-.162-.306-.126-.066-.288-.06-.438-.078-.108-.018-.246.006-.318-.048-.084-.066-.114-.198-.162-.306.096-.042.204-.144.282-.12.18.048.342.15.516.228.294.138.78-.09.822-.414.012-.072-.072-.216-.126-.222-.348-.024-.474-.276-.618-.54-.27-.51-.972-.786-1.398-.552-.252.138-.468.336-.696.516-.138.108-.132.234.006.348.108.09.216.18.324.276-.084.03-.144.018-.204.006-.696-.144-1.176.144-1.404.816-.03.09-.162.144-.252.21-.174.12-.372.222-.534.36-.168.15-.108.294.072.408.306.198.498.18.78-.06.228-.192.45-.402.708-.534.258-.132.504 0 .522.258.024.39.246.498.582.546.402.06.462.144.504.54.054.528.12.582.654.504a.972.972 0 0 0 .258-.072c.336-.132.498-.414.462-.786-.03-.318-.246-.528-.606-.606-.186-.036-.372-.114-.564-.174Zm-7.77 14.298c.594 0 1.068.228 1.5.564.036.024.024.102.06.132.114.108.234.282.36.294.132.012.354-.114.402-.228.15-.372.438-.516.78-.57.492-.078.99-.114 1.482-.18.264-.036.534-.072.792-.144.198-.054.228-.198.09-.366-.264-.324-.486-.366-.858-.162-.132.072-.276.138-.492.246.138-.534-.078-.828-.432-1.05-.156-.09-.33-.192-.468.03-.114.18-.048.51.108.618.072.054.126.126.192.192-.09.048-.18.114-.276.144-.252.084-.534.102-.756.24-.222.132-.324.09-.474-.078-.114-.126-.288-.276-.432-.276-.312.006-.552-.102-.804-.264-.306-.198-.516-.078-.612.276-.018.078-.126.21-.162.198-.402-.12-.672.108-.93.348-.174.156-.276.102-.408-.066-.114-.138-.282-.276-.444-.312-.438-.09-.888-.132-1.332-.174-.312-.03-.546.132-.588.39-.048.276.24.81.456.846.054.012.138.006.168-.03.282-.294.588-.246.93-.126.132.048.3 0 .444.018.12.018.294.042.342.126.114.204.276.222.456.18.6-.132 1.14.006 1.662.318.21.126.462.186.696.258.06.018.15-.03.204-.072.018-.018-.018-.138-.06-.174-.348-.336-.714-.642-1.212-.714-.216-.048-.36-.144-.384-.432Zm-6.474 3.882c.006-.054.018-.108.024-.162h.408c.126-.006.252.006.372-.024.156-.036.3-.138.456-.144.276-.012.558.024.84.03.21.006.444.036.372-.318-.012-.066.126-.168.192-.252.072.078.216.162.204.228-.024.162-.12.318-.186.474-.054.132-.174.288-.138.396.036.102.228.204.354.204.39.012.774-.012 1.164-.036.084-.006.168-.066.252-.096v-.09c-.174-.048-.348-.096-.528-.138-.252-.054-.378-.18-.366-.456.018-.474-.078-.618-.522-.792-.36-.138-.726-.21-1.104-.03-.126.06-.27.084-.402.102-.27.042-.492-.018-.606-.306-.102-.27-.324-.372-.6-.342-.282.03-.348.174-.18.402.066.09.138.168.234.288-.294.054-.528.108-.72-.162-.06-.084-.228-.156-.318-.138-.096.024-.174.162-.24.258-.03.048-.024.126-.036.228-.24-.168-.438-.33-.66-.45-.258-.138-.408-.03-.384.258.006.072.024.138.042.204.036.204.012.366-.198.48a.502.502 0 0 0-.222.264c-.03.108.024.234.036.354.114-.03.252-.03.342-.096.108-.084.18-.216.282-.348.066.306-.066.456-.282.564-.138.072-.27.228-.09.306.228.102.51.12.768.108.216-.012.282-.192.27-.42-.012-.228.198-.252.372-.24.138.006.264.024.27.234.006.114.12.306.216.324.264.06.546.078.816.054.114-.012.222-.168.33-.252-.108-.09-.204-.204-.324-.27-.162-.078-.336-.132-.51-.198Zm14.058-9.486c-.162-.072-.282-.09-.348-.162-.21-.234-.396-.492-.606-.726-.084-.096-.204-.162-.306-.24-.042.12-.126.246-.114.366.036.414.078.834.162 1.242.03.156.15.318.27.42.204.174.444.294.66.45.162.114.3.264.468.372.09.054.216.042.324.06.012-.102.036-.21.036-.312 0-.09-.03-.174-.048-.276.264.204.48.414.732.564.276.162.402.078.522-.21.036-.09.168-.18.264-.198.12-.024.258.048.384.036.246-.018.498-.024.72-.108.21-.078.258-.288.156-.504-.096-.21-.252-.27-.462-.198-.102.036-.204.084-.306.12-.51.18-1.032.198-1.638.144.108-.096.15-.138.198-.174.324-.252.324-.288-.018-.528l-.072-.054c-.306-.222-.294-.24-.048-.516.114-.126.234-.348.198-.486-.036-.138-.258-.234-.414-.33-.072-.042-.174-.042-.264-.054-.39-.042-.582.15-.534.546.042.24.06.462.084.756Zm4.008 10.302c.174-.144.294-.216.378-.318.048-.054.084-.168.06-.228-.078-.21-.486-.378-.75-.324-.252.054-.336.216-.312.462.018.168-.06.204-.222.174s-.36-.096-.492-.036c-.384.174-.756.276-1.176.168-.048-.012-.114.024-.174.042-.24.054-.48.12-.726.15-.348.042-.456.138-.456.492s.108.444.456.486c.27.036.54.102.792.198.288.102.642.078.726-.126.132-.312.408-.396.69-.462.09-.024.24.006.288.072.042.054-.024.192-.042.288-.018.108-.09.282-.054.312.09.066.234.096.348.078.294-.042.588-.108.876-.186.264-.072.546-.126.696-.462-.12-.03-.222-.066-.318-.078-.126-.018-.264-.006-.384-.042-.072-.018-.126-.102-.186-.156.054-.048.102-.12.168-.15.072-.03.162-.018.234-.048.102-.048.198-.126.294-.192-.108-.042-.216-.108-.33-.126-.096-.024-.198 0-.384.012Zm.222-5.832c.174.138.318.234.444.354.198.186.372.192.51-.048a3.18 3.18 0 0 0 .294-.612c.048-.156.09-.24.276-.222.3.024.48-.15.534-.474.054-.342-.072-.558-.378-.648-.492-.144-1.254.18-1.44.66-.126.312-.306.36-.606.3a1.614 1.614 0 0 0-.612.018 6.153 6.153 0 0 0-.96.306 2.04 2.04 0 0 0-.618.378c-.072.066-.084.3-.024.402.198.348.78.366.978.018.168-.294.342-.282.576-.114.072.054.15.102.228.15.414.258.552.216.732-.246.012-.054.024-.102.066-.222Zm-7.242-8.538a7.326 7.326 0 0 1-.03-.258c-.018-.378-.198-.534-.564-.426-.246.072-.474.204-.696.33-.162.09-.306.21-.486.336-.084-.204-.15-.384-.234-.546a.693.693 0 0 0-.912-.342c-.174.072-.252.21-.102.342.198.18.192.372.138.6-.054.216.06.288.258.348.258.084.498.222.738.354.126.072.228.198.354.276.294.174.462.084.516-.258.018-.126.06-.252.09-.378l.12-.018c.078.162.15.33.246.474.066.102.162.222.27.246.078.018.24-.084.276-.174.162-.348.462-.414.798-.492.258-.054.528-.198.714-.378.222-.21.102-.492-.21-.492-.258 0-.522.09-.768.174-.174.048-.312.162-.516.282Zm-5.178-5.976V26.1h.33c.042 0 .078-.012.12-.018.138-.03.234-.072.192-.258-.048-.246.06-.318.276-.192.168.096.318.24.468.372.15.132.27.306.438.408.108.066.306.108.402.054.234-.126.414-.33.372-.63-.036-.27-.258-.36-.492-.414-.066-.018-.138-.024-.204-.036-.36-.048-.432-.144-.462-.498a2.3 2.3 0 0 0-.126-.642c-.132-.33-.396-.36-.618-.084-.048.06-.09.132-.126.204-.234.426-.234.426-.696.306a.935.935 0 0 0-1.152 1.104c.036.174.12.264.294.276.33.006.66.03.984.06Zm-1.8 13.038c.168-.024.306-.018.414-.072.114-.054.258-.15.288-.252.054-.18.15-.27.324-.294.066-.012.162-.036.18-.084.12-.258.342-.27.576-.276.198-.006.414-.054.414-.294 0-.252-.222-.264-.42-.27-.348-.018-.696-.024-1.038-.072-.096-.012-.222-.15-.252-.258-.066-.234-.144-.282-.336-.126-.378.294-.372.63.012.906.228.168.246.282.006.426-.15.09-.36.096-.528.162-.12.048-.3.138-.312.228-.036.258-.156.264-.372.252a.496.496 0 0 0-.336.15c-.162.168-.264.39-.432.558-.288.276-.336.456-.096.768.078.108.234.156.354.234.066-.114.162-.222.186-.342.036-.168.09-.222.27-.228.156-.006.366-.066.462-.18.198-.222.39-.354.702-.276.06.018.186-.018.204-.066.03-.066.018-.174-.018-.246-.054-.108-.144-.204-.252-.348Zm-4.374 3.408c-.138-.018-.21-.018-.27-.036-.204-.066-.342.006-.396.198-.072.276-.246.324-.498.294-.096-.012-.276.054-.288.114-.066.33-.294.288-.528.282-.294-.006-.6-.03-.888.03a.524.524 0 0 0-.432.648c.042.18.168.342.258.516.156-.084.342-.144.468-.258.216-.204.438-.336.744-.3.12.012.3 0 .366-.078.336-.396.78-.522 1.266-.576.048-.006.09-.048.138-.06.162-.03.336-.09.486-.066.306.054.594.168.9.228.114.024.24-.054.366-.084-.048-.138-.066-.306-.162-.402-.096-.096-.276-.108-.396-.192-.096-.066-.21-.174-.222-.27-.042-.408-.294-.738-.678-.834-.252-.066-.342.006-.318.264.012.168.048.354.084.582Zm5.166-14.082c.096-.45.204-.798.234-1.158.054-.588-.162-.762-.738-.666-.03.006-.06.018-.09.024-.264.048-.45-.042-.558-.288-.06-.138-.12-.276-.198-.402-.198-.342-.312-.384-.63-.132-.282.222-.54.474-.78.738-.132.144-.366.312-.21.534.168.234.45.162.696.102a.342.342 0 0 0 .132-.066c.18-.156.354-.108.516.018.258.204.51.414.768.624.264.198.516.402.858.672ZM38.61 41.49c-.252.348-.51.486-.822.564-.102.024-.228.174-.24.276-.006.072.156.24.24.24.192-.006.39-.084.582-.138.084-.024.204-.114.246-.084.312.228.642.15.984.12.114-.012.3.054.336.138.12.258.258.168.396.054.264-.228.222-.51-.09-.678-.114-.06-.318-.144-.312-.192.054-.438-.312-.486-.564-.648-.03-.018-.042-.072-.072-.09-.084-.066-.174-.168-.264-.174a14.173 14.173 0 0 0-1.428-.018c-.228.012-.324.282-.258.576.054.24.222.216.402.192l.864-.138Zm-4.806-7.842c-.006-.402-.18-.654-.528-.762-.228-.072-.474-.066-.702-.138-.162-.054-.354-.15-.444-.282-.156-.222-.252-.492-.354-.744-.042-.102-.096-.276-.048-.318.186-.18.168-.348.03-.528-.15-.192-.33-.318-.588-.276a.47.47 0 0 0-.378.642c.108.306.144.63.234.942.078.258.132.558.294.75.21.252.516.432.786.636.162.12.336.126.492-.018.21-.186.396-.138.57.054.06.066.126.132.204.174.102.054.24.126.318.096.072-.036.102-.192.114-.228ZM30.54 47.91v-.018c.12 0 .24.012.36 0 .372-.048.486-.258.306-.588a2.307 2.307 0 0 0-.354-.48.459.459 0 0 0-.306-.132c-.048 0-.072.18-.138.258-.078.096-.186.168-.276.246-.042-.09-.126-.186-.12-.276.006-.3-.15-.462-.438-.39a.871.871 0 0 0-.402.24.964.964 0 0 1-.708.318c-.18.006-.36.09-.528.174-.054.03-.102.204-.072.246.114.138.258.33.414.354.228.036.258.132.288.324.018.114.126.288.222.3.12.018.264-.078.384-.15.06-.036.09-.132.108-.21.06-.258.222-.33.468-.3.258.03.522.054.792.084Zm-11.838-1.278c-.048 0-.096 0-.15-.006-.03-.174-.036-.36-.096-.528-.042-.126-.15-.324-.234-.33-.126-.006-.282.114-.372.222-.084.096-.108.252-.132.39-.048.24-.144.39-.396.504-.192.084-.324.33-.45.522-.036.06.006.234.066.282.078.06.234.072.324.036.114-.048.18-.186.294-.246.12-.06.306-.144.396-.096.36.198.648.162.942-.114.114-.108.372-.156.384-.252.036-.324.132-.618.252-.912.072-.174.066-.378.144-.546.096-.21.012-.462-.258-.618-.198-.12-.378-.066-.462.198-.078.252-.09.528-.132.786-.036.24-.078.474-.12.708Zm16.056-15.678c.312.006.63-.252.66-.486.042-.3-.192-.36-.402-.432-.522-.174-.51-.174-.564-.756-.018-.168-.126-.378-.258-.462-.192-.126-.438-.18-.672-.222-.228-.042-.294.096-.204.288.072.162.18.306.264.468.162.294.096.42-.24.456-.24.03-.48.018-.714.06-.114.018-.282.102-.3.186-.03.108.03.276.114.366.192.21.462.306.732.186.372-.168.69-.078 1.02.102.198.114.42.186.564.246ZM18.882 41.628c.054-.09.084-.138.108-.192.048-.102.09-.204.132-.312-.132-.054-.27-.144-.402-.144-.114-.006-.234.09-.348.138-.12.048-.246.09-.372.138-.024-.156-.096-.33-.06-.474.03-.126.192-.216.264-.336.06-.102.132-.246.102-.342a.624.624 0 0 0-.63-.456c-.222.006-.372.114-.39.336-.024.36-.03.72-.036 1.074a.437.437 0 0 0 .324.456c.396.126.69.282.546.798-.054.198.222.438.462.468.264.03.234-.174.27-.336.012-.066.102-.174.132-.168a.42.42 0 0 1 .234.144c.162.216.246.222.414.012.228-.294.066-.666-.324-.738a3.374 3.374 0 0 0-.426-.066Zm8.544-12.936c.342.006.498-.138.528-.426.024-.258-.138-.36-.354-.402-.144-.03-.3-.006-.444-.042-.372-.09-.762-.156-1.11-.312-.438-.198-.45-.222-.624.216-.036.09-.072.186-.114.276-.102.21-.246.36-.504.366-.204.006-.384.102-.366.312.018.198.108.414.234.576.03.042.3-.096.456-.162.168-.072.33-.228.492-.222.336.012.642-.018.948-.174.162-.084.39-.042.588-.042.114 0 .222.03.27.036Zm7.782 19.704c.162-.048.27-.06.36-.108.18-.09.348-.246.204-.444-.216-.288-.072-.444.132-.624.096-.09.162-.21.24-.318-.18-.114-.354-.294-.546-.33-.24-.042-.3.162-.264.384.036.222.012.432-.186.564-.144-.156-.258-.324-.414-.432-.078-.054-.252-.018-.342.042-.042.03-.024.228.03.312.084.138.216.246.372.408a16.67 16.67 0 0 0-.366.018c-.216.018-.528-.048-.54.27-.012.294.276.288.498.3.294.012.438.156.45.444l.018.3c.012.204.126.294.318.258.336-.054.612-.21.858-.516-.276-.18-.528-.342-.822-.528ZM34.17 35.262c.006-.186-.126-.282-.318-.27-.378.012-.768-.006-1.122.096-.762.21-1.386.03-1.95-.498-.198-.186-.456-.312-.708-.42-.078-.036-.24.03-.312.096-.06.06-.09.24-.042.294.15.168.324.312.51.432.174.114.408.144.558.282.894.828.972.846 2.1.348.24-.108.462-.138.708.018.3.192.582.012.576-.378Zm-14.79 4.23c.096-.144.144-.24.21-.318.144-.162.216-.336.102-.546-.12-.216-.312-.3-.552-.288-.192.012-.318.096-.306.318.006.15.018.318-.048.438-.126.252-.18.456.114.618.042.024.066.102.066.162.006.42.312.522.636.63.24.078.45.228.684.336.084.036.186.078.27.06.042-.012.09-.15.078-.222-.048-.216.036-.294.24-.306.066-.006.162-.078.174-.132.012-.072-.036-.168-.09-.234-.048-.054-.138-.078-.204-.12-.192-.132-.36-.324-.57-.384-.21-.066-.468-.012-.804-.012Zm17.718-3.168c.03-.012.18-.024.204-.09a.44.44 0 0 0-.036-.336.487.487 0 0 0-.276-.198 2.95 2.95 0 0 0-.654-.06c-.216.006-.45.012-.528.294-.012.036-.102.09-.138.078-.372-.108-.396.126-.402.39-.006.15-.054.24-.24.21-.294-.042-.444.096-.522.426-.072.288.108.372.33.426.132.036.27.078.402.102.474.084.564.012.618-.456.024-.198.072-.348.318-.348.192.006.306-.084.336-.3.012-.072.144-.15.24-.18.078-.018.18.024.348.042Zm3.486-2.466c.288-.084.522-.09.678-.21.216-.168.42-.276.696-.294.084-.006.216-.108.228-.18.012-.078-.084-.234-.156-.246a1.047 1.047 0 0 0-.51.006c-.144.042-.264.168-.39.264-.114.09-.204.108-.3-.024-.48-.678-1.2-.708-1.926-.666-.102.006-.24.114-.294.21-.18.324.036.624.42.594.276-.018.516-.012.762.162.246.174.552.27.792.384ZM22.416 40.68c-.174.024-.252.042-.324.048-.09.006-.18 0-.27.018-.246.048-.336.216-.174.408.252.294.546.552.834.81.048.042.162.018.24.024 0-.084.012-.174-.012-.252-.018-.06-.102-.096-.126-.162-.036-.09-.042-.192-.06-.288.09.024.222.024.27.084.192.252.378.21.582.03.054-.048.126-.078.162-.132.09-.162.162-.336.24-.51-.174-.03-.348-.108-.516-.084-.27.03-.444-.048-.552-.294-.084-.192-.15-.402-.27-.564a1.413 1.413 0 0 0-.444-.354c-.042-.024-.246.126-.234.162.042.18.108.372.204.528.096.174.258.312.45.528Zm13.596 4.224c-.24-.048-.408-.084-.582-.108-.234-.036-.468-.096-.708-.102-.276-.006-.372.204-.384.444-.012.258.168.324.378.318.33-.006.66-.012.99-.048.462-.054.81.084 1.062.492.108.18.294.336.486.426.102.048.282-.06.426-.096-.042-.108-.06-.24-.132-.312-.228-.21-.48-.39-.72-.588-.18-.15-.27-.33-.294-.588-.012-.204-.18-.402-.306-.582-.036-.054-.162-.072-.234-.054-.036.006-.066.138-.06.204 0 .174.036.348.078.594Zm-.96-22.548c.036.474.312.654.75.516.228-.072.48-.054.72-.084.114-.018.228-.048.336-.084.186-.06.36-.156.552-.192.234-.042.48-.024.714-.06.108-.018.204-.114.306-.174-.096-.072-.186-.192-.288-.204-.276-.036-.558-.006-.834-.048-.12-.018-.222-.15-.324-.234-.09-.072-.186-.216-.258-.21-.126.018-.246.126-.354.216-.084.072-.156.252-.216.246-.174-.018-.396-.054-.492-.174-.18-.222-.3-.156-.414.018-.096.144-.138.312-.198.468Zm-1.77 15.768c.006.552.078.636.582.714.246.036.42.144.474.42.03.162.102.324.186.468.102.168.336.162.336.006 0-.3.102-.558.18-.84.054-.198.054-.36.264-.468.198-.102.186-.264-.036-.33a1.553 1.553 0 0 0-.642-.042c-.36.06-.66.036-.924-.258-.168-.186-.348-.114-.402.138-.018.078-.012.156-.018.192Zm7.566 7.11c.402.414.666.486.882.27.342-.36.678-.702 1.224-.714.066 0 .18-.108.18-.162-.006-.078-.084-.162-.15-.228-.036-.042-.108-.054-.162-.072-.246-.066-.36-.228-.36-.48 0-.192-.006-.438-.24-.45-.252-.006-.198.264-.204.42 0 .33-.162.426-.462.45-.156.012-.372.09-.438.21-.048.084.096.288.168.48-.018.018-.09.084-.174.138a2.208 2.208 0 0 1-.264.138Zm-9.294-5.22c.204-.042.486-.276.468-.48-.024-.234.114-.258.258-.324.276-.126.492-.534.408-.822-.024-.09-.12-.18-.204-.216-.042-.018-.144.102-.198.174-.054.072-.066.168-.114.246-.318.564-.366.576-.864.162-.138-.114-.282-.228-.45-.078-.192.174-.372.36-.54.558-.114.138-.084.306.084.372.384.144.768.27 1.152.408Zm2.64-3.312c-.252-.108-.51-.15-.648-.3-.21-.222-.45-.234-.702-.228a8.504 8.504 0 0 0-.954.072c-.198.03-.396.114-.582.204-.072.036-.144.174-.126.24.018.066.15.138.228.138.198.006.396-.018.594-.048.294-.042.522.012.678.3.132.252.372.318.642.252.348-.084.612-.3.87-.63Zm8.034-8.28c.012-.036.03-.072.042-.102.144.012.288.03.426.03.168 0 .354.03.492-.036.114-.054.252-.258.222-.342-.042-.126-.234-.3-.342-.288-.396.06-.744-.024-1.104-.162-.282-.108-.468.072-.414.378.018.096.066.186.09.282.072.258.162.51.21.768.042.228.252.486.474.522.054.006.126 0 .162-.036.258-.198.222-.666-.048-.84-.078-.048-.144-.114-.21-.174Zm.9-6.306c-.036.03-.072.066-.108.096.06.078.12.234.18.228.198-.006.456 0 .57-.114.27-.27-.024-1.11-.396-1.098-.384.012-.498-.204-.648-.45-.27-.432-.576-.456-.906-.066-.072.09-.138.234-.12.342.012.06.192.096.294.138.096.036.276.048.288.096.06.276.294.33.48.456.138.102.246.246.366.372ZM29.676 45.3c-.006.45.276.648.714.414.528-.288.9-.21 1.272.228.078.096.318.162.414.108.144-.072.264-.252.312-.408.018-.06-.18-.21-.294-.282-.24-.144-.486-.258-.552-.582-.042-.204-.3-.222-.408-.012-.168.324-.426.312-.714.282-.138-.012-.276-.036-.414-.048-.228-.012-.348.084-.33.3Zm1.368-17.67c-.492 0-.498.018-.504.48 0 .132-.108.258-.162.39-.042.096-.138.204-.114.276.024.078.156.15.252.162.33.036.54.222.732.468.102.132.21.27.342.372.174.132.342.06.33-.144-.018-.222-.084-.486-.222-.648-.228-.258-.282-.504-.21-.822.09-.462.03-.534-.444-.534ZM16.638 44.4c-.186-.03-.378-.072-.57-.084-.126-.006-.354.012-.366.066-.036.132-.03.33.054.432.174.21.39.402.618.552.438.294.54.234.624-.288.042-.27.12-.498.444-.558.084-.012.198-.174.198-.27.006-.252-.414-.504-.738-.468-.354.042-.288.282-.24.516.006.018-.006.036-.024.102Zm10.794 3.774c-.06-.048-.15-.162-.27-.216-.312-.144-.642-.246-.948-.402-.228-.12-.354-.102-.408.15-.066.288-.246.414-.534.414a.6.6 0 0 0-.234.036c-.078.042-.192.108-.204.18-.012.078.048.192.114.252.234.21.834.174 1.014-.084.138-.204.27-.144.432-.078.204.078.402.174.618.216.234.048.432-.144.42-.468Zm6.036-8.106c.264-.03.474-.048.672-.078.15-.024.234-.114.174-.276a.527.527 0 0 0-.828-.228c-.27.21-.354.18-.42-.15-.036-.168-.096-.3-.3-.204-.336.162-.402.726-.126.984a.67.67 0 0 1 .168.24c.156.372.234.432.642.396.114-.012.222-.072.33-.108-.036-.108-.066-.216-.12-.318-.042-.078-.102-.144-.192-.258Zm6.426.09c.252-.186.51-.318.678-.522.15-.18.036-.39-.168-.492-.18-.09-.348-.114-.474.126-.048.09-.198.156-.312.174-.57.09-.594.126-.318.636.006.012-.006.036-.006.072-.048.012-.108.018-.162.036-.09.042-.18.09-.27.138.054.078.09.186.168.228.204.12.414.234.636.318.096.036.264.024.318-.036.072-.078.102-.24.072-.348-.018-.138-.12-.264-.162-.33Zm5.814 1.452c-.102.12-.168.192-.228.264-.264.306-.486.654-.93.75-.09.018-.186.204-.204.324-.048.318.294.828.612.9.096.024.288-.066.324-.15.258-.642.456-1.308.426-2.088Zm-7.416-2.028c0-.33-.18-.462-.42-.36a2.833 2.833 0 0 0-.408.246c-.228.156-.432.27-.732.096-.252-.15-.498.042-.696.21-.054.048-.054.156-.078.24l.57.144h.03c.24-.024.438 0 .588.24.054.09.27.138.384.108.102-.024.228-.192.228-.294 0-.24.078-.33.312-.384.108-.036.174-.192.222-.246Zm-17.43 9.222c.144-.018.366-.018.576-.084.078-.024.18-.186.168-.27-.06-.33-.618-.822-.954-.87-.192-.024-.324.036-.27.264.042.174-.006.234-.18.3-.114.042-.234.228-.228.354 0 .096.168.228.288.27.156.048.342.024.6.036Zm15.966-10.32c.09.018.156.042.216.048.39.006.774.012 1.092.306.072.066.234.084.342.066.12-.018.234-.108.348-.162-.084-.102-.144-.258-.246-.288-.36-.12-.582-.354-.732-.696a.548.548 0 0 0-.672-.318c-.156.048-.318.192-.156.318.348.288.108.42-.096.588-.03.03-.048.078-.096.138Zm4.278-8.4v.012c-.15 0-.3-.012-.444 0-.276.018-.408.162-.312.408.054.138.222.306.354.324.414.048.828.03 1.248.024.192 0 .354-.066.366-.3.012-.246-.156-.336-.348-.366-.288-.048-.576-.066-.864-.102ZM20.862 45.312c.12-.048.336-.072.384-.174.096-.198-.126-.282-.246-.414-.138-.144-.198-.36-.288-.546l-.144-.27c-.072.06-.186.102-.216.174-.228.522-.234 1.05.042 1.554.18.33.582.378.888.12a12.536 12.536 0 0 1-.42-.444Zm8.502-1.404c-.054.366.054.576.324.684.3.12.63.024.81-.204.072-.09.186-.198.282-.198.288-.006.396-.114.294-.378-.084-.228-.558-.534-.78-.462-.09.03-.174.18-.204.294-.03.09.018.204.03.354a30.884 30.884 0 0 0-.756-.09Zm-7.926-6.858c-.066-.072-.15-.234-.276-.276-.126-.042-.294.018-.432.054-.126.036-.252.162-.354.144-.21-.042-.276.036-.36.204-.084.168-.246.3-.33.462-.06.12-.108.288-.066.396.03.072.24.126.342.102.12-.03.246-.144.318-.252.174-.27.384-.408.714-.384.246.012.402-.12.444-.45Zm2.628 11.712c.144-.084.3-.12.36-.216.108-.186-.108-.606-.342-.732-.24-.126-.438-.06-.618.192-.03.042-.096.102-.132.096a.262.262 0 0 1-.15-.114c-.036-.078-.012-.186-.048-.258-.054-.102-.138-.186-.21-.276-.09.102-.24.198-.252.312-.042.294.12.54.378.654.318.144.672.228 1.014.342Zm18.492-6.552c.054-.03.18-.054.204-.12.024-.072-.018-.198-.078-.258-.222-.252-.738-.306-1.05-.162-.084.042-.21.03-.306.006-.102-.024-.192-.096-.294-.138-.216-.084-.336 0-.324.228.012.234.036.486.3.564.282.084.57.192.84-.072.078-.078.222-.096.342-.108.096-.012.21.03.366.06Zm-20.862-3.174c.18-.012.366.012.534-.042.12-.036.21-.162.312-.246-.108-.09-.204-.186-.324-.258-.048-.03-.138-.006-.204 0-.222.006-.408-.054-.516-.276-.096-.204-.276-.294-.492-.228-.216.06-.306.228-.312.456-.006.36.138.54.498.576.162.012.33.012.504.018Zm5.784 3.102c0-.36-.312-.642-.582-.54-.258.096-.516.18-.774.276-.066.024-.156.09-.162.144-.006.072.042.168.096.228.048.054.138.072.204.12.15.114.282.246.444.342.09.054.222.09.318.066.252-.066.456-.372.456-.636Zm8.418-.24c-.246.132-.504.252-.726.408-.126.09-.114.216.06.294.204.096.384.234.594.312.252.096.516.168.78.228.048.012.144-.09.18-.162.018-.03-.042-.15-.084-.162-.228-.072-.252-.246-.27-.444-.042-.288-.204-.408-.534-.474Zm-9.318-1.89c-.252-.198-.444-.366-.66-.516-.216-.15-.432-.18-.696-.03-.162.09-.396.06-.594.066-.114.006-.234-.024-.378-.042.24.564 1.578.876 2.328.522Zm18.846 27.57c-.006.048-.018.096-.024.144.138.072.288.12.408.216.174.132.378.264.48.45.096.18.204.264.39.312.234.066.462.168.684.27.144.066.27.168.414.228.054.024.174-.006.198-.048.03-.048.006-.15-.03-.21-.03-.054-.108-.09-.162-.126-.378-.258-.75-.516-1.128-.774-.228-.156-.456-.33-.708-.438-.144-.054-.342-.018-.522-.024Zm-24.12-31.68c.078-.054.192-.09.222-.162.024-.054-.018-.198-.072-.234-.162-.09-.354-.216-.522-.204-.348.03-.696.138-1.044.222-.204.048-.33.204-.276.396.03.096.204.198.318.21.162.024.366.018.492-.072.276-.186.54-.306.882-.156Zm18.714 7.764c-.054.33-.24.378-.516.306-.078-.018-.192.078-.282.12.054.114.09.306.168.33.258.066.396.222.516.444.138.246.372.222.504-.03.192-.372.024-.924-.39-1.17Zm-21.606.414c.192-.036.318-.036.426-.078.21-.078.234-.288.084-.45-.132-.144-.228-.33-.354-.48-.09-.108-.204-.186-.306-.282l-.198.342c-.084.15-.132.33-.246.438-.156.144-.138.246.018.318.198.09.42.144.576.192Zm1.146-6.978c-.402-.138-.786-.27-1.17-.384-.066-.018-.21.024-.228.072-.084.216-.138.45-.204.672.186.036.366.096.552.108.144.012.3-.024.438-.066.234-.066.492-.108.612-.402Zm11.766 12.738a.404.404 0 0 1 .042-.066c.048-.006.114.012.144-.018.132-.102.252-.216.372-.324-.12-.066-.234-.138-.354-.198-.138-.066-.306-.09-.426-.18-.132-.096-.234-.258-.396-.102-.156.15-.18.372-.018.51.18.162.42.252.636.378Zm-8.874-.426c.36.264 1.38.288 1.656.066a.386.386 0 0 0 .12-.252c.006-.042-.096-.138-.15-.138-.546-.006-1.08.072-1.626.324Zm23.28 3.312.114.054c.27-.354.558-.69.804-1.056.156-.234-.102-.306-.246-.378-.15-.072-.342-.156-.402.102-.102.42-.18.852-.27 1.278Zm-15.336-2.928.054-.102c-.066-.072-.12-.18-.204-.216a9.935 9.935 0 0 0-.9-.39c-.174-.066-.378-.03-.396.18-.012.102.144.294.252.324.39.096.798.138 1.194.204Zm14.67 15.762c.306-.276.276-1.224-.036-1.656-.162.462-.156 1.356.036 1.656Zm5.13 3.264c.018-.03.03-.066.048-.096a52.72 52.72 0 0 0-.978-.588c-.048-.024-.132-.006-.192.012-.018.006-.024.09-.012.132.108.372.756.672 1.134.54Zm-5.91-14.394c-.27.528-.198 1.068-.102 1.608.108-.534.414-1.05.102-1.608ZM54.042 69c-.204-.096-.444-.138-.546-.276-.198-.264-.438-.24-.69-.216-.078.006-.144.096-.216.15.084.048.168.108.258.144.096.036.222.012.294.066.27.21.558.21.9.132Zm-8.01-3.63c-.114-.096-.186-.198-.252-.192-.066 0-.18.102-.186.168-.006.06.102.174.168.18.06.012.144-.078.27-.156ZM57.33 38.25c.264.282.714.348 1.08.174.36-.174.684-.078.996.09.24.132.246.348-.006.444-.534.21-1.08.45-1.656.078-.126-.084-.306-.078-.504-.126.024.096.024.132.042.144.306.276.3.342-.03.594-.378.288-.792.372-1.242.216-.21-.072-.414-.126-.39-.438.006-.114-.138-.252-.234-.36-.282-.306-.276-.57.066-.798.222-.15.276-.318.198-.564-.072-.228-.03-.438.186-.582.216-.144.438-.102.654.012.186.102.18.228.006.336-.12.072-.246.126-.414.21.138.126.246.234.372.354-.066.054-.156.09-.18.15-.066.186-.15.384-.144.57.006.222.192.354.408.36.114.006.282-.036.342-.12.048-.072-.006-.228-.036-.348-.018-.06-.066-.114-.108-.18.492-.234.054-.63.186-.96.114.024.228.042.342.072.222.066.396.03.57-.138.078-.078.27-.084.402-.066.174.024.342.15.516.144.162-.006.378-.078.474-.198.144-.168.078-.408-.108-.528-.288-.186-.618-.318-.912-.492-.138-.084-.288-.186-.366-.318-.132-.228-.012-.39.24-.33.594.144 1.116.426 1.494.93.054.072.102.144.156.216.012.012.036.012.072.024l.036-.102c.054-.114.102-.222.156-.33.096.078.21.132.276.228.258.354 1.032.48 1.452.198.27-.186.522-.162.738.03.114.102.222.318.192.444-.048.198-.258.27-.486.246-.612-.066-1.23-.12-1.848-.174a1.04 1.04 0 0 0-.888.336c-.252.258-.594.306-.936.33-.306.024-.612.06-.918.108-.078.018-.144.066-.246.114ZM50.886 23.526c.138.132.246.228.378.348-.27.156-.426.372-.336.666.048.144.168.318.294.366.126.054.306-.03.468-.054-.024-.138-.036-.27-.066-.408-.012-.048-.048-.084-.084-.144.51-.222.078-.606.168-.936.072.006.15-.006.222.012.282.09.534.12.762-.15.06-.066.258-.036.384-.012.174.03.348.144.516.132.156-.006.39-.09.438-.204.054-.138.012-.42-.096-.498-.282-.216-.624-.342-.93-.522-.138-.084-.288-.186-.36-.318-.126-.234-.012-.384.252-.318.594.144 1.116.426 1.488.936.06.084.12.168.174.252.096-.168.174-.312.252-.45l.348.33c.282.276 1.032.342 1.386.09.258-.18.486-.144.714.012.162.114.312.258.21.474-.096.198-.276.258-.504.234a56.079 56.079 0 0 0-1.728-.168c-.396-.036-.72.084-1.038.354-.21.18-.534.24-.822.306-.258.06-.54.036-.804.072-.138.018-.276.084-.426.132.222.294.702.384 1.056.204.378-.192.72-.096 1.05.102.228.138.216.312-.036.414-.546.222-1.098.444-1.68.066-.12-.078-.294-.072-.498-.114.048.096.054.144.078.162.282.246.282.318-.018.558-.36.282-.756.408-1.206.258-.228-.078-.498-.114-.45-.48.012-.096-.126-.216-.21-.312-.318-.336-.312-.576.054-.84.192-.138.264-.294.186-.51-.084-.246-.06-.504.174-.6.186-.078.444-.06.648-.006.198.054.192.216.018.33-.132.09-.264.144-.426.234ZM55.95 26.832c.114-.072.24-.12.336-.21.15-.144.27-.324.414-.474.12-.126.252-.228.384-.348.108.138.246.258.312.414.084.204.06.42-.138.57-.108.084-.246.132-.366.204-.228.132-.456.276-.684.408-.144.084-.294.174-.45.234-.24.09-.408.012-.522-.246-.072-.156-.216-.348-.354-.372-.114-.024-.306.15-.396.288-.138.21-.276.228-.474.126-.21-.108-.444-.306-.636-.276-.162.03-.27.336-.432.492-.078.072-.24.132-.336.102-.33-.102-.642-.198-.996-.126-.072.012-.21-.12-.258-.222-.084-.18-.096-.378.108-.504.126-.078.27-.132.402-.192.558-.264 1.122-.516 1.674-.792.306-.15.342-.138.384.204.012.102.048.264.108.282.096.03.222-.036.324-.078.06-.024.108-.084.162-.132.36-.336.366-.336.684.018.12.132.216.126.312-.012.042-.054.084-.15.132-.156.132-.018.294-.03.402.024.054.03.072.222.042.324-.042.132-.144.252-.216.372a.48.48 0 0 1 .078.078ZM52.146 31.83c.198-.114.36-.276.45-.24.114.042.156.258.258.372.09.102.204.228.324.246.444.048.876-.024 1.26-.276.288-.186.738-.084.918.21.12.204.06.39-.12.492-.222.126-.468.21-.708.3-.222.084-.366.168-.156.42.066.078.108.27.06.318a.512.512 0 0 1-.36.138 2.055 2.055 0 0 1-1.308-.726c-.246-.288-.504-.522-.876-.684-.42-.18-.648-.594-.678-1.056-.006-.138.102-.324.216-.42.27-.228.576-.42.87-.624.204-.144.426-.252.666-.108.09.054.132.18.198.27-.072.048-.162.09-.216.156-.072.084-.174.186-.168.282.012.318-.162.468-.456.342-.012-.006-.018-.006-.03-.012-.15-.06-.306-.294-.462-.06-.144.21.018.396.168.552a.605.605 0 0 0 .15.108Z"/>
  <path fill="#fff" d="M49.026 22.236c-.114-.018-.228-.03-.342-.048l-.036.09c.126.054.252.138.384.162.222.042.462.024.684.078.12.03.288.126.312.222.024.096-.078.264-.168.342-.354.306-.576.3-.948-.006-.18-.144-.354-.324-.606-.156-.264.174-.45.396-.414.744.006.048.03.096.036.144.036.198-.012.396-.216.432-.132.024-.3-.066-.432-.144-.144-.084-.264-.21-.396-.318-.066.174-.138.354-.204.528a8.004 8.004 0 0 1-.132.342c-.114-.054-.246-.09-.336-.168-.294-.264-.342-.93-.078-1.212.09-.096.282-.108.432-.126.138-.012.288.06.414.03.168-.042.342-.114.462-.228.066-.06.072-.246.03-.342-.024-.054-.21-.048-.318-.042-.072.006-.132.09-.204.114-.096.03-.24.078-.294.03-.066-.048-.09-.198-.066-.294a.944.944 0 0 1 .564-.69c.264-.12.414-.036.474.252.018.084.03.192.09.24a.353.353 0 0 0 .264.066c.054-.018.102-.132.114-.21.012-.084-.054-.18-.036-.264.012-.078.09-.216.126-.21.252.036.522.06.744.174.114.054.138.282.204.432-.042 0-.072.018-.108.036ZM63.174 27.468v.09c-.018.264.066.582-.234.72-.366.168-.762.168-1.122-.06-.3-.192-.36-.564-.108-.828.336-.36.504-.756.45-1.248-.024-.18.078-.288.27-.27a3.979 3.979 0 0 0 1.59-.198c.384-.12.744.054 1.056.294.138.102.144.21 0 .312-.414.282-.864.456-1.38.396-.39-.048-.498.03-.522.432-.006.12 0 .24 0 .36ZM64.47 28.914c.294.018.522.048.75.048.234 0 .366-.12.348-.378-.036-.522.192-.942.516-1.332.156-.186.27-.162.384.042.222.402.234.792.054 1.23-.15.348-.234.738-.288 1.116-.054.39-.108.48-.474.402-.39-.078-.726.018-1.044.246-.198.144-.408.252-.666.132-.27-.132-.36-.372-.36-.642 0-.198.042-.396.108-.582.126-.378.456-.282.672-.282ZM57.174 33.174c.042.204.072.342.108.534-.204-.036-.354-.06-.51-.09-.222-.048-.366.018-.36.258.006.294-.156.384-.414.384-.348 0-.702.018-1.05-.012-.132-.012-.348-.138-.354-.222-.012-.15.09-.324.192-.45.066-.078.216-.09.324-.138.246-.108.504-.192.726-.342.312-.21.642-.306 1.014-.294.51.018.534-.012.576-.516.036-.384.03-.738-.324-.996-.048-.036-.054-.21-.012-.282.126-.192.336-.204.54-.144.174.054.234.186.222.372-.006.084.078.252.126.252.168.012.366.012.504-.066.312-.18.396-.192.606.066.054.06.108.174.09.228-.024.06-.132.108-.216.126-.228.06-.48.06-.69.156-.396.174-.468.456-.276.84.114.222.03.372-.216.39-.096.006-.198-.012-.3-.024-.084-.006-.168-.018-.306-.03ZM47.562 25.836c.012-.024.042-.138.09-.24.072-.138.132-.294.24-.402a.381.381 0 0 1 .318-.072c.072.024.132.162.144.258.06.39.06.39.45.318.162-.03.318-.042.408.15.108.228.294.264.528.228.42-.072.588.042.576.48a1.502 1.502 0 0 1-.216.69c-.06.096-.294.174-.402.132-.108-.042-.204-.24-.216-.378-.03-.48-.036-.498-.486-.396-.27.066-.474.024-.576-.264a14.162 14.162 0 0 0-.108-.282l-.168.114c-.006.108-.012.222-.024.33-.018.12-.06.348-.078.348a2.088 2.088 0 0 1-.576-.114c-.126-.054-.204-.21-.324-.276-.12-.066-.21-.006-.192.156.018.126.042.258.036.384a.526.526 0 0 1-.39.51c-.228.072-.378-.048-.516-.21-.168-.204-.12-.408.03-.57.282-.306.576-.612.9-.87.108-.09.324-.024.552-.024ZM64.536 43.812c.24.018.48.048.714.048.222 0 .354-.108.336-.354-.03-.48.192-.864.48-1.224.144-.18.264-.186.378.03.186.348.192.696.06 1.068a6.618 6.618 0 0 0-.318 1.17c-.048.276-.162.372-.414.312-.378-.09-.696.042-1.02.234-.168.096-.42.15-.606.108-.24-.06-.312-.318-.318-.558 0-.09.006-.18.018-.27.084-.468.222-.576.69-.564ZM63.048 41.094c.318-.078.642-.132.954-.234.396-.126.75-.072 1.086.15.168.114.222.234.012.36-.396.252-.816.432-1.296.36-.258-.042-.384.066-.402.306-.024.246-.024.498-.048.744-.03.354-.156.48-.528.528-.474.06-.858-.072-.906-.378a.738.738 0 0 1 .15-.534c.27-.312.432-.642.396-1.056-.018-.222.09-.312.3-.306.09.006.18 0 .27 0 .006.024.006.042.012.06ZM50.442 41.208c-.534-.252-.528-.246-.972.168-.342.318-.732.564-1.206.624-.138.018-.288-.078-.432-.12.042-.138.042-.324.132-.396.246-.204.54-.354.798-.54.15-.108.294-.246.39-.402.096-.15.15-.294.378-.258.072.012.156-.096.234-.15.006-.006.006-.018.006-.03.066-.246.276-.246.456-.24.33.006.696-.114.966.168.138.144-.12.672-.324.636-.42-.072-.372.198-.396.444.012.018-.006.048-.03.096ZM47.034 33.33c-.108-.192-.174-.318-.246-.45.444-.132.438-.126.384-.522-.018-.15-.168-.366.078-.432.138-.036.378.018.444.114.084.132.048.342.06.522 0 .024-.03.048-.054.072-.252.294-.234.438.126.57.24.09.504.114.756.162.222.042.456.06.672.12.162.048.252.174.162.348-.078.156-.21.252-.39.168-.144-.072-.282-.168-.432-.264.048.528 0 .582-.534.504-.162-.024-.378-.108-.456-.234-.156-.246-.294-.21-.492-.096-.378.21-.594.162-.846-.174-.144-.192-.108-.312.132-.354.192-.024.39-.03.636-.054ZM62.346 31.26c-.09.048-.174.072-.222.126-.048.066-.096.168-.072.24.018.066.12.132.192.15.09.018.198-.024.294-.018.132.012.258.054.384.084-.042.168-.036.366-.138.486-.078.096-.276.096-.42.12-.042.006-.102-.054-.144-.096-.144-.132-.27-.096-.384.042-.06.078-.126.156-.192.234-.12.156-.258.18-.402.036a2.3 2.3 0 0 1-.174-.168c-.198-.216-.39-.27-.648-.06-.096.078-.342.12-.384.066-.108-.132-.198-.33-.186-.492.012-.132.156-.282.282-.372.138-.102.324-.132.48-.21.186-.09.378.036.462.282.042.126.132.234.204.348.036-.138.078-.282.108-.42.006-.03-.006-.06-.012-.09-.018-.192-.186-.42.096-.546.258-.108.708.024.876.258ZM74.676 32.976c.126-.258.24-.57.408-.846.336-.558.888-.798 1.416-.624.102.036.168.174.252.264-.114.042-.246.144-.342.12-.414-.096-.744.06-.918.396-.216.408-.348.858-.498 1.302-.054.168-.054.354-.09.618-.108-.192-.186-.318-.264-.444-.378-.666-.87-.888-1.602-.66-.384.12-.738.348-1.11.498-.102.042-.24.006-.366.006.042-.114.054-.282.138-.336.642-.42 1.326-.762 2.124-.618.3.048.57.216.852.324ZM83.31 35.67c.138-.275.264-.593.444-.875.342-.54.924-.769 1.434-.577.09.036.144.156.21.24-.102.049-.21.15-.306.145-.552-.055-.852.047-1.068.546-.204.48-.306 1.002-.45 1.506-.018.054-.018.114-.036.264-.114-.204-.186-.342-.264-.474-.36-.648-.87-.882-1.584-.654-.384.12-.744.324-1.11.504-.144.072-.294.168-.378-.018-.036-.072.06-.27.15-.324.63-.408 1.296-.744 2.07-.618.306.06.594.228.888.336ZM71.826 37.23c-.132-.228-.216-.378-.3-.522-.324-.558-.792-.786-1.416-.612-.426.12-.828.336-1.23.522-.138.066-.276.18-.384 0-.114-.174.036-.27.168-.354.528-.336 1.086-.594 1.728-.624.45-.024.84.126 1.194.42.132-.288.234-.57.378-.822.33-.582.792-.822 1.38-.726.168.024.378.042.33.288-.042.216-.216.15-.366.12-.39-.078-.684.084-.9.396-.33.474-.45 1.014-.528 1.572-.006.084-.024.168-.054.342ZM78.486 34.662c.09-.21.18-.45.3-.678.276-.516.654-.882 1.29-.852.078.006.174 0 .234.042.102.072.174.174.258.264-.114.048-.234.144-.342.126-.438-.06-.762.03-.972.456-.216.444-.33.93-.48 1.404-.036.12-.042.252-.066.45a18.5 18.5 0 0 1-.252-.444c-.384-.69-.9-.912-1.656-.66-.354.12-.684.324-1.032.468-.114.048-.33.072-.384.012-.126-.15.018-.264.156-.348.666-.402 1.356-.756 2.166-.576.27.06.51.216.78.336ZM75.546 38.989c-.114-.192-.186-.313-.258-.438-.378-.66-.882-.883-1.608-.643-.372.12-.72.337-1.086.486-.108.043-.306.067-.36.007-.138-.15 0-.27.138-.349.648-.395 1.314-.743 2.106-.6.294.055.564.217.84.325.15-.294.288-.636.486-.937.342-.51.858-.696 1.374-.522.09.03.15.169.222.253-.102.047-.222.15-.312.126-.48-.108-.834.084-1.014.491-.204.468-.324.978-.474 1.465-.018.084-.024.174-.054.336ZM45.858 28.812c.462-.276.708-.06.972.21.096.096.312.096.474.108.126.006.258-.054.384-.054.252-.006.354.162.366.384.012.228-.126.354-.354.354a.806.806 0 0 1-.288-.066c-.366-.138-.42-.126-.624.216-.036.06-.06.132-.108.18-.108.096-.264.276-.342.246a.865.865 0 0 1-.456-.336c-.156-.258.126-.288.294-.366-.024-.048-.03-.096-.06-.114-.516-.384-.582-.978-.738-1.53-.024-.084 0-.24.054-.27.078-.048.216-.042.306-.006.39.156.474.45.246.792-.042.042-.06.096-.126.252ZM53.304 39.882c-.072.198-.108.318-.156.432-.126.306-.396.426-.678.294-.066-.03-.15-.096-.156-.156-.006-.054.06-.15.12-.174.288-.114.288-.258.108-.492-.144-.186-.048-.36.186-.312.474.102.81.066.9-.51.018-.096.168-.192.276-.258.162-.096.27-.09.348.144.144.432.432.75.888.894.078.024.132.12.198.186-.078.048-.144.114-.228.15-.222.09-.462.138-.666.252-.264.15-.468.114-.678-.072-.138-.114-.276-.222-.462-.378ZM59.91 29.118a4.396 4.396 0 0 0-.09-.198c-.102-.228.006-.396.258-.39.096 0 .198.048.294.048.084 0 .222-.006.24-.048.168-.426.462-.192.696-.126.156.048.282.186.426.282-.15.078-.294.168-.45.228-.174.066-.366.102-.54.174-.06.024-.138.114-.138.168.006.054.096.126.162.144.192.054.396.066.582.126.09.03.156.126.234.192-.078.084-.15.228-.228.234a2.547 2.547 0 0 1-.636-.066c-.126-.024-.234-.12-.354-.156-.288-.09-.408-.012-.438.288-.006.03.006.072-.006.09-.09.078-.186.15-.282.228-.066-.084-.18-.162-.186-.246-.012-.252-.078-.438-.348-.522-.204-.066-.174-.216-.018-.3.126-.066.282-.084.426-.108.12-.024.246-.03.396-.042ZM52.05 35.538c.27.114.462.186.648.276.372.174.732.36 1.104.528.198.09.39.096.588-.054.342-.27.654-.276.792-.054.156.252-.012.69-.348.858-.078.042-.216.06-.282.018-.408-.288-.894-.252-1.35-.336-.33-.066-.672-.114-.996-.21-.312-.09-.48-.366-.414-.672.042-.132.174-.234.258-.354ZM54.864 43.253c.414.006.492-.054.606-.462.024-.084.024-.198.078-.252.12-.126.258-.282.414-.324.18-.048.318.078.378.294.024.096.174.174.282.222.096.042.222.018.318.06.084.036.192.108.204.18.012.072-.06.192-.132.234-.234.144-.3.276-.048.474.06.042.036.192.048.288-.084.006-.192.042-.246.006-.384-.264-.822-.198-1.248-.234-.276-.024-.564-.006-.834-.048-.108-.018-.198-.15-.294-.234.114-.066.228-.138.348-.204.042-.012.09 0 .126 0ZM66.744 37.715c-.21.168-.414.258-.6.114-.156-.12-.258-.318-.378-.486a1.27 1.27 0 0 1-.126.066c-.078.168-.15.336-.24.498-.12.216-.246.432-.546.36-.078-.018-.192-.084-.204-.144-.012-.078.054-.174.09-.258.012-.024.054-.03.072-.054.072-.114.138-.228.204-.342-.132.03-.27.054-.402.09-.126.036-.282.156-.372.114-.102-.042-.222-.228-.204-.336.018-.102.192-.246.3-.252.288 0 .564.024.714-.294.012-.03.078-.06.102-.048.312.096.498-.108.714-.264.084-.06.27-.06.366-.006.15.078.132.228.012.354-.162.168-.114.324.042.468l.456.42ZM68.274 31.59c-.078.168-.15.342-.24.504-.114.198-.24.414-.522.354-.084-.018-.198-.09-.222-.162-.018-.072.048-.174.102-.252.084-.132.186-.252.282-.372-.156.036-.318.084-.474.114-.138.024-.294.066-.408.018-.072-.03-.138-.258-.096-.324a.497.497 0 0 1 .354-.198c.264.006.498 0 .636-.276.018-.042.108-.084.15-.072.276.096.456-.066.636-.228.126-.114.258-.198.42-.054.162.144.084.258-.006.414-.054.096-.024.288.042.384.12.162.294.288.456.438-.186.198-.402.246-.582.132-.168-.102-.27-.306-.402-.462a.39.39 0 0 0-.126.042ZM51.498 39.258c-.498.336-.762.342-1.194.054a.708.708 0 0 0-.222-.084c-.318-.09-.642-.192-.966-.258-.138-.03-.294 0-.444.012-.324.03-.522-.132-.546-.45-.024-.27.12-.402.36-.276.342.18.576.144.75-.216.018-.042.192-.054.264-.018.27.144.528.306.78.474.078.054.162.138.18.228.114.42.414.528.798.516.066 0 .126.006.24.018ZM68.7 35.268c-.09-.018-.192-.012-.258-.06-.246-.186-.51-.156-.774-.096-.234.048-.312-.024-.354-.264-.03-.204-.168-.396-.234-.594-.036-.102-.078-.258-.03-.312a.434.434 0 0 1 .33-.12c.132.012.258.096.372.174.372.24.756.444 1.212.462.084.006.192.024.252.078.132.12.246.27.366.402-.144.084-.282.192-.438.252-.138.06-.294.06-.444.078ZM52.374 45.6c-.12-.012-.222.012-.276-.03-.288-.204-.594-.18-.918-.108-.156.036-.21-.054-.252-.216-.054-.228-.174-.432-.252-.654-.036-.102-.078-.258-.03-.312.066-.078.252-.156.324-.114.606.336 1.224.606 1.902.756.12.024.192.246.288.378-.12.078-.228.174-.36.216-.144.06-.306.066-.426.084ZM47.946 36.858c-.198-.186-.354-.288-.45-.432-.078-.108-.15-.294-.108-.396.042-.108.228-.222.348-.222.252.006.51.072.744.156.072.024.15.234.12.312a15.49 15.49 0 0 1-.708 1.536c-.156.282-.414.054-.618.006-.198-.048-.288-.204-.252-.414.042-.204.072-.42.348-.456.162-.012.324-.042.576-.09ZM54.234 30.822a6.092 6.092 0 0 0-.282-.223c.09-.078.162-.192.264-.233.252-.102.342-.282.336-.54-.006-.492.036-.517.522-.607.276-.053.54-.186.816-.264a.627.627 0 0 1 .378-.005c.066.024.144.204.12.27-.042.114-.162.204-.264.282-.048.036-.132.03-.204.036-.222.017-.348.107-.426.341-.156.516-.72.954-1.26.942ZM53.34 43.488c-.252-.036-.54-.066-.822-.12a.777.777 0 0 1-.354-.144c-.102-.096-.156-.252-.234-.378.144-.054.282-.126.426-.15.114-.018.246.06.354.036.102-.024.24-.114.27-.204.126-.36.324-.474.672-.324.108.048.204.12.3.192.12.096.156.21.006.312-.162.108-.198.204-.03.348.072.06.09.186.132.276-.09.036-.168.09-.264.108-.144.024-.282.03-.456.048ZM69.702 29.43c-.312-.054-.624-.102-.936-.162-.066-.012-.15-.036-.186-.084-.102-.12-.186-.258-.276-.39.15-.054.294-.126.444-.156.102-.018.222.054.324.03.108-.03.246-.102.282-.192.144-.414.438-.522.816-.276.288.192.288.234.09.504-.036.048.012.18.042.264.036.096.09.186.138.282-.102.048-.204.114-.312.132-.138.024-.276.006-.42.006 0 .018-.006.03-.006.042ZM51.33 29.13c-.192-.078-.324-.12-.444-.18-.438-.198-.66-.132-.864.306-.114.24-.27.402-.54.378-.12-.012-.288-.096-.324-.186-.036-.096.036-.3.12-.354.252-.156.306-.348.27-.63-.042-.324.312-.51.636-.372.336.144.684.264 1.008.426.132.066.246.21.324.348.018.042-.12.174-.186.264ZM58.548 24.516c.12-.21-.012-.516.318-.516.396-.006.552.36.24.576-.126.09-.276.15-.426.228l.09.066.318.192c-.114.066-.222.168-.348.186a9.305 9.305 0 0 1-1.158.072c-.096 0-.276-.168-.264-.234.012-.126.12-.3.228-.348.21-.084.288-.21.318-.42.018-.114.102-.216.156-.318.102.072.21.132.3.216.09.072.138.174.228.3ZM50.61 34.416c.012-.054 0-.126.03-.168.066-.102.162-.27.234-.264.138.012.318.09.39.204.042.06-.06.27-.144.36-.102.102-.264.15-.408.222.036.036.048.054.06.066.114.06.228.114.348.168-.126.072-.246.198-.384.216-.36.048-.732.078-1.098.066-.102 0-.288-.162-.288-.246 0-.12.12-.294.228-.342.216-.084.282-.216.318-.42.018-.114.102-.21.162-.318.102.072.21.132.3.222.072.072.12.174.18.264.03-.012.048-.024.072-.03ZM48.66 46.385c.414.18.702-.072.978-.348a.746.746 0 0 1 .192-.138c.198-.102.366-.018.306.174a4.532 4.532 0 0 1-.468.972c-.042.066-.24.072-.36.06-.27-.03-.522-.066-.744.18-.054.06-.282.036-.384-.024-.174-.102-.3-.282-.18-.504.132-.252.354-.36.66-.372ZM57.54 26.832c.342-.042.57.084.75.324.168.222.33.444.516.648.12.126.102.186-.006.312a2.05 2.05 0 0 0-.342.6c-.09.246-.264.39-.492.276-.174-.09-.36-.24-.438-.408-.036-.084.156-.276.258-.414.042-.054.108-.09.162-.138.156-.138.186-.258-.018-.402-.258-.186-.39-.45-.39-.798ZM49.932 30.336c.378.006.564.132.576.354.012.222-.174.402-.486.426-.282.018-.516.102-.708.33a.368.368 0 0 1-.54.048c-.15-.138-.312-.36-.3-.534.018-.21.198-.414.342-.594.036-.042.222.03.33.072.162.066.306.18.468.216.21.042.39-.018.318-.318ZM61.398 35.677c-.108-.018-.15-.018-.186-.03-.69-.252-1.386-.498-2.076-.75-.018-.006-.036-.018-.054-.03a2.005 2.005 0 0 1-.24-.21c-.006-.006.054-.114.066-.108.108.024.234.048.324.108.348.252.36.27.606-.066.174-.246.318-.216.492-.018.078.09.156.204.258.246.192.078.396.132.6.168.21.042.438.024.636.096.18.06.204.234.042.348-.156.108-.348.18-.468.246ZM48.492 44.694c.564.078.912.372.936.798.012.288-.108.408-.39.378-.264-.03-.54-.042-.798-.102a2.029 2.029 0 0 1-.54-.228c-.072-.042-.114-.15-.168-.234.078-.042.162-.078.24-.126.102-.06.192-.132.288-.198a9 9 0 0 0 .432-.288ZM51.372 49.044c-.078.18-.108.3-.174.39-.048.06-.156.12-.222.102-.06-.018-.114-.12-.144-.198-.054-.132-.048-.342-.144-.402-.216-.138-.48-.21-.726-.3-.036-.012-.084.012-.12 0-.168-.06-.336-.126-.504-.192.102-.12.198-.252.312-.36.132-.12.306-.198.24-.432-.012-.042.048-.144.096-.162.048-.024.144 0 .186.042.084.084.186.18.204.288.048.336.276.486.528.666.192.144.318.378.468.558ZM61.734 38.892c.162.09.33.168.48.282.132.096.216.132.36 0 .192-.186.846-.174 1.044.012.042.042.054.21.018.234a4.192 4.192 0 0 1-.612.36c-.228.114-.438.066-.672-.054-.21-.102-.486-.078-.732-.114-.192-.03-.432-.018-.402-.318.012-.234.216-.378.516-.402ZM39.444 63.444c.024-2.437.072-4.873.33-7.297.036 0 .072.007.102.007-.102 2.435-.198 4.865-.3 7.301a.827.827 0 0 0-.132-.011ZM38.988 54.684c-.144-.24-.288-.486-.462-.768-.06.27-.108.492-.15.72-.036-.006-.072-.006-.102-.012-.156-.966-.126-1.938-.006-2.904.03-.006.06-.006.09-.012.096.498.18.996.3 1.494.114.486.528.888.456 1.428a.878.878 0 0 0-.126.054ZM68.988 39.648c-.006.348-.168.516-.456.6a6.876 6.876 0 0 0-.822.324c-.18.078-.582-.018-.654-.198-.024-.054.024-.186.078-.216.258-.144.528-.27.792-.402.168-.084.336-.186.51-.258.12-.048.27-.108.372-.072.096.024.15.174.18.222ZM55.74 45.036c-.006.354-.15.516-.408.6-.294.102-.588.222-.876.348-.168.072-.6-.042-.654-.222-.018-.06.036-.18.09-.216.24-.138.492-.252.738-.378.192-.096.372-.198.57-.282.108-.048.252-.108.348-.072.096.036.15.18.192.222ZM65.178 33.618c-.324.27-.324.27-.09.726-.138 0-.252.018-.366 0-.432-.078-.816-.258-1.11-.587a.494.494 0 0 1-.09-.343c.006-.047.18-.102.276-.102.468 0 .93.049 1.38.306ZM66.018 31.373c-.336.282-.336.282-.096.684-.078.018-.15.054-.222.048a1.855 1.855 0 0 1-1.26-.618c-.066-.072-.108-.228-.078-.318.018-.066.18-.126.27-.12.468.042.942.06 1.386.324ZM58.662 40.824c.132-.03.204-.06.282-.066.204-.006.288-.078.24-.3-.018-.066.09-.156.138-.24.084.066.24.144.234.204-.036.384.174.636.39.906.078.096.048.264.072.402-.144.018-.324.096-.438.042-.39-.198-.66-.528-.918-.948ZM38.922 57.168v5.298h-.096c-.06-1.77-.12-3.534 0-5.304.036 0 .066.006.096.006ZM39.786 54.588c-.3-.408-.162-2.082.198-2.52.3.534.18 2.232-.198 2.52ZM48.192 43.398c-.174.084-.348.174-.522.252-.24.102-.498.186-.732.3-.174.084-.336.21-.498.006-.12-.15-.054-.54.12-.612.522-.21 1.056-.162 1.59-.12.012.06.024.114.042.174ZM71.046 31.907c.246.048.516.072.774.156.102.036.24.192.228.288-.006.09-.18.24-.276.234a13.55 13.55 0 0 1-1.302-.168c-.072-.012-.192-.144-.18-.198.018-.084.12-.186.204-.216.168-.048.348-.06.552-.096ZM53.952 44.208c.246.054.528.096.798.192.09.03.186.186.186.282 0 .072-.156.216-.234.21a17.073 17.073 0 0 1-1.356-.168c-.066-.012-.168-.144-.162-.21.006-.072.108-.168.192-.192.174-.06.354-.072.576-.114ZM42.084 62.634v-5.646l.06-.018c.024.09.078.18.078.276.006 1.8.006 3.594.006 5.394-.054-.006-.096-.006-.144-.006ZM70.086 37.482c-.168.12-.276.264-.378.258-.204-.018-.33-.372-.228-.588.084-.186.216-.264.432-.18.288.114.594.192.882.306.102.042.174.156.258.24-.09.084-.18.246-.27.246-.174 0-.354-.084-.528-.15-.09-.042-.156-.126-.168-.132ZM50.868 41.91c.27.06.546.102.804.192.09.03.204.192.192.276a.439.439 0 0 1-.228.306c-.066.03-.252-.072-.3-.156-.126-.228-.306-.264-.528-.222-.066.012-.138.048-.204.036-.114-.018-.216-.066-.324-.102.102-.096.192-.216.312-.288.066-.042.174-.006.264-.006.006-.012.012-.024.012-.036ZM49.494 49.65c.096-.156.162-.36.306-.45.078-.048.3.078.414.18.132.114.246.27.3.426.03.084-.114.312-.15.306a3.619 3.619 0 0 1-.732-.21c-.06-.018-.084-.138-.138-.252ZM55.386 44.412c.3-.282.642-.45 1.038-.432.09.006.222.132.252.228.024.078-.048.264-.12.282-.396.138-.786.12-1.17-.078ZM40.692 55.464c.306.438.48.888.57 1.368.03.174-.084.204-.222.126-.348-.186-.582-1.098-.348-1.494ZM59.268 45.205c-.054.048-.15.198-.276.234-.174.048-.36-.222-.366-.468-.006-.21.078-.36.3-.372.186-.006.342.234.342.606ZM38.208 57.234v-1.812h.096c.228.6.15 1.2.006 1.806-.036.006-.072.006-.102.006ZM52.266 49.788c-.168-.072-.342-.126-.498-.216-.048-.03-.09-.15-.072-.204.018-.048.126-.108.186-.102.222.024.444.06.66.126.072.024.126.132.186.198-.09.048-.168.108-.264.144-.054.018-.12.006-.174.006-.012.012-.018.03-.024.048ZM53.442 47.22c-.09-.529.252-.84.666-.72.222.06.168.221.048.305-.216.15-.45.264-.714.414ZM64.74 28.05c-.276-.06-.546-.126-.822-.186l.018-.102c.228-.108.408-.42.714-.18.096.078.132.228.192.348l-.102.12ZM59.436 46.607c-.294.318-.738.222-.972-.192.264-.192.702-.108.972.192ZM50.922 46.032c.192.12.378.228.552.348.042.03.06.138.036.186-.024.048-.126.096-.174.078a2.875 2.875 0 0 1-.546-.216c-.054-.03-.084-.156-.072-.234.012-.054.108-.09.204-.162ZM51.258 47.232c-.216-.048-.444-.072-.654-.15-.072-.03-.09-.192-.138-.294.096-.03.192-.102.282-.084.258.042.432.198.54.426-.006.03-.018.066-.03.102ZM64.05 42.803l.234-.18c.168-.12.45-.054.54.126.084.174.012.3-.18.276-.204-.024-.408-.078-.606-.12 0-.03.006-.066.012-.102ZM56.172 46.596c.138-.432.384-.648.684-.624.018.402-.3.702-.684.624ZM38.064 63.954c-.126.438-.252.876-.378 1.32-.168-.3-.012-.84.378-1.32ZM55.866 47.712c.126-.03.258-.096.366-.072.102.024.192.144.27.234.018.024-.024.15-.036.15-.114 0-.234 0-.336-.036-.096-.036-.18-.114-.27-.174 0-.03 0-.066.006-.102Z"/>
  <path fill="#fff" fill-rule="evenodd" d="M45 88.5c24.024 0 43.5-19.476 43.5-43.5S69.024 1.5 45 1.5 1.5 20.976 1.5 45 20.976 88.5 45 88.5Zm0 1.5c24.853 0 45-20.147 45-45S69.853 0 45 0 0 20.147 0 45s20.147 45 45 45Z" clip-rule="evenodd"/>
</svg>
