<svg xmlns="http://www.w3.org/2000/svg" fill="none" viewBox="0 0 20 20">
    <path fill="#F49D37" d="M10 1h1v1h-1zM11 1h1v1h-1zM12 1h1v1h-1zM13 1h1v1h-1zM19 1h1v1h-1zM10 2h1v1h-1zM11 2h1v1h-1zM12 2h1v1h-1zM15 2h1v1h-1zM16 2h1v1h-1zM10 3h1v1h-1zM11 3h1v1h-1zM13 3h1v1h-1zM14 3h1v1h-1zM18 3h1v1h-1zM10 4h1v1h-1zM11 4h1v1h-1zM12 4h1v1h-1zM13 4h1v1h-1zM15 4h1v1h-1zM17 4h1v1h-1zM10 5h1v1h-1zM11 5h1v1h-1zM12 5h1v1h-1zM16 5h1v1h-1zM10 6h1v1h-1zM14 6h1v1h-1zM15 6h1v1h-1zM19 6h1v1h-1zM10 7h1v1h-1zM11 7h1v1h-1zM12 7h1v1h-1zM13 7h1v1h-1zM14 7h1v1h-1zM17 7h1v1h-1zM10 8h1v1h-1zM11 8h1v1h-1zM12 8h1v1h-1zM14 8h1v1h-1zM15 8h1v1h-1zM16 8h1v1h-1zM18 8h1v1h-1zM10 9h1v1h-1zM11 9h1v1h-1zM14 9h1v1h-1zM13 10h1v1h-1zM12 11h1v1h-1zM14 10h1v1h-1zM15 10h1v1h-1zM17 10h1v1h-1zM19 10h1v1h-1zM11 11h1v1h-1zM14 11h1v1h-1zM16 11h1v1h-1zM10 12h1v1h-1zM11 12h1v1h-1zM12 12h1v1h-1zM13 12h1v1h-1zM15 12h1v1h-1zM18 12h1v1h-1zM10 13h1v1h-1zM11 13h1v1h-1zM12 13h1v1h-1zM17 13h1v1h-1zM19 13h1v1h-1zM10 14h1v1h-1zM11 14h1v1h-1zM13 14h1v1h-1zM15 14h1v1h-1zM16 14h1v1h-1zM19 14h1v1h-1zM10 15h1v1h-1zM11 15h1v1h-1zM12 15h1v1h-1zM13 15h1v1h-1zM14 15h1v1h-1zM10 16h1v1h-1zM12 16h1v1h-1zM14 16h1v1h-1zM15 16h1v1h-1zM17 16h1v1h-1zM10 17h1v1h-1zM11 17h1v1h-1zM12 17h1v1h-1zM16 17h1v1h-1zM18 17h1v1h-1zM10 18h1v1h-1zM11 18h1v1h-1zM12 18h1v1h-1zM13 18h1v1h-1zM15 18h1v1h-1zM19 18h1v1h-1z"/>
    <path fill="#F49D37" fill-rule="evenodd" d="M10 1H2.955l-.168.005c-.753.047-1.462.41-1.98 1.013A3.432 3.432 0 0 0 0 4.25v.184l10 5.72V1Zm0 10.75a.632.632 0 0 1-.315-.085L0 6.125v9.625l.005.184c.042.829.372 1.608.92 2.178.549.57 1.275.888 2.03.888H10v-7.25Z" clip-rule="evenodd"/>
</svg>
