<svg xmlns="http://www.w3.org/2000/svg" fill="none" viewBox="0 0 40 41">
  <path fill="#F49D37" d="M20 0h2v2h-2zM24 0h2v2h-2zM30 0h2v2h-2zM34 0h2v2h-2zM20 2h2v2h-2zM22 2h2v2h-2zM24 2h2v2h-2zM26 2h2v2h-2zM38 2h2v2h-2zM20 4h2v2h-2zM22 4h2v2h-2zM24 4h2v2h-2zM30 4h2v2h-2zM32 4h2v2h-2zM24 6h2v2h-2zM26 6h2v2h-2zM28 6h2v2h-2zM36 6h2v2h-2zM24 8h2v2h-2zM26 8h2v2h-2zM30 8h2v2h-2zM34 8h2v2h-2zM20 10h2v2h-2zM22 10h2v2h-2zM24 10h2v2h-2zM32 10h2v2h-2zM20 12h2v2h-2zM28 12h2v2h-2zM30 12h2v2h-2zM38 12h2v2h-2zM20 14h2v2h-2zM22 14h2v2h-2zM24 14h2v2h-2zM26 14h2v2h-2zM28 14h2v2h-2zM34 14h2v2h-2zM20 16h2v2h-2zM22 16h2v2h-2zM24 16h2v2h-2zM28 16h2v2h-2zM30 16h2v2h-2zM32 16h2v2h-2zM36 16h2v2h-2zM20 18h2v2h-2zM22 18h2v2h-2zM24 18h2v2h-2zM26 18h2v2h-2zM20 20h2v2h-2zM24 20h2v2h-2zM28 20h2v2h-2zM30 20h2v2h-2zM34 20h2v2h-2zM38 20h2v2h-2zM20 22h2v2h-2zM22 22h2v2h-2zM28 22h2v2h-2zM32 22h2v2h-2zM20 24h2v2h-2zM22 24h2v2h-2zM24 24h2v2h-2zM26 24h2v2h-2zM30 24h2v2h-2zM36 24h2v2h-2zM20 26h2v2h-2zM22 26h2v2h-2zM24 26h2v2h-2zM34 26h2v2h-2zM38 26h2v2h-2zM20 28h2v2h-2zM22 28h2v2h-2zM26 28h2v2h-2zM30 28h2v2h-2zM32 28h2v2h-2zM38 28h2v2h-2zM20 30h2v2h-2zM22 30h2v2h-2zM24 30h2v2h-2zM26 30h2v2h-2zM28 30h2v2h-2zM20 32h2v2h-2zM24 32h2v2h-2zM28 32h2v2h-2zM30 32h2v2h-2zM34 32h2v2h-2zM20 34h2v2h-2zM22 34h2v2h-2zM24 34h2v2h-2zM32 34h2v2h-2zM36 34h2v2h-2zM20 36h2v2h-2zM22 36h2v2h-2zM24 36h2v2h-2zM26 36h2v2h-2zM30 36h2v2h-2zM34 38h2v2h-2zM20 38h2v2h-2zM22 38h2v2h-2zM28 38h2v2h-2zM38 36h2v2h-2z"/>
  <path fill="#F49D37" fill-rule="evenodd" d="M20 .71h-4c-2.22 0-4 1.78-4 4v5.334H4c-2.22 0-3.98 1.78-3.98 4l-.02 22c0 2.22 1.78 4 4 4h16v-30h-4V4.711h4v-4Z" clip-rule="evenodd"/>
</svg>
