<svg xmlns="http://www.w3.org/2000/svg" fill="none" viewBox="0 0 40 40">
  <path fill="#F49D37" fill-rule="evenodd" d="M0 15h15V0H0v15Zm30 2.5V20h5v-2.5h-5Zm0 5h2.5V25H30v-2.5Zm0 5V30h-2.5v2.5h-5V35H30v-5h2.5v5H35v-2.5h5V30h-7.5v-2.5H30ZM20 30h-2.5v10H30v-2.5H20V30Zm-5 0v-5H0v15h15V30Zm0-7.5V20H7.5v-2.5H0v5h2.5V20H5v2.5h10ZM30 15v-2.5h7.5v-10H30V0h10v15H30Zm0-10v5h5V5h-5ZM2.5 2.5h10v10h-10v-10ZM10 5H5v5h5V5ZM5 30v5h5v-5H5Zm-2.5-2.5v10h10v-10h-10Zm37.5-5h-2.5v-5H40v5Zm-2.5 0V25H40v2.5h-5v-5h2.5ZM40 40h-7.5v-2.5h5V35H40v5Z" clip-rule="evenodd"/>
  <path fill="#F49D37" d="M20 0h2v2h-2zM24 0h2v2h-2zM30 0h2v2h-2zM34 0h2v2h-2zM20 2h2v2h-2zM22 2h2v2h-2zM24 2h2v2h-2zM26 2h2v2h-2zM38 2h2v2h-2zM20 4h2v2h-2zM22 4h2v2h-2zM24 4h2v2h-2zM30 4h2v2h-2zM32 4h2v2h-2zM20 6h2v2h-2zM22 6h2v2h-2zM26 6h2v2h-2zM28 6h2v2h-2zM36 6h2v2h-2zM20 8h2v2h-2zM22 8h2v2h-2zM24 8h2v2h-2zM26 8h2v2h-2zM30 8h2v2h-2zM34 8h2v2h-2zM20 10h2v2h-2zM22 10h2v2h-2zM24 10h2v2h-2zM32 10h2v2h-2zM20 12h2v2h-2zM28 12h2v2h-2zM30 12h2v2h-2zM38 12h2v2h-2zM20 14h2v2h-2zM22 14h2v2h-2zM24 14h2v2h-2zM26 14h2v2h-2zM28 14h2v2h-2zM34 14h2v2h-2zM20 16h2v2h-2zM22 16h2v2h-2zM24 16h2v2h-2zM28 16h2v2h-2zM30 16h2v2h-2zM32 16h2v2h-2zM36 16h2v2h-2zM20 18h2v2h-2zM22 18h2v2h-2zM24 18h2v2h-2zM26 18h2v2h-2zM20 20h2v2h-2zM24 20h2v2h-2zM28 20h2v2h-2zM30 20h2v2h-2zM34 20h2v2h-2zM38 20h2v2h-2zM20 22h2v2h-2zM22 22h2v2h-2zM28 22h2v2h-2zM32 22h2v2h-2zM20 24h2v2h-2zM22 24h2v2h-2zM24 24h2v2h-2zM26 24h2v2h-2zM30 24h2v2h-2zM36 24h2v2h-2zM20 26h2v2h-2zM22 26h2v2h-2zM24 26h2v2h-2zM34 26h2v2h-2zM38 26h2v2h-2zM20 28h2v2h-2zM22 28h2v2h-2zM26 28h2v2h-2zM30 28h2v2h-2zM32 28h2v2h-2zM38 28h2v2h-2zM20 30h2v2h-2zM22 30h2v2h-2zM24 30h2v2h-2zM26 30h2v2h-2zM28 30h2v2h-2zM20 32h2v2h-2zM24 32h2v2h-2zM28 32h2v2h-2zM30 32h2v2h-2zM34 32h2v2h-2zM20 34h2v2h-2zM22 34h2v2h-2zM24 34h2v2h-2zM32 34h2v2h-2zM36 34h2v2h-2zM20 36h2v2h-2zM22 36h2v2h-2zM24 36h2v2h-2zM26 36h2v2h-2zM30 36h2v2h-2zM34 38h2v2h-2zM20 38h2v2h-2zM22 38h2v2h-2zM28 38h2v2h-2zM38 36h2v2h-2z"/>
</svg>
