<svg xmlns="http://www.w3.org/2000/svg" fill="none" viewBox="0 0 41 40">
  <path fill="#F49D37" fill-rule="evenodd" d="M20 0c-1.768 0-3.506.293-5.15.851 2.19.935 4.004 2.58 5.15 4.648V0Zm.023 40H20V15.835a10.664 10.664 0 0 1-9.333 5.498c-2.326 0-4.478-.744-6.23-2.008 2.376 9.893 13.682 19.691 14.26 20.192l.003.003A2 2 0 0 0 20 40h.023Z" clip-rule="evenodd"/>
  <path fill="#F49D37" fill-rule="evenodd" d="M10.667 21.333c5.89 0 10.666-4.775 10.666-10.666S16.558 0 10.667 0 0 4.776 0 10.667c0 5.89 4.776 10.666 10.667 10.666ZM4.109 10.738c.031.143.07.285.114.424l.002.009c.045.145.098.286.157.426l.01.027.013.033.015.039a5.133 5.133 0 0 0 1.142 1.622c.014.014.03.027.045.04a.893.893 0 0 1 .042.036 2.14 2.14 0 0 0-.315 1.1c0 1.232 1.046 2.233 2.333 2.233 1.172 0 2.136-.835 2.3-1.914h1.4c.164 1.08 1.127 1.914 2.3 1.914 1.286 0 2.333-1.001 2.333-2.233 0-.442-.139-.874-.396-1.241a2.318 2.318 0 0 0-1.05-.822l1.219-2.721h1.56V8.434h-2.439l-.572 1.276H9.333V4.606c-.7 0-1.394.131-2.04.387a5.34 5.34 0 0 0-1.73 1.108A5.067 5.067 0 0 0 4.31 7.993a4.886 4.886 0 0 0-.283 2.223c.007.075.02.15.034.225l.013.075.01.074a1.629 1.629 0 0 0 .023.136l.002.012Zm10.558 3.756c0 .528-.449.957-1 .957-.552 0-1-.429-1-.957 0-.527.448-.957 1-.957.551 0 1 .43 1 .957Zm-6 0c0 .528-.449.957-1 .957-.551 0-1-.429-1-.957 0-.527.449-.957 1-.957.551 0 1 .43 1 .957Z" clip-rule="evenodd"/>
  <path fill="#F49D37" d="M20.023 0h2v2h-2zM24.023 0h2v2h-2zM30.023 0h2v2h-2zM34.023 0h2v2h-2zM20.023 2h2v2h-2zM22.023 2h2v2h-2zM24.023 2h2v2h-2zM26.023 2h2v2h-2zM38.023 2h2v2h-2zM20.023 4h2v2h-2zM22.023 4h2v2h-2zM24.023 4h2v2h-2zM30.023 4h2v2h-2zM32.023 4h2v2h-2zM20.023 6h2v2h-2zM22.023 6h2v2h-2zM26.023 6h2v2h-2zM28.023 6h2v2h-2zM36.023 6h2v2h-2zM20.023 8h2v2h-2zM22.023 8h2v2h-2zM24.023 8h2v2h-2zM26.023 8h2v2h-2zM30.023 8h2v2h-2zM34.023 8h2v2h-2zM20.023 10h2v2h-2zM22.023 10h2v2h-2zM24.023 10h2v2h-2zM32.023 10h2v2h-2zM20.023 12h2v2h-2zM28.023 12h2v2h-2z"/>
  <path fill="#F49D37" d="M30.023 12h2v2h-2zM38.023 12h2v2h-2zM20.023 14h2v2h-2zM22.023 14h2v2h-2zM24.023 14h2v2h-2zM26.023 14h2v2h-2zM28.023 14h2v2h-2zM34.023 14h2v2h-2zM20.023 16h2v2h-2zM22.023 16h2v2h-2zM24.023 16h2v2h-2zM28.023 16h2v2h-2z"/>
  <path fill="#F49D37" d="M30.023 16h2v2h-2zM32.023 16h2v2h-2zM36.023 16h2v2h-2zM20.023 18h2v2h-2zM22.023 18h2v2h-2zM24.023 18h2v2h-2zM26.023 18h2v2h-2zM20.023 20h2v2h-2zM24.023 20h2v2h-2zM28.023 20h2v2h-2z"/>
  <path fill="#F49D37" d="M30.023 20h2v2h-2zM34.023 20h2v2h-2zM38.023 20h2v2h-2zM20.023 22h2v2h-2zM22.023 22h2v2h-2zM28.023 22h2v2h-2zM32.023 22h2v2h-2zM20.023 24h2v2h-2zM22.023 24h2v2h-2zM24.023 24h2v2h-2zM26.023 24h2v2h-2zM30.023 24h2v2h-2zM36.023 24h2v2h-2zM20.023 26h2v2h-2zM22.023 26h2v2h-2zM24.023 26h2v2h-2zM34.023 26h2v2h-2zM38.023 26h2v2h-2zM20.023 28h2v2h-2zM22.023 28h2v2h-2zM26.023 28h2v2h-2zM30.023 28h2v2h-2zM32.023 28h2v2h-2zM38.023 28h2v2h-2zM20.023 30h2v2h-2zM22.023 30h2v2h-2zM24.023 30h2v2h-2zM26.023 30h2v2h-2zM28.023 30h2v2h-2zM20.023 32h2v2h-2zM24.023 32h2v2h-2zM28.023 32h2v2h-2z"/>
  <path fill="#F49D37" d="M30.023 32h2v2h-2zM34.023 32h2v2h-2zM20.023 34h2v2h-2zM22.023 34h2v2h-2zM24.023 34h2v2h-2zM32.023 34h2v2h-2zM36.023 34h2v2h-2zM20.023 36h2v2h-2zM22.023 36h2v2h-2zM24.023 36h2v2h-2zM26.023 36h2v2h-2zM30.023 36h2v2h-2zM34.023 38h2v2h-2zM20.023 38h2v2h-2zM22.023 38h2v2h-2zM28.023 38h2v2h-2zM38.023 36h2v2h-2z"/>
</svg>
