<svg xmlns="http://www.w3.org/2000/svg" fill="none" viewBox="0 0 30 30">
  <path fill="#fff" fill-rule="evenodd" d="M14.945 4.05c.019.026.037.054.055.081v3.066l-.993 3.055a.25.25 0 0 0 .237.327H15V10.5h7.5V12h3v1.5H21V12h-1.5v1.5H21V15h-1.5v1.5H18V15h-1.5v1.5H18V18h3v1.5h-1.5V21H18v1.5h1.5V21H21v1.5h1.5V24H24v1.5h-3V24h-1.5v3H8a1.5 1.5 0 0 1-1.5-1.5V11.018a3 3 0 0 1 .768-2.004L12.667 3h.277c.39 0 .776.095 1.124.278.348.182.648.447.877.771ZM18 25.5V24h-1.5v1.5H18Z" clip-rule="evenodd"/>
  <path fill="#fff" d="M25.5 25.5V27H24v-1.5h1.5ZM27 25.5h-1.5V24H27v1.5ZM27 25.5h1.5V27H27v-1.5ZM25.5 21v1.5h-3V21h3ZM27 19.5V21h-1.5v-1.5H27ZM28.5 19.5H27V18h1.5v1.5ZM28.5 19.5H30v3h-1.5v-3ZM22.5 18H21v-3h3v1.5h-1.5V18ZM24 18v1.5h-1.5V18H24ZM25.5 16.5V18H24v-1.5h1.5ZM25.5 16.5V15H27v1.5h-1.5ZM27 12h-1.5v-1.5H27V12ZM27 12h1.5v1.5H27V12ZM4 27H2.667a2.736 2.736 0 0 1-1.886-.744A2.478 2.478 0 0 1 0 24.462V13.039c0-.674.281-1.32.781-1.796a2.736 2.736 0 0 1 1.886-.743H4V27ZM28.5 15H30v1.5h-1.5V15Z"/>
</svg>
