<svg xmlns="http://www.w3.org/2000/svg" fill="none" viewBox="0 0 20 20">
  <path fill="#F49D37" fill-rule="evenodd" d="M7.5 7.5V0H0v7.5h7.5ZM1.25 1.25h5v5h-5v-5ZM5 2.5H2.5V5H5V2.5ZM2.5 15v2.5H5V15H2.5Zm5-2.5V20H0v-7.5h7.5Zm-6.25 1.25v5h5v-5h-5ZM12.5 7.5V0H15v1.25h-1.25v5H15V7.5h-2.5ZM15 8.75h-3.75V10H10V7.5h1.25V5H10V2.5h1.25V0H10v1.25H8.75V5H10v2.5H8.75v1.25H7.5V10H3.75V8.75H0v2.5h1.25V10H2.5v1.25h5V10h1.25v1.25h3.75V10H15V8.75Zm0 2.5h-1.25v2.5H15v-2.5ZM15 15h-1.25v1.25h-2.5v1.25H15V15Zm0 3.75h-5V15H8.75v5H15v-1.25ZM11.25 15v-1.25h-2.5V12.5h3.75V15h-1.25Z" clip-rule="evenodd"/>
  <path fill="#F49D37" d="M10 0h1v1h-1zM12 0h1v1h-1zM15 0h1v1h-1zM17 0h1v1h-1zM10 1h1v1h-1zM11 1h1v1h-1zM12 1h1v1h-1zM13 1h1v1h-1zM19 1h1v1h-1zM10 2h1v1h-1zM11 2h1v1h-1zM12 2h1v1h-1zM15 2h1v1h-1zM16 2h1v1h-1zM10 3h1v1h-1zM11 3h1v1h-1zM13 3h1v1h-1zM14 3h1v1h-1zM18 3h1v1h-1zM10 4h1v1h-1zM11 4h1v1h-1zM12 4h1v1h-1zM13 4h1v1h-1zM15 4h1v1h-1zM17 4h1v1h-1zM10 5h1v1h-1zM11 5h1v1h-1zM12 5h1v1h-1zM16 5h1v1h-1zM10 6h1v1h-1zM14 6h1v1h-1zM15 6h1v1h-1zM19 6h1v1h-1zM10 7h1v1h-1zM11 7h1v1h-1zM12 7h1v1h-1zM13 7h1v1h-1zM14 7h1v1h-1zM17 7h1v1h-1zM10 8h1v1h-1zM11 8h1v1h-1zM12 8h1v1h-1zM14 8h1v1h-1zM15 8h1v1h-1zM16 8h1v1h-1zM18 8h1v1h-1zM10 9h1v1h-1zM11 9h1v1h-1zM12 9h1v1h-1zM13 9h1v1h-1zM10 10h1v1h-1zM12 10h1v1h-1zM14 10h1v1h-1zM15 10h1v1h-1zM17 10h1v1h-1zM19 10h1v1h-1zM10 11h1v1h-1zM11 11h1v1h-1zM14 11h1v1h-1zM16 11h1v1h-1zM10 12h1v1h-1zM11 12h1v1h-1zM12 12h1v1h-1zM13 12h1v1h-1zM15 12h1v1h-1zM18 12h1v1h-1zM10 13h1v1h-1zM11 13h1v1h-1zM12 13h1v1h-1zM17 13h1v1h-1zM19 13h1v1h-1zM10 14h1v1h-1zM11 14h1v1h-1zM13 14h1v1h-1zM15 14h1v1h-1zM16 14h1v1h-1zM19 14h1v1h-1zM10 15h1v1h-1zM11 15h1v1h-1zM12 15h1v1h-1zM13 15h1v1h-1zM14 15h1v1h-1zM10 16h1v1h-1zM12 16h1v1h-1zM14 16h1v1h-1zM15 16h1v1h-1zM17 16h1v1h-1zM10 17h1v1h-1zM11 17h1v1h-1zM12 17h1v1h-1zM16 17h1v1h-1zM18 17h1v1h-1zM10 18h1v1h-1zM11 18h1v1h-1zM12 18h1v1h-1zM13 18h1v1h-1zM15 18h1v1h-1zM17 19h1v1h-1zM10 19h1v1h-1zM11 19h1v1h-1zM14 19h1v1h-1zM19 18h1v1h-1z"/>
</svg>
