<svg xmlns="http://www.w3.org/2000/svg" fill="none" viewBox="0 0 20 20">
  <g fill="#F49D37" clip-path="url(#a)">
    <path fill-rule="evenodd" d="M20 5.104v9.953c.004-.154.005-.308.005-.461l-.001-4.746c0-1.582 0-3.164-.002-4.747H20ZM10 19.999H5.601c-.462 0-.924-.006-1.387-.051a5.216 5.216 0 0 1-1.077-.19C1.89 19.385.982 18.608.44 17.426c-.287-.625-.374-1.299-.417-1.98l-.02-.351V4.908c0-.013.002-.026.004-.039a8.224 8.224 0 0 1 .087-1.022c.059-.404.14-.8.303-1.175C.867 1.565 1.67.797 2.784.357 3.37.123 3.99.058 4.61.023 4.737.016 4.864.01 4.991 0H10v3.88c-.507.1-1.011.202-1.517.304l-.264.053-.192.04c-.152.03-.304.061-.453.1-.227.056-.397.193-.455.43a1.428 1.428 0 0 0-.036.31v7.526c-.016.326-.183.528-.501.596l-.717.146a5.041 5.041 0 0 0-.924.257 1.558 1.558 0 0 0-.96 1.732c.136.784.8 1.315 1.598 1.285a3.64 3.64 0 0 0 .899-.143c.553-.16.963-.495 1.194-1.028.14-.325.179-.67.179-1.022.002-1.084.002-2.168.002-3.252l.001-3.252v-.036c-.001-.024-.002-.048 0-.072.01-.24.091-.345.323-.41.009 0 .019-.003.029-.006a.228.228 0 0 1 .013-.004L10 7.075V20Z" clip-rule="evenodd"/>
    <path d="M10 0h1v1h-1zM12 0h1v1h-1zM15 0h1v1h-1zM17 0h1v1h-1zM10 1h1v1h-1zM11 1h1v1h-1zM12 1h1v1h-1zM13 1h1v1h-1zM19 1h1v1h-1zM10 2h1v1h-1zM11 2h1v1h-1zM12 2h1v1h-1zM15 2h1v1h-1zM16 2h1v1h-1zM10 3h1v1h-1zM11 3h1v1h-1zM13 3h1v1h-1zM14 3h1v1h-1zM18 3h1v1h-1zM12 4h1v1h-1zM13 4h1v1h-1zM15 4h1v1h-1zM17 4h1v1h-1zM12 5h1v1h-1zM16 5h1v1h-1zM14 6h1v1h-1zM15 6h1v1h-1zM19 6h1v1h-1zM10 7h1v1h-1zM11 7h1v1h-1zM12 7h1v1h-1zM13 7h1v1h-1zM14 7h1v1h-1zM17 7h1v1h-1zM10 8h1v1h-1zM11 8h1v1h-1zM12 8h1v1h-1zM14 8h1v1h-1zM15 8h1v1h-1zM16 8h1v1h-1zM18 8h1v1h-1zM10 9h1v1h-1zM11 9h1v1h-1zM12 9h1v1h-1zM13 9h1v1h-1zM10 10h1v1h-1zM12 10h1v1h-1zM14 10h1v1h-1zM15 10h1v1h-1zM17 10h1v1h-1zM19 10h1v1h-1zM10 11h1v1h-1zM11 11h1v1h-1zM14 11h1v1h-1zM16 11h1v1h-1zM10 12h1v1h-1zM11 12h1v1h-1zM12 12h1v1h-1zM13 12h1v1h-1zM15 12h1v1h-1zM18 12h1v1h-1zM10 13h1v1h-1zM11 13h1v1h-1zM12 13h1v1h-1zM17 13h1v1h-1zM19 13h1v1h-1zM10 14h1v1h-1zM11 14h1v1h-1zM13 14h1v1h-1zM15 14h1v1h-1zM16 14h1v1h-1zM19 14h1v1h-1zM10 15h1v1h-1zM11 15h1v1h-1zM12 15h1v1h-1zM13 15h1v1h-1zM14 15h1v1h-1zM10 16h1v1h-1zM12 16h1v1h-1zM14 16h1v1h-1zM15 16h1v1h-1zM17 16h1v1h-1zM10 17h1v1h-1zM11 17h1v1h-1zM12 17h1v1h-1zM16 17h1v1h-1zM18 17h1v1h-1zM10 18h1v1h-1zM11 18h1v1h-1zM12 18h1v1h-1zM13 18h1v1h-1zM15 18h1v1h-1zM17 19h1v1h-1zM10 19h1v1h-1zM11 19h1v1h-1zM14 19h1v1h-1zM19 18h1v1h-1z"/>
  </g>
  <defs>
    <clipPath id="a">
      <path fill="#fff" d="M0 0h20v20H0z"/>
    </clipPath>
  </defs>
</svg>
