<svg width="20" height="20" viewBox="0 0 20 20" fill="none" xmlns="http://www.w3.org/2000/svg">
<rect x="10" width="1" height="1" fill="#F49D37"/>
<rect x="12" width="1" height="1" fill="#F49D37"/>
<rect x="15" width="1" height="1" fill="#F49D37"/>
<rect x="17" width="1" height="1" fill="#F49D37"/>
<rect x="10" y="1" width="1" height="1" fill="#F49D37"/>
<rect x="11" y="1" width="1" height="1" fill="#F49D37"/>
<rect x="12" y="1" width="1" height="1" fill="#F49D37"/>
<rect x="13" y="1" width="1" height="1" fill="#F49D37"/>
<rect x="19" y="1" width="1" height="1" fill="#F49D37"/>
<rect x="10" y="2" width="1" height="1" fill="#F49D37"/>
<rect x="11" y="2" width="1" height="1" fill="#F49D37"/>
<rect x="12" y="2" width="1" height="1" fill="#F49D37"/>
<rect x="15" y="2" width="1" height="1" fill="#F49D37"/>
<rect x="16" y="2" width="1" height="1" fill="#F49D37"/>
<rect x="10" y="3" width="1" height="1" fill="#F49D37"/>
<rect x="11" y="3" width="1" height="1" fill="#F49D37"/>
<rect x="13" y="3" width="1" height="1" fill="#F49D37"/>
<rect x="14" y="3" width="1" height="1" fill="#F49D37"/>
<rect x="18" y="3" width="1" height="1" fill="#F49D37"/>
<rect x="12" y="4" width="1" height="1" fill="#F49D37"/>
<rect x="13" y="4" width="1" height="1" fill="#F49D37"/>
<rect x="15" y="4" width="1" height="1" fill="#F49D37"/>
<rect x="17" y="4" width="1" height="1" fill="#F49D37"/>
<rect x="10" y="5" width="1" height="1" fill="#F49D37"/>
<rect x="11" y="5" width="1" height="1" fill="#F49D37"/>
<rect x="12" y="5" width="1" height="1" fill="#F49D37"/>
<rect x="16" y="5" width="1" height="1" fill="#F49D37"/>
<rect x="14" y="6" width="1" height="1" fill="#F49D37"/>
<rect x="15" y="6" width="1" height="1" fill="#F49D37"/>
<rect x="19" y="6" width="1" height="1" fill="#F49D37"/>
<rect x="13" y="7" width="1" height="1" fill="#F49D37"/>
<rect x="14" y="7" width="1" height="1" fill="#F49D37"/>
<rect x="17" y="7" width="1" height="1" fill="#F49D37"/>
<rect x="14" y="8" width="1" height="1" fill="#F49D37"/>
<rect x="15" y="8" width="1" height="1" fill="#F49D37"/>
<rect x="16" y="8" width="1" height="1" fill="#F49D37"/>
<rect x="18" y="8" width="1" height="1" fill="#F49D37"/>
<rect x="13" y="9" width="1" height="1" fill="#F49D37"/>
<rect x="14" y="10" width="1" height="1" fill="#F49D37"/>
<rect x="15" y="10" width="1" height="1" fill="#F49D37"/>
<rect x="17" y="10" width="1" height="1" fill="#F49D37"/>
<rect x="19" y="10" width="1" height="1" fill="#F49D37"/>
<rect x="14" y="11" width="1" height="1" fill="#F49D37"/>
<rect x="16" y="11" width="1" height="1" fill="#F49D37"/>
<rect x="13" y="12" width="1" height="1" fill="#F49D37"/>
<rect x="15" y="12" width="1" height="1" fill="#F49D37"/>
<rect x="18" y="12" width="1" height="1" fill="#F49D37"/>
<rect x="17" y="13" width="1" height="1" fill="#F49D37"/>
<rect x="19" y="13" width="1" height="1" fill="#F49D37"/>
<rect x="13" y="14" width="1" height="1" fill="#F49D37"/>
<rect x="15" y="14" width="1" height="1" fill="#F49D37"/>
<rect x="16" y="14" width="1" height="1" fill="#F49D37"/>
<rect x="19" y="14" width="1" height="1" fill="#F49D37"/>
<rect x="13" y="15" width="1" height="1" fill="#F49D37"/>
<rect x="14" y="15" width="1" height="1" fill="#F49D37"/>
<rect x="10" y="16" width="1" height="1" fill="#F49D37"/>
<rect x="12" y="16" width="1" height="1" fill="#F49D37"/>
<rect x="14" y="16" width="1" height="1" fill="#F49D37"/>
<rect x="15" y="16" width="1" height="1" fill="#F49D37"/>
<rect x="17" y="16" width="1" height="1" fill="#F49D37"/>
<rect x="10" y="17" width="1" height="1" fill="#F49D37"/>
<rect x="11" y="17" width="1" height="1" fill="#F49D37"/>
<rect x="12" y="17" width="1" height="1" fill="#F49D37"/>
<rect x="16" y="17" width="1" height="1" fill="#F49D37"/>
<rect x="18" y="17" width="1" height="1" fill="#F49D37"/>
<rect x="10" y="18" width="1" height="1" fill="#F49D37"/>
<rect x="11" y="18" width="1" height="1" fill="#F49D37"/>
<rect x="12" y="18" width="1" height="1" fill="#F49D37"/>
<rect x="13" y="18" width="1" height="1" fill="#F49D37"/>
<rect x="15" y="18" width="1" height="1" fill="#F49D37"/>
<rect x="17" y="19" width="1" height="1" fill="#F49D37"/>
<rect x="10" y="19" width="1" height="1" fill="#F49D37"/>
<rect x="11" y="19" width="1" height="1" fill="#F49D37"/>
<rect x="14" y="19" width="1" height="1" fill="#F49D37"/>
<rect x="19" y="18" width="1" height="1" fill="#F49D37"/>
<path fill-rule="evenodd" clip-rule="evenodd" d="M10 0H2.22222C1.63285 0 1.06762 0.237053 0.650874 0.65901C0.234126 1.08097 0 1.65326 0 2.25V17.75C0 18.3467 0.234126 18.919 0.650874 19.341C1.06762 19.7629 1.63285 20 2.22222 20H10V17.75H3.33333C2.72222 17.75 2.22222 17.2438 2.22222 16.625V4.5H10V0ZM3.71553 2.16667C3.71553 2.6269 3.34243 3 2.88219 3C2.42195 3 2.04886 2.6269 2.04886 2.16667C2.04886 1.70643 2.42195 1.33333 2.88219 1.33333C3.34243 1.33333 3.71553 1.70643 3.71553 2.16667ZM6.50402 2.16667C6.50402 2.6269 6.13092 3 5.67068 3C5.21045 3 4.83735 2.6269 4.83735 2.16667C4.83735 1.70643 5.21045 1.33333 5.67068 1.33333C6.13092 1.33333 6.50402 1.70643 6.50402 2.16667ZM8.45918 3C8.91942 3 9.29251 2.6269 9.29251 2.16667C9.29251 1.70643 8.91942 1.33333 8.45918 1.33333C7.99894 1.33333 7.62584 1.70643 7.62584 2.16667C7.62584 2.6269 7.99894 3 8.45918 3Z" fill="#F49D37"/>
</svg>
