<svg xmlns="http://www.w3.org/2000/svg" fill="none" viewBox="0 0 20 20">
  <path fill="#F49D37" d="M10 0h1v1h-1zM12 0h1v1h-1zM15 0h1v1h-1zM17 0h1v1h-1zM10 1h1v1h-1zM11 1h1v1h-1zM12 1h1v1h-1zM13 1h1v1h-1zM19 1h1v1h-1zM10 2h1v1h-1zM11 2h1v1h-1zM12 2h1v1h-1zM15 2h1v1h-1zM16 2h1v1h-1zM11 3h1v1h-1zM13 3h1v1h-1zM14 3h1v1h-1zM18 3h1v1h-1zM11 4h1v1h-1zM12 4h1v1h-1zM13 4h1v1h-1zM15 4h1v1h-1zM17 4h1v1h-1zM10 5h1v1h-1zM11 5h1v1h-1zM12 5h1v1h-1zM16 5h1v1h-1zM10 6h1v1h-1zM14 6h1v1h-1zM15 6h1v1h-1zM19 6h1v1h-1zM10 7h1v1h-1zM11 7h1v1h-1zM12 7h1v1h-1zM13 7h1v1h-1zM14 7h1v1h-1zM17 7h1v1h-1zM10 8h1v1h-1zM11 8h1v1h-1zM12 8h1v1h-1zM14 8h1v1h-1zM15 8h1v1h-1zM16 8h1v1h-1zM18 8h1v1h-1zM10 9h1v1h-1zM11 9h1v1h-1zM12 9h1v1h-1zM13 9h1v1h-1zM10 10h1v1h-1zM12 10h1v1h-1zM14 10h1v1h-1zM15 10h1v1h-1zM17 10h1v1h-1zM19 10h1v1h-1zM10 11h1v1h-1zM11 11h1v1h-1zM14 11h1v1h-1zM16 11h1v1h-1zM10 12h1v1h-1zM11 12h1v1h-1zM12 12h1v1h-1zM13 12h1v1h-1zM15 12h1v1h-1zM18 12h1v1h-1zM10 13h1v1h-1zM11 13h1v1h-1zM12 13h1v1h-1zM17 13h1v1h-1zM19 13h1v1h-1zM10 14h1v1h-1zM11 14h1v1h-1zM13 14h1v1h-1zM15 14h1v1h-1zM16 14h1v1h-1zM19 14h1v1h-1zM11 15h1v1h-1zM12 15h1v1h-1zM13 15h1v1h-1zM14 15h1v1h-1zM12 16h1v1h-1zM14 16h1v1h-1zM15 16h1v1h-1zM17 16h1v1h-1zM10 17h1v1h-1zM11 17h1v1h-1zM12 17h1v1h-1zM16 17h1v1h-1zM18 17h1v1h-1zM10 18h1v1h-1zM11 18h1v1h-1zM12 18h1v1h-1zM13 18h1v1h-1zM15 18h1v1h-1zM17 19h1v1h-1zM10 19h1v1h-1zM11 19h1v1h-1zM14 19h1v1h-1zM19 18h1v1h-1z"/>
  <path fill="#F49D37" fill-rule="evenodd" d="M10 .667H0v2.299h2.24v2.353H0v9.361h2.24v2.3H0v2.353h10V16.98H8.906V14.68H10V5.32H8.906V2.965H10v-2.3ZM4.427 14.68h2.24v2.3h-2.24v-2.3Zm0-11.714h2.24v2.353h-2.24V2.966Z" clip-rule="evenodd"/>
</svg>
