<svg width="30" height="30" viewBox="0 0 30 30" fill="none" xmlns="http://www.w3.org/2000/svg">
<path fill-rule="evenodd" clip-rule="evenodd" d="M11.25 11.25V0H0V11.25H11.25ZM1.875 1.875H9.375V9.375H1.875V1.875ZM7.5 3.75H3.75V7.5H7.5V3.75ZM3.75 22.5V26.25H7.5V22.5H3.75ZM11.25 18.75V30H0V18.75H11.25ZM1.875 20.625V28.125H9.375V20.625H1.875ZM13.125 1.875H15V3.75V7.5H13.125V1.875ZM15 11.25H13.125V13.125H11.25V15H5.625V13.125H0V16.875H1.875V15H3.75V16.875H11.25V15H13.125V16.875H15V15V11.25ZM15 18.75H13.125V20.625H15V18.75ZM15 22.5H13.125V30H15V28.125V22.5Z" fill="white"/>
<rect x="15" width="1.5" height="1.5" fill="white"/>
<rect x="18" width="1.5" height="1.5" fill="white"/>
<rect x="22.5" width="1.5" height="1.5" fill="white"/>
<rect x="25.5" width="1.5" height="1.5" fill="white"/>
<rect x="15" y="1.5" width="1.5" height="1.5" fill="white"/>
<rect x="16.5" y="1.5" width="1.5" height="1.5" fill="white"/>
<rect x="18" y="1.5" width="1.5" height="1.5" fill="white"/>
<rect x="19.5" y="1.5" width="1.5" height="1.5" fill="white"/>
<rect x="28.5" y="1.5" width="1.5" height="1.5" fill="white"/>
<rect x="15" y="3" width="1.5" height="1.5" fill="white"/>
<rect x="16.5" y="3" width="1.5" height="1.5" fill="white"/>
<rect x="18" y="3" width="1.5" height="1.5" fill="white"/>
<rect x="22.5" y="3" width="1.5" height="1.5" fill="white"/>
<rect x="24" y="3" width="1.5" height="1.5" fill="white"/>
<rect x="15" y="4.5" width="1.5" height="1.5" fill="white"/>
<rect x="16.5" y="4.5" width="1.5" height="1.5" fill="white"/>
<rect x="19.5" y="4.5" width="1.5" height="1.5" fill="white"/>
<rect x="21" y="4.5" width="1.5" height="1.5" fill="white"/>
<rect x="27" y="4.5" width="1.5" height="1.5" fill="white"/>
<rect x="15" y="6" width="1.5" height="1.5" fill="white"/>
<rect x="16.5" y="6" width="1.5" height="1.5" fill="white"/>
<rect x="18" y="6" width="1.5" height="1.5" fill="white"/>
<rect x="19.5" y="6" width="1.5" height="1.5" fill="white"/>
<rect x="22.5" y="6" width="1.5" height="1.5" fill="white"/>
<rect x="25.5" y="6" width="1.5" height="1.5" fill="white"/>
<rect x="15" y="7.5" width="1.5" height="1.5" fill="white"/>
<rect x="16.5" y="7.5" width="1.5" height="1.5" fill="white"/>
<rect x="18" y="7.5" width="1.5" height="1.5" fill="white"/>
<rect x="24" y="7.5" width="1.5" height="1.5" fill="white"/>
<rect x="15" y="9" width="1.5" height="1.5" fill="white"/>
<rect x="21" y="9" width="1.5" height="1.5" fill="white"/>
<rect x="22.5" y="9" width="1.5" height="1.5" fill="white"/>
<rect x="28.5" y="9" width="1.5" height="1.5" fill="white"/>
<rect x="15" y="10.5" width="1.5" height="1.5" fill="white"/>
<rect x="16.5" y="10.5" width="1.5" height="1.5" fill="white"/>
<rect x="18" y="10.5" width="1.5" height="1.5" fill="white"/>
<rect x="19.5" y="10.5" width="1.5" height="1.5" fill="white"/>
<rect x="21" y="10.5" width="1.5" height="1.5" fill="white"/>
<rect x="25.5" y="10.5" width="1.5" height="1.5" fill="white"/>
<rect x="15" y="12" width="1.5" height="1.5" fill="white"/>
<rect x="16.5" y="12" width="1.5" height="1.5" fill="white"/>
<rect x="18" y="12" width="1.5" height="1.5" fill="white"/>
<rect x="21" y="12" width="1.5" height="1.5" fill="white"/>
<rect x="22.5" y="12" width="1.5" height="1.5" fill="white"/>
<rect x="24" y="12" width="1.5" height="1.5" fill="white"/>
<rect x="27" y="12" width="1.5" height="1.5" fill="white"/>
<rect x="15" y="13.5" width="1.5" height="1.5" fill="white"/>
<rect x="16.5" y="13.5" width="1.5" height="1.5" fill="white"/>
<rect x="18" y="13.5" width="1.5" height="1.5" fill="white"/>
<rect x="19.5" y="13.5" width="1.5" height="1.5" fill="white"/>
<rect x="15" y="15" width="1.5" height="1.5" fill="white"/>
<rect x="18" y="15" width="1.5" height="1.5" fill="white"/>
<rect x="21" y="15" width="1.5" height="1.5" fill="white"/>
<rect x="22.5" y="15" width="1.5" height="1.5" fill="white"/>
<rect x="25.5" y="15" width="1.5" height="1.5" fill="white"/>
<rect x="28.5" y="15" width="1.5" height="1.5" fill="white"/>
<rect x="15" y="16.5" width="1.5" height="1.5" fill="white"/>
<rect x="16.5" y="16.5" width="1.5" height="1.5" fill="white"/>
<rect x="21" y="16.5" width="1.5" height="1.5" fill="white"/>
<rect x="24" y="16.5" width="1.5" height="1.5" fill="white"/>
<rect x="15" y="18" width="1.5" height="1.5" fill="white"/>
<rect x="16.5" y="18" width="1.5" height="1.5" fill="white"/>
<rect x="18" y="18" width="1.5" height="1.5" fill="white"/>
<rect x="19.5" y="18" width="1.5" height="1.5" fill="white"/>
<rect x="22.5" y="18" width="1.5" height="1.5" fill="white"/>
<rect x="27" y="18" width="1.5" height="1.5" fill="white"/>
<rect x="15" y="19.5" width="1.5" height="1.5" fill="white"/>
<rect x="16.5" y="19.5" width="1.5" height="1.5" fill="white"/>
<rect x="18" y="19.5" width="1.5" height="1.5" fill="white"/>
<rect x="25.5" y="19.5" width="1.5" height="1.5" fill="white"/>
<rect x="28.5" y="19.5" width="1.5" height="1.5" fill="white"/>
<rect x="15" y="21" width="1.5" height="1.5" fill="white"/>
<rect x="16.5" y="21" width="1.5" height="1.5" fill="white"/>
<rect x="19.5" y="21" width="1.5" height="1.5" fill="white"/>
<rect x="22.5" y="21" width="1.5" height="1.5" fill="white"/>
<rect x="24" y="21" width="1.5" height="1.5" fill="white"/>
<rect x="28.5" y="21" width="1.5" height="1.5" fill="white"/>
<rect x="15" y="22.5" width="1.5" height="1.5" fill="white"/>
<rect x="16.5" y="22.5" width="1.5" height="1.5" fill="white"/>
<rect x="18" y="22.5" width="1.5" height="1.5" fill="white"/>
<rect x="19.5" y="22.5" width="1.5" height="1.5" fill="white"/>
<rect x="21" y="22.5" width="1.5" height="1.5" fill="white"/>
<rect x="15" y="24" width="1.5" height="1.5" fill="white"/>
<rect x="18" y="24" width="1.5" height="1.5" fill="white"/>
<rect x="21" y="24" width="1.5" height="1.5" fill="white"/>
<rect x="22.5" y="24" width="1.5" height="1.5" fill="white"/>
<rect x="25.5" y="24" width="1.5" height="1.5" fill="white"/>
<rect x="15" y="25.5" width="1.5" height="1.5" fill="white"/>
<rect x="16.5" y="25.5" width="1.5" height="1.5" fill="white"/>
<rect x="18" y="25.5" width="1.5" height="1.5" fill="white"/>
<rect x="24" y="25.5" width="1.5" height="1.5" fill="white"/>
<rect x="27" y="25.5" width="1.5" height="1.5" fill="white"/>
<rect x="15" y="27" width="1.5" height="1.5" fill="white"/>
<rect x="16.5" y="27" width="1.5" height="1.5" fill="white"/>
<rect x="18" y="27" width="1.5" height="1.5" fill="white"/>
<rect x="19.5" y="27" width="1.5" height="1.5" fill="white"/>
<rect x="22.5" y="27" width="1.5" height="1.5" fill="white"/>
<rect x="25.5" y="28.5" width="1.5" height="1.5" fill="white"/>
<rect x="15" y="28.5" width="1.5" height="1.5" fill="white"/>
<rect x="16.5" y="28.5" width="1.5" height="1.5" fill="white"/>
<rect x="21" y="28.5" width="1.5" height="1.5" fill="white"/>
<rect x="28.5" y="27" width="1.5" height="1.5" fill="white"/>
</svg>
