<svg xmlns="http://www.w3.org/2000/svg" fill="none" viewBox="0 0 290 300">
  <g clip-path="url(#a)">
    <circle cx="145" cy="150" r="135" fill="#E9E9F1"/>
    <path fill="#A2A8B5" d="M244.328 10.402c-9.724-4.183-14.371 25.633-14.996 27.954-.625 2.322-2.278 2.6-5.105-.88-2.827-3.479-5.265-2.132-5.265-2.132-5.321 3.161 1.896 21.558 1.827 23.054-.07 1.496 1.069 3.649-4.46.603-5.528-3.046-10.168-4.67-10.974 0-.736 4.25 4.911 16.522 4.862 18.275-.048 1.753-5.758-2.653-8.161-4.115-3.112-1.882-6.432-1.753-7.016 2.03-.757 4.962 9.363 19.474 9.363 19.474l4.863 7.391 8.883-2.335s17.365-4.779 20.081-9.03c2.084-3.269-.341-5.469-3.952-6.01-2.779-.413-10.051-.677-8.947-2.03 1.105-1.354 13.579-7.087 15.865-10.783 2.5-4.061-2.084-5.767-8.335-6.958-6.252-1.192-3.939-2.105-2.987-3.283.951-1.178 18.705-10.586 16.767-16.36 0 0-.951-2.559-5.418-1.712-4.466.846-5.556-.407-4.459-2.572 1.098-2.166 17.406-27.752 7.252-30.744"/>
    <path fill="#fff" d="M204.105 115.897c.187.068 8.488-21.599 18.531-48.389 10.044-26.79 18.06-48.565 17.865-48.633-.194-.067-8.488 21.599-18.538 48.396-10.051 26.797-18.046 48.559-17.858 48.626Z"/>
    <path fill="#fff" d="M227.181 54.39c.18-.068-.563-2.511-1.883-5.36-1.319-2.85-2.681-5.03-2.854-4.935-.174.095.896 2.382 2.194 5.218 1.299 2.837 2.327 5.138 2.543 5.077ZM239.135 49.49c-.042-.183-2.862.358-6.127 1.651-3.264 1.293-5.695 2.796-5.598 2.951.097.156 2.639-1.035 5.862-2.301 3.223-1.266 5.918-2.105 5.863-2.301ZM219.904 74.154c.153-.129-1.924-2.707-4.64-5.828-2.716-3.12-5.036-5.49-5.188-5.367-.153.121 1.924 2.707 4.639 5.827 2.716 3.12 5.036 5.497 5.189 5.368Z"/>
    <path fill="#fff" d="M236.003 70.981c0-.182-3.799.122-8.377 1.002-4.577.88-8.196 1.977-8.147 2.16.048.182 3.73-.603 8.286-1.47 4.557-.866 8.287-1.488 8.238-1.692ZM231.033 89.92c0-.196-3.986.21-8.842.907-4.855.698-8.765 1.415-8.731 1.605.035.19 3.98-.217 8.836-.907 4.855-.69 8.765-1.415 8.737-1.605ZM213.024 92.113c.132-.17-2.556-2.275-5.348-5.361-2.792-3.087-4.633-5.923-4.813-5.814-.181.108 1.389 3.147 4.271 6.28 2.883 3.135 5.793 5.044 5.89 4.895Z"/>
    <path fill="#5F3381" d="M2.672 97.402c9.724-4.183 14.37 25.633 14.996 27.954.625 2.322 2.278 2.599 5.105-.88 2.827-3.479 5.265-2.132 5.265-2.132 5.32 3.161-1.896 21.558-1.827 23.054.07 1.496-1.07 3.649 4.46.603 5.528-3.046 10.168-4.671 10.974 0 .736 4.25-4.91 16.522-4.862 18.275.048 1.753 5.758-2.653 8.161-4.115 3.112-1.882 6.432-1.753 7.015 2.03.758 4.962-9.363 19.474-9.363 19.474l-4.862 7.391-8.883-2.335s-17.365-4.779-20.08-9.029c-2.085-3.27.34-5.47 3.951-6.011 2.779-.413 10.051-.677 8.947-2.031-1.105-1.353-13.58-7.086-15.865-10.782-2.5-4.061 2.084-5.767 8.335-6.958 6.252-1.192 3.939-2.105 2.987-3.283S-1.579 138.041.36 132.267c0 0 .951-2.559 5.418-1.712 4.466.846 5.556-.407 4.459-2.573-1.098-2.166-17.406-27.751-7.252-30.743"/>
    <path fill="#fff" d="M42.895 202.897c-.188.068-8.488-21.599-18.532-48.389C14.32 127.718 6.304 105.943 6.5 105.875c.194-.068 8.488 21.599 18.538 48.396s18.046 48.559 17.858 48.626Z"/>
    <path fill="#fff" d="M19.82 141.39c-.181-.068.562-2.511 1.882-5.361 1.32-2.849 2.68-5.029 2.854-4.934.174.095-.896 2.382-2.194 5.218-1.3 2.837-2.327 5.138-2.542 5.077ZM7.865 136.49c.042-.183 2.862.358 6.127 1.651 3.264 1.293 5.695 2.796 5.598 2.951-.097.156-2.64-1.035-5.862-2.301-3.223-1.266-5.918-2.105-5.863-2.301ZM27.096 161.154c-.153-.129 1.924-2.707 4.64-5.828 2.716-3.12 5.036-5.489 5.188-5.367.153.121-1.924 2.707-4.64 5.827-2.715 3.121-5.035 5.497-5.188 5.368Z"/>
    <path fill="#fff" d="M10.997 157.981c0-.182 3.8.122 8.377 1.002 4.577.88 8.196 1.977 8.147 2.159-.048.183-3.73-.602-8.286-1.468-4.557-.867-8.287-1.489-8.238-1.693ZM15.967 176.921c0-.197 3.987.209 8.842.906 4.855.698 8.765 1.415 8.73 1.605-.034.189-3.98-.217-8.835-.907-4.855-.691-8.765-1.415-8.737-1.604ZM33.976 179.113c-.132-.17 2.556-2.275 5.348-5.361 2.792-3.087 4.633-5.923 4.813-5.814.181.108-1.389 3.147-4.271 6.281-2.883 3.134-5.793 5.043-5.89 4.894Z"/>
    <path fill="#85649F" d="M129.307 15c-34.285 0-62.21 27.937-62.21 62.512H50c-5.523 0-10 4.478-10 10v187.176c0 5.523 4.477 10 10 10h158.891c5.522 0 10-4.477 10-10V87.512c0-5.522-4.478-10-10-10h-17.097c0-34.575-27.925-62.512-62.487-62.512Z"/>
    <path fill="#CACDD7" d="M145.057 15c-34.285 0-62.21 27.937-62.21 62.512H65.75c-5.523 0-10 4.478-10 10v187.176c0 5.523 4.477 10 10 10h158.891c5.522 0 10-4.477 10-10V87.512c0-5.522-4.478-10-10-10h-17.097c0-34.575-27.925-62.512-62.487-62.512Z"/>
    <path fill="#85649F" d="M118 215a4 4 0 0 1 4-4h39a4 4 0 0 1 4 4v39a4 4 0 0 1-4 4h-39a4 4 0 0 1-4-4v-39Z"/>
    <path fill="#fff" d="M121 215a4 4 0 0 1 4-4h39a4 4 0 0 1 4 4v39a4 4 0 0 1-4 4h-39a4 4 0 0 1-4-4v-39Z"/>
    <path fill="#212736" d="M164.106 214.423h-38.667a.666.666 0 0 0-.666.667v38.667c0 .368.298.667.666.667h38.667a.667.667 0 0 0 .667-.667V215.09a.667.667 0 0 0-.667-.667Zm-.667 38.667h-37.333v-37.334h37.333v37.334Z"/>
    <path fill="#212736" d="M140.774 218.421h-12v12h12v-12Zm-1.334 10.667h-9.333v-9.334h9.333v9.334Z"/>
    <path fill="#212736" d="M138.107 221.09h-6.666v6.666h6.666v-6.666Zm-1.333 5.333h-4v-4h4v4ZM160.774 218.421h-12v12h12v-12Zm-1.333 10.667h-9.333v-9.334h9.333v9.334ZM140.774 238.421h-12v12h12v-12Zm-1.334 10.667h-9.333v-9.334h9.333v9.334ZM132.774 231.754h-4v3.334h4v-3.334Zm-1.334 2.001h-1.333v-.667h1.333v.667ZM139.44 231.754h-5.333v3.334h5.333v-3.334Zm-1.333 2.001h-2.667v-.667h2.667v.667ZM128.774 235.756h1.333v1.333h-1.333v-1.333ZM131.441 235.756h1.333v1.333h-1.333v-1.333ZM143.439 233.09h2.667v2.667h-2.667v-2.667Z"/>
    <path fill="#212736" d="M133.439 223.091h2.666v2.666h-2.666v-2.666ZM158.106 221.09h-6.667v6.666h6.667v-6.666Zm-1.334 5.333h-4v-4h4v4Z"/>
    <path fill="#212736" d="M153.44 223.091h2.666v2.666h-2.666v-2.666ZM138.106 241.09h-6.667v6.666h6.667v-6.666Zm-1.334 5.333h-4v-4h4v4Z"/>
    <path fill="#212736" d="M133.439 243.09h2.666v2.667h-2.666v-2.667ZM148.107 218.421h-6.667v4h6.667v-4Zm-1.333 2.667h-4v-1.334h4v1.334ZM145.441 223.758h-4v5.333h4v-5.333Zm-1.334 4h-1.333v-2.667h1.333v2.667ZM146.106 223.758h2v1.333h-2v-1.333ZM146.106 226.427h1.333v2.666h-1.333v-2.666ZM141.441 230.425h6v1.333h-6v-1.333ZM140.773 232.426h1.333v5.333h-1.333v-5.333ZM134.107 235.759h5.333v1.333h-5.333v-1.333ZM147.44 237.759h5.334v-5.333h-5.334v5.333Zm1.334-4h2.666v2.667h-2.666v-2.667ZM154.107 235.757h6.667v-4h-6.667v4Zm1.334-2.666h4v1.333h-4v-1.333ZM154.107 236.427h6.667v1.333h-6.667v-1.333ZM144.106 241.758h-1.333v5.334h5.333v-4h3.333v-1.334h-6v-4.667h-1.333v2.001h-2v1.333h2v1.333Zm2.667 4h-2.667v-2.666h2.667v2.666Z"/>
    <path fill="#212736" d="M147.44 239.093h7.334v1.333h-7.334v-1.333ZM156.773 241.757h-4v1.334h2.667v7.333h5.333v-5.333h-4v-3.334Zm2.667 7.334h-2.667v-2.667h2.667v2.667Z"/>
    <path fill="#212736" d="M157.44 239.093h1.333v4.666h-1.333v-4.666ZM159.44 240.425h1.334v3.333h-1.334v-3.333ZM142.774 247.759h1.333v2.667h-1.333v-2.667ZM145.44 248.424h4.667v1.333h-4.667v-1.333ZM150.772 244.426h-1.333v3.333h3.333v2.667h1.334v-4h-3.334v-2ZM152.107 243.758h2v1.334h-2v-1.334Z"/>
    <g clip-path="url(#b)">
      <path fill="#85649F" d="M145.703 42.004c-14.633-.25-26.699 11.41-26.949 26.043-.142 8.297 3.556 15.754 9.444 20.713a7.041 7.041 0 0 1 1.257-.894l7.907-4.313a3.23 3.23 0 0 0 1.683-2.835v-3.24s-2.321-2.776-3.206-6.633a2.66 2.66 0 0 1-1.226-2.231v-3.546c0-.78.347-1.477.886-1.965v-5.126S134.446 50 145.249 50s9.75 7.977 9.75 7.977v5.126c.54.488.886 1.185.886 1.965v3.546c0 1.192-.8 2.195-1.886 2.53a19.482 19.482 0 0 1-2.632 5.304c-.291.41-.563.759-.801 1.03V80.8c0 1.223.691 2.342 1.785 2.888l8.467 4.233a7.05 7.05 0 0 1 1.39.932c5.71-4.762 9.399-11.882 9.536-19.9.252-14.633-11.407-26.7-26.041-26.95Z"/>
    </g>
    <path fill="#fff" d="M96.75 116.5a6.5 6.5 0 0 1 6.5-6.5h83a6.5 6.5 0 1 1 0 13h-83a6.5 6.5 0 0 1-6.5-6.5ZM116.75 138.5a6.5 6.5 0 0 1 6.5-6.5h43a6.5 6.5 0 1 1 0 13h-43a6.5 6.5 0 0 1-6.5-6.5Z"/>
    <path fill="#85649F" d="M225.753 207.479a10.038 10.038 0 0 1 1.73-7.077c4.468-6.369 13.341-21.379 14.65-32.978 1.759-15.599 10.287-35.179 9.076-37.288-1.354-2.342-6.661-4.796-11.312.554-4.652 5.349-12.624 28.14-12.624 28.14s-26.344 8.996-32.862 19.468c-6.518 10.472 2.735 30.63 2.735 30.63l52.455 90.693-23.848-92.142Z"/>
    <path fill="#85649F" d="M249.601 299.621h-52.052l-12.243-87.533a9.425 9.425 0 0 0-2.178-4.821c-3.964-4.627-13.075-16.457-12.047-26.121l21.621 13.456a66.746 66.746 0 0 0 4.425 14.339l52.474 90.68Z"/>
    <path fill="#FFBE9D" d="M230.753 207.479a10.038 10.038 0 0 1 1.73-7.077c4.468-6.369 13.341-21.379 14.65-32.978 1.759-15.599 10.287-35.179 9.076-37.288-1.354-2.342-6.661-4.796-11.312.554-4.652 5.349-12.624 28.14-12.624 28.14s-26.344 8.996-32.862 19.468c-6.518 10.472 2.735 30.63 2.735 30.63l52.455 90.693-23.848-92.142Z"/>
    <path fill="#FFBE9D" d="M254.601 299.621h-52.052l-12.243-87.533a9.425 9.425 0 0 0-2.178-4.821c-3.964-4.627-13.075-16.457-12.047-26.121l21.621 13.456a66.746 66.746 0 0 0 4.425 14.339l52.474 90.68ZM204.087 121.615s-10.288-15.722-16.483-11.469c-8.483 5.829 6.899 19.967 6.899 19.967l9.584-8.498Z"/>
    <path fill="#85649F" d="M186.036 118.972c1.976 4.559 6.371 9.102 7.916 10.615l5.21-4.596c-.141-.114-.891-.833-1.769-1.675-1.344-1.288-2.988-2.866-3.219-3.009a10.718 10.718 0 0 0-4.7-1.582 10.612 10.612 0 0 0-3.438.247Z"/>
    <path fill="#85649F" d="m196.098 204.632 43.904-70.539c2.517-4.044 1.248-9.382-2.835-11.924l-26.888-16.735c-4.083-2.541-9.433-1.323-11.95 2.721l-43.904 70.54c-2.517 4.044-1.247 9.382 2.835 11.923l26.889 16.736c4.082 2.541 9.432 1.323 11.949-2.722Z"/>
    <path fill="#212736" d="m200.099 204.633 43.903-70.539c2.517-4.044 1.248-9.382-2.835-11.924l-26.888-16.735c-4.083-2.541-9.433-1.323-11.95 2.721l-43.903 70.54c-2.517 4.044-1.248 9.382 2.834 11.923l26.889 16.736c4.082 2.541 9.433 1.322 11.95-2.722Z"/>
    <path fill="#E9E9F1" d="m213.156 107.237 3.722 2.317c.187.117.344.275.46.462.116.188.186.399.205.617l.156 1.802a2.62 2.62 0 0 0 1.225 1.997l12.118 7.543c.346.215.738.346 1.143.384.405.038.813-.02 1.19-.167l1.685-.656a1.417 1.417 0 0 1 1.263.121l3.718 2.314a6.625 6.625 0 0 1 1.873 1.747 6.554 6.554 0 0 1 1.158 4.867 6.44 6.44 0 0 1-.89 2.377l-43.902 70.536a6.434 6.434 0 0 1-1.74 1.85 6.502 6.502 0 0 1-2.324 1.04 6.619 6.619 0 0 1-4.951-.837l-26.885-16.733a6.622 6.622 0 0 1-1.871-1.748 6.584 6.584 0 0 1-1.064-2.324 6.508 6.508 0 0 1-.092-2.544c.137-.844.44-1.652.892-2.377l43.902-70.536a6.466 6.466 0 0 1 4.062-2.887 6.595 6.595 0 0 1 4.947.835Z" opacity=".21"/>
    <path fill="#FAFAFC" d="m226.284 148.205-28.823-17.94-17.77 28.55 28.823 17.941 17.77-28.551Z"/>
    <path fill="#212736" d="m198.648 133.32 24.371 15.168a.493.493 0 0 1 .158.681L208.01 173.54a.495.495 0 0 1-.682.159l-24.371-15.167a.495.495 0 0 1-.158-.682l15.167-24.371a.496.496 0 0 1 .682-.159Zm-14.747 24.633 23.53 14.644 14.645-23.531-23.531-14.644-14.644 23.531Z"/>
    <path fill="#212736" d="m211.786 144.993 7.563 4.707-4.707 7.563-7.563-4.707 4.707-7.563Zm-3.344 7.246 5.883 3.661 3.661-5.883-5.883-3.661-3.661 5.883Z"/>
    <path fill="#212736" d="m212.419 147.72 4.202 2.615-2.615 4.202-4.202-2.615 2.615-4.202Zm-1.251 3.885 2.521 1.569 1.569-2.521-2.521-1.569-1.569 2.521ZM199.18 137.147l7.563 4.707-4.707 7.564-7.564-4.708 4.708-7.563Zm-3.344 7.246 5.882 3.661 3.662-5.882-5.883-3.662-3.661 5.883ZM203.941 157.598l7.563 4.707-4.707 7.564-7.564-4.707 4.708-7.564Zm-3.344 7.246 5.882 3.661 3.661-5.882-5.882-3.661-3.661 5.882ZM211.598 156.534l2.521 1.569-1.308 2.101-2.521-1.569 1.308-2.101Zm.056 1.784.84.523.262-.42-.841-.523-.261.42ZM207.396 153.919l3.362 2.092-1.308 2.102-3.362-2.093 1.308-2.101Zm.056 1.784 1.681 1.046.261-.42-1.681-1.046-.261.42ZM212.549 160.625l-.84-.523-.523.841.84.523.523-.841ZM210.868 159.579l-.84-.523-.523.84.84.523.523-.84ZM204.351 153.193l-1.68-1.046-1.046 1.68 1.68 1.046 1.046-1.68Z"/>
    <path fill="#212736" d="m214.577 150.813-1.681-1.046-1.046 1.681 1.681 1.046 1.046-1.681ZM199.815 139.876l4.202 2.615-2.615 4.202-4.202-2.615 2.615-4.202Zm-1.252 3.884 2.521 1.569 1.569-2.521-2.521-1.569-1.569 2.521Z"/>
    <path fill="#212736" d="m201.971 142.967-1.681-1.046-1.046 1.681 1.681 1.046 1.046-1.681ZM204.575 160.327l4.202 2.615-2.615 4.202-4.202-2.616 2.615-4.201Zm-1.251 3.884 2.521 1.569 1.569-2.521-2.521-1.569-1.569 2.521Z"/>
    <path fill="#212736" d="m206.732 163.418-1.681-1.046-1.046 1.681 1.681 1.046 1.046-1.681ZM207.164 142.116l4.201 2.615-1.569 2.521-4.202-2.615 1.57-2.521Zm-.206 2.204 2.521 1.569.523-.841-2.521-1.569-.523.841ZM206.751 146.526l2.521 1.569-2.092 3.361-2.521-1.569 2.092-3.361Zm-.729 3.044.84.523 1.046-1.681-.84-.523-1.046 1.681ZM206.331 146.265l-1.26-.785-.523.841 1.26.784.523-.84ZM205.285 147.947l-.841-.523-1.046 1.681.84.522 1.047-1.68ZM206.657 152.297l-3.782-2.354-.523.84 3.782 2.354.523-.84ZM206.293 153.82l-.841-.523-2.092 3.361.841.523 2.092-3.361ZM209.187 158.536l-3.362-2.092-.523.84 3.362 2.092.523-.84ZM199.998 154.566l-3.361-2.092 2.092-3.362 3.361 2.092-2.092 3.362Zm.729-3.044-1.681-1.046-1.046 1.68 1.681 1.046 1.046-1.68ZM196.581 150.689l-4.201-2.615 1.569-2.521 4.202 2.615-1.57 2.521Zm.206-2.204-2.521-1.569-.523.841 2.521 1.569.523-.841ZM196.319 151.111l-4.202-2.615-.523.84 4.202 2.615.523-.84ZM200.531 158.394l.84.523-2.092 3.362-3.361-2.092 1.569-2.521-2.101-1.308.523-.84 3.782 2.353 1.83-2.941.841.523-.785 1.26 1.261.785-.523.84-1.261-.784-.523.84Zm-3.25 1.476 1.681 1.046 1.046-1.681-1.681-1.046-1.046 1.681Z"/>
    <path fill="#212736" d="m199.475 155.406-4.622-2.876-.523.84 4.622 2.877.523-.841ZM192.548 153.425l2.521 1.569-.523.84-1.681-1.046-2.877 4.623-3.361-2.092 2.092-3.362 2.521 1.569 1.308-2.101Zm-4.558 3.576 1.681 1.046 1.046-1.681-1.681-1.046-1.046 1.681Z"/>
    <path fill="#212736" d="m193.173 151.484-.841-.523-1.83 2.941.84.523 1.831-2.941ZM191.389 151.539l-.84-.523-1.308 2.101.841.523 1.307-2.101ZM199.017 162.699l-.84-.523-1.046 1.681.84.523 1.046-1.681ZM197.076 162.072l-2.942-1.83-.523.84 2.942 1.831.523-.841ZM195.283 157.461l.84.523-1.307 2.101-2.101-1.308-1.046 1.681-.84-.523 1.569-2.521 2.101 1.307.784-1.26ZM194.704 156.517l-1.261-.785-.523.84 1.261.785.523-.84Z"/>
    <path fill="url(#c)" fill-opacity=".3" d="m215.201 158.139-21.275-13.242-7.931 12.743 21.275 13.241 7.931-12.742Z"/>
    <path fill="#F49D37" d="m215.2 158.139-21.276-13.241-.534.858 21.276 13.241.534-.858Z"/>
    <path fill="#FAFAFC" d="m200.997 129.416-4.268-2.656-2.633 4.23.499.311 2.323-3.734 3.769 2.346.31-.497ZM227.485 151.766l2.628-4.223-4.271-2.658-.307.493 3.772 2.349-2.321 3.729.499.31ZM205.227 178.015l4.267 2.656 2.633-4.231-.498-.31-2.326 3.737-3.769-2.346-.307.494ZM178.74 155.664l-2.632 4.227 4.272 2.659.307-.494-3.773-2.348 2.324-3.734-.498-.31Z"/>
    <path fill="#8F1DEA" d="m202.466 185.144-27.333-17.011a.9.9 0 0 0-1.241.283l-1.691 2.717a.9.9 0 0 0 .295 1.238l27.332 17.011a.9.9 0 0 0 1.241-.282l1.692-2.718a.9.9 0 0 0-.295-1.238Z"/>
    <path fill="#85649F" d="M164.139 152.632a5.327 5.327 0 0 0-3.429 3.199 5.35 5.35 0 0 0-.331 2.385 5.41 5.41 0 0 0 .747 2.299c2.095 3.534 5.871 8.464 9.811 6.577 4.512-2.157 1.898-8.198-.318-11.952a5.615 5.615 0 0 0-6.34-2.562l-.14.054Z"/>
    <path fill="#FFBE9D" d="M166.139 151.633a5.327 5.327 0 0 0-3.429 3.199 5.35 5.35 0 0 0-.331 2.385 5.41 5.41 0 0 0 .747 2.299c2.095 3.534 5.871 8.464 9.811 6.577 4.512-2.157 1.898-8.198-.318-11.952a5.615 5.615 0 0 0-6.34-2.562l-.14.054Z"/>
    <path fill="#85649F" d="m179.725 137.554 2.299 1.431-2.996 4.815c.27 3.328-.132 10.202-4.174 11.271-5.535 1.465-8.364-5.141-8.327-11.987.015-3.406 4.186-5.339 7.309-6.31a7.114 7.114 0 0 1 3.025-.252 7.174 7.174 0 0 1 2.864 1.032Z"/>
    <path fill="#FFBE9D" d="m181.725 136.554 2.299 1.431-2.996 4.815c.27 3.328-.132 10.202-4.174 11.271-5.535 1.465-8.364-5.141-8.327-11.987.015-3.406 4.186-5.339 7.309-6.31a7.112 7.112 0 0 1 3.025-.252 7.18 7.18 0 0 1 2.864 1.032Z"/>
    <path fill="#85649F" d="m188.481 123.122 2.3 1.431-2.997 4.814c.271 3.328-.132 10.202-4.173 11.271-5.532 1.467-8.364-5.141-8.33-11.983.017-3.409 4.188-5.343 7.311-6.314a7.114 7.114 0 0 1 3.025-.251 7.174 7.174 0 0 1 2.864 1.032Z"/>
    <path fill="#FFBE9D" d="m190.481 122.122 2.3 1.431-2.997 4.814c.271 3.328-.132 10.202-4.173 11.271-5.532 1.467-8.364-5.141-8.33-11.983.017-3.409 4.188-5.343 7.311-6.314a7.114 7.114 0 0 1 3.025-.251 7.174 7.174 0 0 1 2.864 1.032Z"/>
    <path fill="#85649F" d="M286.997 129.402c-9.724-4.183-14.371 25.633-14.996 27.954-.625 2.322-2.278 2.599-5.105-.88-2.827-3.479-5.265-2.132-5.265-2.132-5.321 3.161 1.896 21.558 1.826 23.054-.069 1.496 1.07 3.649-4.459.603-5.529-3.046-10.169-4.671-10.974 0-.737 4.25 4.91 16.522 4.862 18.275-.049 1.753-5.758-2.653-8.162-4.115-3.111-1.882-6.431-1.753-7.015 2.03-.757 4.962 9.363 19.474 9.363 19.474l4.862 7.391 8.884-2.335s17.365-4.779 20.08-9.029c2.084-3.27-.34-5.47-3.952-6.011-2.778-.413-10.05-.677-8.946-2.031 1.104-1.353 13.579-7.086 15.864-10.782 2.501-4.061-2.083-5.767-8.335-6.958-6.251-1.192-3.938-2.105-2.986-3.283.951-1.178 18.705-10.586 16.767-16.36 0 0-.952-2.559-5.418-1.712-4.466.846-5.557-.407-4.459-2.573 1.097-2.166 17.406-27.751 7.251-30.743"/>
    <path fill="#fff" d="M246.774 234.897c.187.068 8.487-21.599 18.531-48.389 10.044-26.79 18.059-48.565 17.865-48.633-.195-.068-8.488 21.599-18.539 48.396-10.05 26.797-18.045 48.559-17.857 48.626Z"/>
    <path fill="#fff" d="M269.849 173.39c.181-.068-.562-2.511-1.882-5.361-1.32-2.849-2.681-5.029-2.855-4.934-.173.095.896 2.382 2.195 5.218 1.299 2.837 2.327 5.138 2.542 5.077ZM281.803 168.49c-.041-.183-2.861.358-6.126 1.651-3.264 1.293-5.695 2.796-5.598 2.951.097.156 2.639-1.035 5.862-2.301 3.223-1.266 5.918-2.105 5.862-2.301ZM262.573 193.154c.152-.129-1.924-2.707-4.64-5.828-2.716-3.12-5.036-5.489-5.189-5.367-.153.121 1.924 2.707 4.64 5.827 2.716 3.121 5.036 5.497 5.189 5.368Z"/>
    <path fill="#fff" d="M278.672 189.981c0-.182-3.8.122-8.377 1.002-4.577.88-8.196 1.977-8.148 2.159.049.183 3.73-.602 8.287-1.468 4.556-.867 8.286-1.489 8.238-1.693ZM273.702 208.921c0-.197-3.987.209-8.842.906-4.855.698-8.766 1.415-8.731 1.605.035.189 3.98-.217 8.835-.907 4.855-.691 8.766-1.415 8.738-1.604ZM255.693 211.113c.132-.17-2.556-2.275-5.348-5.361-2.792-3.087-4.633-5.923-4.814-5.814-.18.108 1.389 3.147 4.272 6.281s5.793 5.043 5.89 4.894Z"/>
    <path fill="#FFBE9D" d="M22.582 220c1.907.144 3.764.663 5.46 1.525a14.102 14.102 0 0 1 4.407 3.492 24.515 24.515 0 0 1 4.958 9.956c1.843 6.968.587 15.159-1.494 22.065-7.706-2.756-12.394-10.839-14.523-15.066-3.337-6.689-5.212-20.78 1.192-21.972ZM46.97 265.554a11.63 11.63 0 0 1-1.865-5.87 11.601 11.601 0 0 1 1.404-5.991 15.876 15.876 0 0 1 4.112-4.717 16.332 16.332 0 0 1 5.66-2.808 6.953 6.953 0 0 1 5.705.325c.732.55 1.3 1.281 1.644 2.117.343.836.45 1.747.31 2.637a10.05 10.05 0 0 1-2.256 4.846c-3.798 4.924-8.406 9.012-14.714 9.461ZM38.962 272.395a28.175 28.175 0 0 0-9.906-8.714 29.01 29.01 0 0 0-12.895-3.348c-2.288 0-5.005.511-5.895 2.555-.89 2.043.604 4.351 2.256 5.899a24.488 24.488 0 0 0 12.623 6.018 24.8 24.8 0 0 0 13.928-1.822"/>
    <path fill="#212736" d="M46.995 289.456a5.845 5.845 0 0 1-.381-1.471 83.906 83.906 0 0 1-.683-4.057 49.215 49.215 0 0 1-.366-13.579 25.15 25.15 0 0 1 5.228-12.574 16.933 16.933 0 0 1 3.05-2.895 4.417 4.417 0 0 1 1.32-.79 35.966 35.966 0 0 0-3.91 4.042 26.277 26.277 0 0 0-4.862 12.387 56.77 56.77 0 0 0 .128 13.409c.272 1.832.431 3.678.476 5.528Z"/>
    <path fill="#212736" d="M24.979 230.589c.448.714.83 1.466 1.144 2.245.683 1.456 1.589 3.577 2.796 6.194 2.304 5.264 5.37 12.604 8.549 20.795a567.633 567.633 0 0 1 7.706 21.104c.921 2.725 1.589 4.94 2.129 6.473.295.778.513 1.581.651 2.4a16.847 16.847 0 0 1-.953-2.307c-.62-1.642-1.414-3.779-2.383-6.38a1294.849 1294.849 0 0 0-7.945-21.012c-3.178-8.175-6.149-15.484-8.31-20.872-1.033-2.555-1.89-4.645-2.558-6.302a15.383 15.383 0 0 1-.826-2.338Z"/>
    <path fill="#212736" d="M20.091 265.816a5.12 5.12 0 0 1 1.494 0c.582.03 1.16.103 1.732.217.76.105 1.514.255 2.256.449a30.167 30.167 0 0 1 5.657 2.013 35.019 35.019 0 0 1 6.244 3.855 35.176 35.176 0 0 1 5.148 5.157 29.507 29.507 0 0 1 3.178 5.001c.354.666.661 1.354.922 2.059.229.5.415 1.018.556 1.549a5.1 5.1 0 0 1 .334 1.409c-.16 0-.747-1.936-2.336-4.831a32.98 32.98 0 0 0-3.258-4.785 33.447 33.447 0 0 0-11.122-8.81 33.388 33.388 0 0 0-5.482-2.122c-3.225-.851-5.339-1.006-5.323-1.161Z"/>
  </g>
  <defs>
    <clipPath id="a">
      <path fill="#fff" d="M0 0h290v300H0z"/>
    </clipPath>
    <clipPath id="b">
      <path fill="#fff" d="M0 0h53v53H0z" transform="translate(118.75 42)"/>
    </clipPath>
    <linearGradient id="c" x1="204.563" x2="196.632" y1="151.518" y2="164.26" gradientUnits="userSpaceOnUse">
      <stop stop-color="#FAAA4D"/>
      <stop offset="1" stop-color="#FAAA4D" stop-opacity="0"/>
    </linearGradient>
  </defs>
</svg>
