<svg xmlns="http://www.w3.org/2000/svg" fill="none" viewBox="0 0 290 300">
  <circle cx="145" cy="150" r="135" fill="#E9E9F1"/>
  <path fill="#85649F" d="M50 40.947c-5.523 0-10 4.477-10 10V261.27c0 5.523 4.477 10 10 10h145.619c2.589 0 5.078-1.005 6.942-2.802l6.102-5.884a10.003 10.003 0 0 0 3.059-7.199V50.946c0-5.522-4.478-10-10-10H50Z" style="mix-blend-mode:multiply"/>
  <path fill="#CACDD7" d="M55.024 35.306c-5.523 0-10 4.477-10 10V255.63c0 5.523 4.477 10 10 10H198.86a5.818 5.818 0 0 0 5.818-5.818 5.818 5.818 0 0 1 5.818-5.818h.215a6.033 6.033 0 0 0 6.033-6.033V45.306c0-5.523-4.477-10-10-10H55.024Z"/>
  <path fill="#212736" d="M104.826 70.338H78.503V95.72h26.323V70.338Zm-22.104 21.29V74.406h17.86v17.222h-17.86Z"/>
  <path fill="#212736" d="M98.072 76.849H85.259v12.355h12.813V76.849ZM78.503 172.764h26.323v-25.383H78.503v25.383Zm22.079-21.291v17.192h-17.86v-17.192h17.86Z"/>
  <path fill="#212736" d="M98.072 153.891H85.259v12.355h12.813v-12.355ZM158.398 70.338V95.72h26.323V70.338h-26.323Zm4.244 21.29V74.406h17.835v17.222h-17.835Z"/>
  <path fill="#212736" d="M177.962 76.849h-12.813v12.355h12.813V76.849ZM105.423 119.375h14.269v8.863h18.383v8.857h4.244v-16.622h3.696v-4.093h-3.696v-1.098h-4.244v8.857h-10.573v-10.843h-3.566v-2.784h3.697v-4.093h-7.941v8.863h-8.936v-3.564h-4.25v3.564h-5.327v7.075H88.111v-2.592h4.966v-3.559h4.592v-4.098h-2.713v-9.109h5.626v3.564h4.244v-7.657H82.199V103h8.513v5.55h-12.21v4.093h9.428v3.03h-7.76v9.397h3.697v3.565h4.244v-2.179H98.13v3.025h-3.703v4.092h4.244v-3.552h11.519v-3.565h3.69v-4.098h-8.457v-2.982ZM138.708 99.351v-11.63h-7.853v4.093h3.609v7.537h4.244ZM171.962 110.896V99.267h-4.244v3.769h-3.69v4.092h3.69v3.768h4.244ZM114.613 80.983h-4.244v11.63h4.244v-11.63Z"/>
  <path fill="#212736" d="M137.638 147.909v-4.092h-5.887v-2.767h4.325v-4.092h-8.924v3.528h-3.217v-6.463h3.628v-4.098h-7.872v14.654h5.893v3.33h12.054ZM88.795 137.347v-4.092h-7.94v11.629h7.94v-4.092h-3.697v-3.445h3.697ZM124.297 101.019h4.25V83.293h10.461V79.2h-5.75v-3.564h-22.633v4.093h13.672v21.29ZM133.592 160.462h7.816v3.036h-3.696v4.093h4.244v-3.565h3.696v-7.657h-12.06v4.093ZM147.004 138.871h-4.244V150.5h4.244v-11.629ZM123.935 150.945h-4.244v21.819h4.244v-3.319h3.566v-11.629h-3.566v-6.871Z"/>
  <path fill="#212736" d="M151.95 92.39h-2.558v17.726h-2.172v-3.564h-9.739v4.092h3.815v3.565h12.346v-10.663h9.017v-4.093h-9.017v-3.732h2.552V70.338h-22.627v4.092h18.383v17.96ZM180.471 105.286h-3.69v7.579h-17.747v8.419h-3.697v21.818h4.25v-4.86h7.269v8.863h4.244l-.006-12.956h-7.816v-5.208h4.3v-3.559h3.789v-4.092h-8.089v-4.333h9.807v3.517h3.696v6.63h4.244v-8.425h3.697V96.861h-4.251v8.425Z"/>
  <path fill="#212736" d="M171.091 129.463h-4.244v4.092h4.244v-4.092ZM149.947 75.636h-4.244v4.093h4.244v-4.093ZM147.004 133.027h-4.244v4.092h4.244v-4.092ZM131.888 114.958h-4.244v4.093h4.244v-4.093ZM150.701 127.47h-4.244v4.093h4.244v-4.093ZM114.066 102.736h4.244v-7.657h-7.941v4.093h3.697v3.564ZM122.088 81.643h-4.244v4.092h4.244v-4.092ZM113.878 130.585h-4.244v4.092h4.244v-4.092ZM100.581 137.227v3.565h-7.735v4.092h15.757v-4.092h-3.778v-3.565h-4.244ZM112.555 147.381h-4.245v4.092h4.245v-4.092ZM171.726 154.503h-4.593v4.099h9.746v-3.564h3.59v13.627h-17.194v-1.074h11.513v-4.093h-3.697v-3.564h-7.816v-8.989h-13.883v11.629h4.25v-7.536h5.389v17.726h25.688v-21.819h-12.993v3.558ZM174.347 138.236h6.123v3.96h-5.494v4.093h9.745v-12.146h-10.374v4.093Z"/>
  <path fill="#fff" d="M181.771 193.82H81.476c-.51 0-.999-.196-1.36-.543a1.822 1.822 0 0 1-.563-1.311c0-.492.203-.964.563-1.312.361-.347.85-.543 1.36-.543h100.295c.51 0 .999.196 1.36.543.36.348.563.82.563 1.312 0 .491-.203.963-.563 1.311-.361.347-.85.543-1.36.543ZM133.002 200.336H81.476c-.51 0-.999-.195-1.36-.543a1.82 1.82 0 0 1-.418-2.022 1.85 1.85 0 0 1 .416-.604 1.976 1.976 0 0 1 1.362-.545h51.526a1.976 1.976 0 0 1 1.362.545c.178.173.32.378.416.604.096.226.146.467.145.711 0 .492-.203.964-.563 1.311a1.96 1.96 0 0 1-1.36.543ZM181.771 200.336h-41.949a1.96 1.96 0 0 1-1.36-.543 1.822 1.822 0 0 1-.563-1.311 1.798 1.798 0 0 1 .145-.711c.096-.226.238-.431.416-.604a1.976 1.976 0 0 1 1.362-.545h41.949a1.976 1.976 0 0 1 1.362.545c.178.173.32.378.416.604.096.226.146.467.145.711 0 .492-.203.964-.563 1.311a1.96 1.96 0 0 1-1.36.543ZM181.771 206.853H81.476a1.976 1.976 0 0 1-1.362-.545 1.85 1.85 0 0 1-.416-.604 1.82 1.82 0 0 1 .419-2.022c.36-.348.85-.543 1.36-.543H181.77c.51 0 .999.195 1.36.543.36.347.563.819.563 1.311.001.244-.049.486-.145.711a1.855 1.855 0 0 1-.416.604 1.976 1.976 0 0 1-1.362.545ZM99.367 213.364h-17.89c-.51 0-1-.196-1.36-.543a1.823 1.823 0 0 1-.42-2.023c.097-.225.239-.431.417-.603.179-.173.391-.31.625-.404.233-.093.484-.142.737-.142h17.916c.253 0 .503.049.737.142.234.094.446.231.625.404.178.172.32.378.416.603a1.803 1.803 0 0 1-.004 1.427 1.85 1.85 0 0 1-.423.604 1.92 1.92 0 0 1-.633.401 2 2 0 0 1-.743.134ZM181.771 213.364h-75.633a1.98 1.98 0 0 1-1.364-.541 1.856 1.856 0 0 1-.419-.602 1.8 1.8 0 0 1-.147-.711c0-.494.204-.967.566-1.316a1.963 1.963 0 0 1 1.364-.545h75.633c.253 0 .504.049.737.142.234.094.446.231.625.404a1.836 1.836 0 0 1 .561 1.315c0 .491-.203.963-.563 1.311-.361.347-.85.543-1.36.543ZM115.92 219.881H81.476c-.253 0-.504-.048-.737-.141a1.934 1.934 0 0 1-.625-.404 1.857 1.857 0 0 1-.416-.603 1.821 1.821 0 0 1 .419-2.023c.36-.348.85-.543 1.36-.543h34.468c.51 0 .999.195 1.36.543.36.348.563.819.563 1.311a1.79 1.79 0 0 1-.147.717 1.862 1.862 0 0 1-.423.607c-.181.173-.397.31-.633.402-.237.092-.49.138-.745.134ZM181.771 219.881h-59.286c-.253 0-.504-.048-.737-.141a1.937 1.937 0 0 1-.625-.404 1.847 1.847 0 0 1-.416-.603 1.785 1.785 0 0 1-.145-.712c0-.492.203-.963.563-1.311a1.96 1.96 0 0 1 1.36-.543h59.286c.51 0 .999.195 1.359.543a1.82 1.82 0 0 1 .419 2.023c-.096.225-.238.43-.416.603-.179.173-.391.31-.625.404a1.995 1.995 0 0 1-.737.141ZM181.771 226.391h-21.737c-.51 0-.999-.195-1.359-.543a1.82 1.82 0 0 1-.564-1.311c0-.492.203-.964.564-1.311.36-.348.849-.543 1.359-.543h21.737c.51 0 .999.195 1.36.543.36.347.563.819.563 1.311s-.203.963-.563 1.311a1.96 1.96 0 0 1-1.36.543ZM151.484 226.391H81.476c-.51 0-.999-.195-1.36-.543a1.82 1.82 0 0 1-.563-1.311c0-.492.203-.964.563-1.311.361-.348.85-.543 1.36-.543h70.008c.51 0 .999.195 1.36.543.36.347.563.819.563 1.311s-.203.963-.563 1.311a1.96 1.96 0 0 1-1.36.543ZM181.771 232.908H81.476c-.51 0-.999-.195-1.36-.543a1.82 1.82 0 0 1-.563-1.311c.007-.488.212-.953.572-1.296.36-.342.845-.534 1.351-.534h100.295c.253 0 .503.048.737.141.234.094.446.231.625.404.178.173.32.378.416.603.096.226.146.468.145.712-.008.486-.215.95-.574 1.292-.36.341-.844.532-1.349.532ZM215.284 235.711h-40.337c-1.062 0-1.923.83-1.923 1.854v.006c0 1.024.861 1.854 1.923 1.854h40.337c1.062 0 1.922-.83 1.922-1.854v-.006c0-1.024-.86-1.854-1.922-1.854Z"/>
  <path fill="#fff" d="M181.771 235.711H130.78c-1.062 0-1.923.83-1.923 1.854v.006c0 1.024.861 1.854 1.923 1.854h50.991c1.062 0 1.923-.83 1.923-1.854v-.006c0-1.024-.861-1.854-1.923-1.854ZM181.771 245.935H81.476c-.51 0-.999-.195-1.36-.543a1.821 1.821 0 0 1-.418-2.023c.096-.225.238-.43.416-.603.179-.173.391-.31.625-.404.233-.093.484-.141.737-.141h100.295c.253 0 .503.048.737.141.234.094.446.231.625.404.178.173.32.378.416.603.096.226.146.468.145.712 0 .492-.203.963-.563 1.311a1.96 1.96 0 0 1-1.36.543Z"/>
  <path fill="#F49D37" d="m272.576 109.823-1.113-4.003-1.114 4.003-4.151 1.074 4.151 1.08 1.114 3.996 1.113-3.996 4.151-1.08-4.151-1.074ZM190.154 239.707l-1.12-3.996-1.114 3.996-4.151 1.081 4.151 1.074 1.114 4.002 1.12-4.002 4.144-1.074-4.144-1.081ZM267.318 152.211l-1.12-3.996-1.114 3.996-4.151 1.074 4.151 1.081 1.114 3.996 1.12-3.996 4.144-1.081-4.144-1.074ZM133.954 19.003 132.84 15l-1.12 4.003-4.144 1.074 4.144 1.074 1.12 4.002 1.114-4.002 4.151-1.074-4.151-1.075ZM34.325 124.573l-1.114-3.997-1.12 3.997-4.145 1.08 4.145 1.074 1.12 4.002 1.114-4.002 4.144-1.074-4.144-1.08ZM108.814 278.843l-1.114-3.996-1.12 3.996-4.145 1.08 4.145 1.074L107.7 285l1.114-4.003 4.144-1.074-4.144-1.08ZM238.132 47.35l-1.114-4.003-1.12 4.002-4.144 1.074 4.144 1.08 1.12 3.997 1.114-3.997 4.151-1.08-4.151-1.074ZM271.63 92l-.622-2.232-.622 2.232-2.315.6 2.315.6.622 2.226.622-2.226 2.309-.6-2.309-.6ZM181.946 209.049l-.623-2.226-.622 2.226-2.309.601 2.309.6.622 2.232.623-2.232 2.315-.6-2.315-.601ZM31.5 243.145l-.622-2.232-.623 2.232-2.308.6 2.308.6.623 2.227.622-2.227 2.315-.6-2.315-.6ZM191.292 71.118l-.622-2.232-.622 2.232-2.309.6 2.309.6.622 2.226.622-2.226 2.315-.6-2.315-.6ZM259.745 31.874l-.623-2.226-.622 2.226-2.309.6 2.309.6.622 2.232.623-2.232 2.315-.6-2.315-.6ZM28.569 212.764l-.622-2.226-.623 2.226-2.315.6 2.315.6.623 2.233.622-2.233 2.309-.6-2.309-.6ZM23.553 108.37l-.622-2.226-.622 2.226-2.309.6 2.309.6.622 2.232.622-2.232 2.315-.6-2.315-.6Z"/>
  <path fill="#A2A8B5" d="M245.304 10.271c-6.565-2.824-9.703 17.306-10.125 18.874-.422 1.567-1.538 1.754-3.447-.595-1.908-2.348-3.554-1.439-3.554-1.439-3.592 2.134 1.28 14.555 1.233 15.565-.047 1.01.722 2.463-3.01.407-3.733-2.057-6.866-3.154-7.41 0-.497 2.87 3.316 11.155 3.283 12.338-.033 1.184-3.888-1.791-5.51-2.778-2.101-1.27-4.343-1.184-4.737 1.37-.511 3.35 6.322 13.148 6.322 13.148l3.282 4.99 5.998-1.576s11.724-3.227 13.557-6.096c1.407-2.208-.229-3.693-2.668-4.058-1.876-.28-6.786-.457-6.04-1.371.746-.914 9.168-4.785 10.711-7.28 1.688-2.742-1.407-3.894-5.628-4.698-4.22-.804-2.658-1.421-2.016-2.216.642-.795 12.629-7.148 11.32-11.046 0 0-.642-1.727-3.657-1.156-3.016.571-3.752-.274-3.011-1.736.741-1.463 11.752-18.737 4.896-20.756"/>
  <path fill="#fff" d="M218.147 81.496c.127.046 5.731-14.582 12.512-32.67 6.781-18.087 12.192-32.788 12.061-32.834-.131-.046-5.731 14.582-12.516 32.674-6.786 18.092-12.183 32.784-12.057 32.83Z"/>
  <path fill="#fff" d="M233.727 39.97c.122-.046-.38-1.696-1.271-3.62-.891-1.923-1.81-3.395-1.928-3.33-.117.063.605 1.608 1.482 3.522.877 1.915 1.571 3.469 1.717 3.428ZM241.797 36.661c-.028-.123-1.932.243-4.136 1.115-2.204.873-3.845 1.888-3.779 1.993.065.105 1.782-.7 3.957-1.554 2.176-.854 3.996-1.421 3.958-1.554ZM228.814 53.313c.103-.086-1.299-1.827-3.133-3.934-1.833-2.107-3.4-3.706-3.503-3.624-.103.082 1.299 1.828 3.133 3.935 1.833 2.106 3.4 3.71 3.503 3.623Z"/>
  <path fill="#fff" d="M239.683 51.172c0-.123-2.565.082-5.656.676-3.09.594-5.533 1.335-5.5 1.458.033.123 2.518-.407 5.594-.991 3.077-.585 5.595-1.006 5.562-1.143ZM236.328 63.958c0-.132-2.692.142-5.97.612-3.278.471-5.918.956-5.895 1.084.024.127 2.688-.147 5.965-.613 3.278-.466 5.919-.955 5.9-1.083ZM224.169 65.438c.089-.114-1.726-1.535-3.611-3.62-1.885-2.083-3.128-3.998-3.25-3.925-.122.073.938 2.125 2.884 4.241 1.947 2.116 3.911 3.404 3.977 3.304Z"/>
  <path fill="#85649F" d="m259.413 236.165 1.395-164.286c.08-9.419-7.563-17.12-17.072-17.2l-62.623-.533c-9.509-.08-17.282 7.49-17.362 16.908l-1.395 164.286c-.08 9.419 7.564 17.119 17.072 17.2l62.623.532c9.509.081 17.282-7.489 17.362-16.907Z"/>
  <path fill="#212736" d="M266.164 236.946 267.56 72.66c.08-9.419-7.564-17.12-17.073-17.2l-62.623-.533c-9.508-.08-17.281 7.49-17.361 16.908l-1.395 164.286c-.08 9.419 7.563 17.12 17.072 17.2l62.623.533c9.508.08 17.281-7.489 17.361-16.908Z"/>
  <path fill="#E9E9F1" d="m187.827 59.126 8.668.074c.436.004.865.108 1.253.305.388.197.725.481.982.83l2.12 2.88a5.138 5.138 0 0 0 1.81 1.54c.716.366 1.509.56 2.315.568l28.224.24a5.196 5.196 0 0 0 2.324-.53 5.14 5.14 0 0 0 1.836-1.508l2.168-2.843a2.8 2.8 0 0 1 2.255-1.098l8.659.074c1.706.014 3.392.36 4.962 1.019 1.57.659 2.994 1.618 4.19 2.822a12.844 12.844 0 0 1 2.781 4.196c.64 1.566.961 3.242.947 4.931l-1.395 164.278a12.754 12.754 0 0 1-1.03 4.915 12.85 12.85 0 0 1-2.852 4.15 12.985 12.985 0 0 1-4.237 2.753 13.089 13.089 0 0 1-4.979.937l-62.615-.532a13.063 13.063 0 0 1-4.961-1.022 12.983 12.983 0 0 1-4.188-2.825 12.856 12.856 0 0 1-2.778-4.198 12.769 12.769 0 0 1-.944-4.931l1.395-164.278a12.8 12.8 0 0 1 3.879-9.06 13.045 13.045 0 0 1 9.211-3.687Z" opacity=".21"/>
  <path fill="#FAFAFC" d="m252.202 114.733-67.131-.571-.564 66.495 67.13.57.565-66.494Z"/>
  <path fill="#212736" d="m190.224 118.095 56.758.481a.979.979 0 0 1 .971.987l-.481 56.759a.978.978 0 0 1-.987.97l-56.758-.48a.978.978 0 0 1-.97-.987l.48-56.759a.98.98 0 0 1 .987-.971Zm.498 56.768 54.801.464.464-54.802-54.801-.464-.464 54.802Z"/>
  <path fill="#212736" d="m224.424 124.254 17.615.149-.149 17.615-17.615-.149.149-17.615Zm1.825 15.674 13.7.116.116-13.7-13.7-.116-.116 13.7Z"/>
  <path fill="#212736" d="m228.304 128.204 9.786.083-.082 9.786-9.786-.083.082-9.786Zm1.891 7.846 5.872.049.05-5.871-5.872-.05-.05 5.872ZM195.065 124.006l17.615.149-.149 17.615-17.615-.149.149-17.615Zm1.825 15.674 13.7.116.116-13.701-13.7-.116-.116 13.701ZM224.176 153.612l17.614.149-.149 17.615-17.615-.149.15-17.615ZM226 169.286l13.7.116.116-13.7-13.7-.116-.116 13.7ZM236.001 143.925l5.872.05-.041 4.893-5.872-.049.041-4.894Zm1.933 2.953 1.957.017.008-.979-1.957-.017-.008.979ZM226.216 143.843l7.829.066-.042 4.893-7.829-.066.042-4.893Zm1.932 2.952 3.915.033.008-.978-3.915-.034-.008.979ZM241.823 149.848l-1.957-.016-.016 1.957 1.957.016.016-1.957ZM237.908 149.815l-1.957-.016-.017 1.957 1.958.016.016-1.957ZM220.329 145.754l-3.915-.033-.033 3.914 3.915.033.033-3.914Z"/>
  <path fill="#212736" d="m235.133 131.2-3.915-.033-.033 3.914 3.914.033.034-3.914ZM198.949 127.956l9.786.083-.083 9.786-9.786-.083.083-9.786Zm1.891 7.845 5.872.05.049-5.872-5.871-.049-.05 5.871Z"/>
  <path fill="#212736" d="m205.774 130.951-3.915-.033-.033 3.915 3.915.033.033-3.915ZM228.059 157.562l9.786.083-.083 9.786-9.786-.083.083-9.786Zm1.89 7.846 5.872.049.05-5.871-5.872-.05-.05 5.872Z"/>
  <path fill="#212736" d="m234.884 160.557-3.914-.033-.033 3.915 3.914.033.033-3.915ZM213.659 124.163l9.786.083-.049 5.871-9.787-.082.05-5.872Zm1.924 3.931 5.872.05.016-1.958-5.871-.049-.017 1.957ZM217.507 132.03l5.872.05-.067 7.829-5.871-.05.066-7.829Zm1.907 5.889 1.958.016.033-3.914-1.958-.017-.033 3.915ZM216.53 132.022l-2.935-.025-.017 1.957 2.936.025.016-1.957ZM216.497 135.939l-1.957-.016-.033 3.914 1.957.017.033-3.915ZM223.296 141.866l-8.808-.075-.016 1.958 8.807.074.017-1.957ZM224.251 144.812l-1.957-.017-.066 7.829 1.957.016.066-7.828ZM233.995 149.787l-7.829-.066-.016 1.957 7.828.066.017-1.957ZM214.398 152.558l-7.829-.067.066-7.829 7.829.067-.066 7.829Zm-1.908-5.889-3.914-.033-.033 3.915 3.914.033.033-3.915ZM204.636 149.536l-9.786-.083.05-5.871 9.786.082-.05 5.872Zm-1.924-3.931-5.872-.05-.016 1.958 5.871.049.017-1.957ZM204.628 150.519l-9.786-.083-.017 1.957 9.786.083.017-1.957ZM219.242 158.469l1.957.017-.066 7.829-7.829-.066.05-5.872-4.893-.042.017-1.957 8.807.075.058-6.851 1.957.017-.025 2.936 2.936.025-.017 1.957-2.935-.025-.017 1.957Zm-3.964 5.839 3.914.033.034-3.915-3.915-.033-.033 3.915Z"/>
  <path fill="#212736" d="m214.381 154.515-10.765-.091-.016 1.957 10.764.091.017-1.957ZM200.649 158.311l5.871.049-.016 1.957-3.915-.033-.091 10.765-7.829-.066.067-7.829 5.871.05.042-4.893Zm-4.006 10.731 3.914.033.034-3.914-3.915-.033-.033 3.914Z"/>
  <path fill="#212736" d="m199.703 154.391-1.957-.017-.058 6.85 1.957.017.058-6.85ZM196.75 156.321l-1.957-.016-.042 4.893 1.957.016.042-4.893ZM221.124 167.294l-1.958-.016-.033 3.914 1.958.017.033-3.915ZM217.201 168.237l-6.85-.058-.016 1.957 6.85.058.016-1.957ZM209.424 162.302l1.957.017-.042 4.893-4.892-.042-.034 3.915-1.957-.017.05-5.871 4.893.041.025-2.936ZM207.473 161.306l-2.936-.025-.016 1.957 2.936.025.016-1.957Z"/>
  <path fill="url(#a)" fill-opacity=".3" d="m243.735 142.921-49.549-.421-.252 29.677 49.549.421.252-29.677Z"/>
  <path fill="#F49D37" d="m243.734 142.922-49.55-.419-.017 1.998 49.55.419.017-1.998Z"/>
  <path fill="#FAFAFC" d="m190.164 109.085-9.938-.084-.084 9.853 1.161.01.074-8.695 8.777.075.01-1.159ZM257.898 119.507l.084-9.837-9.947-.084-.01 1.15 8.786.074-.074 8.687 1.161.01ZM247.386 186.74l9.939.084.084-9.853-1.161-.01-.074 8.704-8.778-.075-.01 1.15ZM179.654 176.318l-.084 9.846 9.947.084.01-1.15-8.787-.074.075-8.696-1.161-.01Z"/>
  <path fill="#8F1DEA" d="m250.075 201.616-63.657-.539a1.779 1.779 0 0 0-1.803 1.755l-.054 6.329a1.78 1.78 0 0 0 1.773 1.786l63.657.54a1.78 1.78 0 0 0 1.803-1.756l.054-6.329a1.78 1.78 0 0 0-1.773-1.786Z"/>
  <path fill="#85649F" d="M284.5 249.444a6.315 6.315 0 0 0-2.387.667 6.173 6.173 0 0 0-1.926 1.526 10.711 10.711 0 0 0-2.167 4.353c-.806 3.046-.257 6.626.652 9.645 3.369-1.205 5.418-4.738 6.349-6.586 1.459-2.924 2.278-9.083-.521-9.605Z"/>
  <path fill="#8F1DEA" d="M284.5 249.444a6.315 6.315 0 0 0-2.387.667 6.173 6.173 0 0 0-1.926 1.526 10.711 10.711 0 0 0-2.167 4.353c-.806 3.046-.257 6.626.652 9.645 3.369-1.205 5.418-4.738 6.349-6.586 1.459-2.924 2.278-9.083-.521-9.605Z" opacity=".2"/>
  <path fill="#85649F" d="M273.839 269.358a5.07 5.07 0 0 0 .201-5.185 6.94 6.94 0 0 0-1.797-2.062 7.13 7.13 0 0 0-2.474-1.227 3.024 3.024 0 0 0-1.263-.197c-.431.024-.851.14-1.231.339-.32.24-.568.56-.719.925-.15.366-.197.764-.135 1.153.13.779.47 1.51.986 2.119 1.66 2.152 3.674 3.939 6.432 4.135Z"/>
  <path fill="#212736" d="M273.828 279.806c.083-.206.139-.422.167-.643.083-.413.187-1.022.298-1.773.328-1.963.381-3.96.16-5.936-.238-2-1.028-3.899-2.285-5.496a7.378 7.378 0 0 0-1.334-1.266 1.915 1.915 0 0 0-.576-.345 15.649 15.649 0 0 1 1.708 1.766 11.496 11.496 0 0 1 2.126 5.415c.213 1.95.194 3.917-.056 5.862a19.77 19.77 0 0 0-.208 2.416Z"/>
  <path fill="#212736" d="M283.452 254.073a6.298 6.298 0 0 0-.5.982c-.298.636-.694 1.563-1.222 2.707a240.3 240.3 0 0 0-3.737 9.09 249.186 249.186 0 0 0-3.369 9.226c-.403 1.191-.694 2.159-.931 2.829a5.64 5.64 0 0 0-.284 1.05 7.26 7.26 0 0 0 .416-1.009c.271-.717.619-1.651 1.042-2.789a575.735 575.735 0 0 1 3.473-9.185c1.389-3.574 2.688-6.768 3.633-9.124.451-1.117.826-2.03 1.118-2.755.148-.331.269-.672.361-1.022Z"/>
  <path fill="#85649F" d="M277.34 272.348a12.31 12.31 0 0 1 4.33-3.809 12.675 12.675 0 0 1 5.637-1.464c1 0 2.188.224 2.577 1.117.389.893-.264 1.902-.987 2.579a10.695 10.695 0 0 1-5.518 2.63c-2.065.327-4.184.05-6.088-.796"/>
  <path fill="#212736" d="M285.589 269.472a2.233 2.233 0 0 0-.653 0 5.187 5.187 0 0 0-.757.095 8.7 8.7 0 0 0-.987.196c-.852.211-1.681.506-2.472.88a15.265 15.265 0 0 0-2.73 1.686 15.317 15.317 0 0 0-2.25 2.254 12.886 12.886 0 0 0-1.39 2.186 7.467 7.467 0 0 0-.403.9c-.1.219-.181.445-.243.677a2.257 2.257 0 0 0-.145.616c.069 0 .326-.846 1.021-2.112.411-.736.887-1.436 1.423-2.091a14.625 14.625 0 0 1 7.259-4.779c1.41-.372 2.334-.44 2.327-.508Z"/>
  <path fill="#85649F" d="M13.003 129.402c9.724-4.183 14.371 25.633 14.996 27.954.625 2.322 2.278 2.599 5.105-.88 2.827-3.479 5.265-2.132 5.265-2.132 5.32 3.161-1.896 21.558-1.826 23.054.069 1.496-1.07 3.649 4.459.603 5.529-3.046 10.168-4.671 10.974 0 .736 4.25-4.91 16.522-4.862 18.275.049 1.753 5.758-2.653 8.162-4.115 3.111-1.882 6.431-1.753 7.015 2.03.757 4.962-9.363 19.474-9.363 19.474l-4.862 7.391-8.884-2.335s-17.365-4.779-20.08-9.029c-2.084-3.27.34-5.47 3.952-6.011 2.778-.413 10.05-.677 8.946-2.031-1.104-1.353-13.58-7.086-15.864-10.782-2.5-4.061 2.083-5.767 8.335-6.958 6.251-1.192 3.938-2.105 2.986-3.283-.951-1.178-18.705-10.586-16.767-16.36 0 0 .952-2.559 5.418-1.712 4.466.846 5.557-.407 4.46-2.573-1.098-2.166-17.407-27.751-7.252-30.743"/>
  <path fill="#fff" d="M53.226 234.897c-.187.068-8.487-21.599-18.531-48.389-10.044-26.79-18.06-48.565-17.865-48.633.195-.068 8.488 21.599 18.539 48.396 10.05 26.797 18.045 48.559 17.857 48.626Z"/>
  <path fill="#fff" d="M30.15 173.39c-.18-.068.563-2.511 1.883-5.361 1.32-2.849 2.681-5.029 2.855-4.934.174.095-.896 2.382-2.195 5.218-1.299 2.837-2.327 5.138-2.542 5.077ZM18.197 168.49c.041-.183 2.861.358 6.126 1.651 3.264 1.293 5.695 2.796 5.598 2.951-.097.156-2.64-1.035-5.862-2.301-3.223-1.266-5.918-2.105-5.862-2.301ZM37.427 193.154c-.152-.129 1.924-2.707 4.64-5.828 2.716-3.12 5.036-5.489 5.189-5.367.152.121-1.924 2.707-4.64 5.827-2.716 3.121-5.036 5.497-5.189 5.368Z"/>
  <path fill="#fff" d="M21.328 189.981c0-.182 3.8.122 8.377 1.002 4.577.88 8.196 1.977 8.148 2.159-.05.183-3.73-.602-8.287-1.468-4.556-.867-8.286-1.489-8.238-1.693ZM26.298 208.921c0-.197 3.987.209 8.842.906 4.855.698 8.766 1.415 8.73 1.605-.034.189-3.979-.217-8.834-.907-4.855-.691-8.766-1.415-8.738-1.604ZM44.307 211.113c-.132-.17 2.556-2.275 5.348-5.361 2.792-3.087 4.633-5.923 4.814-5.814.18.108-1.39 3.147-4.272 6.281-2.883 3.134-5.793 5.043-5.89 4.894Z"/>
  <path fill="#FFBE9D" d="M181.715 241a8.853 8.853 0 0 1 3.348.935 8.649 8.649 0 0 1 2.702 2.141 15.036 15.036 0 0 1 3.04 6.105c1.13 4.273.361 9.295-.916 13.53-4.725-1.69-7.599-6.646-8.905-9.238-2.046-4.102-3.195-12.742.731-13.473ZM196.669 268.933a7.104 7.104 0 0 1-.282-7.273 9.734 9.734 0 0 1 2.521-2.892 9.998 9.998 0 0 1 3.471-1.722 4.26 4.26 0 0 1 3.497.199c.45.337.798.785 1.009 1.298.21.513.276 1.071.19 1.617a6.17 6.17 0 0 1-1.384 2.972c-2.328 3.019-5.154 5.526-9.022 5.801ZM191.759 273.127a17.286 17.286 0 0 0-6.074-5.343 17.785 17.785 0 0 0-7.907-2.053c-1.403 0-3.069.314-3.615 1.567-.546 1.253.37 2.668 1.384 3.617a15.012 15.012 0 0 0 7.74 3.69c2.897.458 5.869.069 8.54-1.117"/>
  <path fill="#212736" d="M196.685 283.589a3.578 3.578 0 0 1-.234-.902 51.371 51.371 0 0 1-.419-2.487 30.173 30.173 0 0 1-.224-8.327 15.417 15.417 0 0 1 3.205-7.71 10.426 10.426 0 0 1 1.871-1.775 2.69 2.69 0 0 1 .809-.484 21.994 21.994 0 0 0-2.397 2.478 16.114 16.114 0 0 0-2.982 7.595 34.906 34.906 0 0 0 .078 8.223c.168 1.123.265 2.255.293 3.389Z"/>
  <path fill="#212736" d="M183.185 247.493c.274.438.509.899.701 1.377.419.892.974 2.193 1.715 3.798a335.77 335.77 0 0 1 5.242 12.751 348.45 348.45 0 0 1 4.725 12.941c.565 1.671.974 3.028 1.305 3.968.181.477.315.97.4 1.472a10.38 10.38 0 0 1-.585-1.415c-.38-1.006-.867-2.316-1.461-3.911a789.652 789.652 0 0 0-4.872-12.884c-1.948-5.013-3.77-9.495-5.095-12.799-.633-1.566-1.16-2.848-1.569-3.864a9.392 9.392 0 0 1-.506-1.434Z"/>
  <path fill="#212736" d="M180.188 269.094c.303-.045.612-.045.916 0 .356.018.711.063 1.062.133.466.064.928.156 1.383.275 1.196.296 2.358.709 3.469 1.234a21.523 21.523 0 0 1 3.829 2.364 21.636 21.636 0 0 1 3.156 3.162 18.087 18.087 0 0 1 1.949 3.067c.217.408.405.83.565 1.263.141.306.255.624.341.949.109.277.178.568.205.864-.098 0-.458-1.187-1.433-2.962a20.201 20.201 0 0 0-1.997-2.934 20.501 20.501 0 0 0-6.82-5.402 20.405 20.405 0 0 0-3.361-1.301c-1.978-.522-3.274-.617-3.264-.712Z"/>
  <defs>
    <linearGradient id="a" x1="218.961" x2="218.709" y1="142.71" y2="172.387" gradientUnits="userSpaceOnUse">
      <stop stop-color="#FAAA4D"/>
      <stop offset="1" stop-color="#FAAA4D" stop-opacity="0"/>
    </linearGradient>
  </defs>
</svg>
