<svg xmlns="http://www.w3.org/2000/svg" fill="none" viewBox="0 0 290 300">
  <g clip-path="url(#a)">
    <circle cx="145" cy="150" r="135" fill="#E9E9F1"/>
    <path fill="#A2A8B5" d="M84.003 8.402C93.727 4.219 98.374 34.035 99 36.356c.625 2.322 2.278 2.6 5.105-.88 2.827-3.479 5.265-2.132 5.265-2.132 5.321 3.161-1.896 21.558-1.826 23.054.069 1.496-1.07 3.649 4.459.603 5.529-3.046 10.169-4.67 10.974 0 .737 4.25-4.91 16.522-4.862 18.275.049 1.753 5.758-2.653 8.162-4.115 3.111-1.882 6.431-1.753 7.015 2.03.757 4.962-9.363 19.474-9.363 19.474l-4.862 7.391-8.884-2.335s-17.365-4.779-20.08-9.03c-2.084-3.269.34-5.469 3.952-6.01 2.778-.413 10.05-.677 8.946-2.03-1.104-1.354-13.58-7.087-15.864-10.783-2.5-4.061 2.083-5.767 8.335-6.958 6.251-1.192 3.938-2.105 2.986-3.283-.951-1.178-18.705-10.586-16.767-16.36 0 0 .952-2.559 5.418-1.712 4.466.846 5.557-.407 4.46-2.572C90.47 36.817 74.16 11.23 84.315 8.239"/>
    <path fill="#fff" d="M124.226 113.897c-.187.067-8.487-21.6-18.531-48.39-10.044-26.79-18.06-48.565-17.865-48.632.195-.068 8.488 21.599 18.539 48.396 10.05 26.797 18.045 48.558 17.857 48.626Z"/>
    <path fill="#fff" d="M101.151 52.39c-.181-.068.562-2.511 1.882-5.36 1.32-2.85 2.681-5.03 2.855-4.935.173.095-.896 2.382-2.195 5.218-1.299 2.837-2.327 5.138-2.542 5.077ZM89.197 47.49c.041-.183 2.861.359 6.126 1.652 3.264 1.292 5.695 2.795 5.598 2.95-.097.157-2.64-1.035-5.862-2.3-3.223-1.266-5.918-2.106-5.862-2.302ZM108.427 72.154c-.152-.129 1.924-2.707 4.64-5.828 2.716-3.12 5.036-5.49 5.189-5.367.153.121-1.924 2.707-4.64 5.827-2.716 3.12-5.036 5.497-5.189 5.368Z"/>
    <path fill="#fff" d="M92.328 68.982c0-.183 3.8.122 8.377 1.002 4.577.88 8.196 1.976 8.148 2.159-.049.183-3.73-.603-8.287-1.469-4.556-.866-8.286-1.489-8.238-1.692ZM97.298 87.92c0-.196 3.987.21 8.842.907 4.855.698 8.766 1.415 8.731 1.605-.035.19-3.98-.217-8.835-.907-4.855-.69-8.766-1.415-8.738-1.605ZM115.307 90.112c-.132-.17 2.556-2.274 5.348-5.36 2.792-3.087 4.633-5.923 4.814-5.815.18.108-1.389 3.148-4.272 6.281-2.883 3.134-5.793 5.043-5.89 4.894Z"/>
    <path fill="#A2A8B5" d="M209.817 203.053a.414.414 0 0 1-.238-.077.415.415 0 0 1-.076-.569c.323-.435.656-.859.988-1.284a.4.4 0 0 1 .561-.058c.171.145.2.396.057.57-.333.405-.656.83-.969 1.254a.374.374 0 0 1-.323.164ZM284.018 220.32a.399.399 0 0 1-.39-.328 41.298 41.298 0 0 0-.76-3.195.418.418 0 0 1 .275-.502c.209-.067.428.068.494.28.295 1.072.561 2.162.77 3.253a.393.393 0 0 1-.313.473.129.129 0 0 1-.076.019Zm-2.528-8.3a.396.396 0 0 1-.361-.241 37.802 37.802 0 0 0-1.387-2.963.397.397 0 0 1 .171-.541.384.384 0 0 1 .532.174c.504.984.979 2.007 1.416 3.021a.411.411 0 0 1-.209.531c-.057.009-.114.019-.162.019Zm-4.151-7.605a.384.384 0 0 1-.324-.174 42.91 42.91 0 0 0-1.947-2.625.406.406 0 0 1 .057-.57.392.392 0 0 1 .56.058 41.865 41.865 0 0 1 1.986 2.674.414.414 0 0 1-.095.56.374.374 0 0 1-.237.077Zm-62.924-6.563a.373.373 0 0 1-.285-.126.404.404 0 0 1 .019-.569 41.32 41.32 0 0 1 2.48-2.2.39.39 0 0 1 .56.057.415.415 0 0 1-.057.57 39.813 39.813 0 0 0-2.432 2.162.501.501 0 0 1-.285.106Zm57.356-.029a.43.43 0 0 1-.275-.106 40.131 40.131 0 0 0-2.433-2.162.407.407 0 0 1-.057-.57.391.391 0 0 1 .561-.057 41.32 41.32 0 0 1 2.48 2.2.413.413 0 0 1 .019.569.408.408 0 0 1-.295.126Zm-50.572-5.27a.399.399 0 0 1-.342-.193.4.4 0 0 1 .133-.55c.931-.589 1.9-1.139 2.869-1.65a.381.381 0 0 1 .532.174.393.393 0 0 1-.171.54c-.95.502-1.9 1.042-2.812 1.612a.34.34 0 0 1-.209.067Zm43.789-.019a.421.421 0 0 1-.209-.058 45.8 45.8 0 0 0-2.813-1.612.396.396 0 0 1-.171-.54.386.386 0 0 1 .532-.174 44.722 44.722 0 0 1 2.87 1.641.401.401 0 0 1-.209.743Zm-36.094-3.764a.397.397 0 0 1-.37-.27.405.405 0 0 1 .237-.521 39.613 39.613 0 0 1 3.135-1.014.396.396 0 0 1 .485.28.403.403 0 0 1-.276.492c-1.035.29-2.071.628-3.078.994a.215.215 0 0 1-.133.039Zm28.388 0c-.047 0-.085-.01-.133-.019a41.963 41.963 0 0 0-3.078-.994.403.403 0 0 1-.275-.493.394.394 0 0 1 .484-.279c1.055.299 2.109.637 3.135 1.013a.399.399 0 0 1 .238.511.384.384 0 0 1-.371.261Zm-8.294-2.104h-.057a40.154 40.154 0 0 0-3.211-.338.398.398 0 0 1-.371-.424.405.405 0 0 1 .419-.377c1.092.068 2.194.184 3.277.348a.388.388 0 0 1 .333.453.4.4 0 0 1-.39.338Zm-11.79-.01a.403.403 0 0 1-.057-.801 41.352 41.352 0 0 1 3.278-.337c.218 0 .408.154.418.376a.4.4 0 0 1-.371.425 39.275 39.275 0 0 0-3.211.337h-.057ZM284.797 227.278a.41.41 0 0 1-.399-.396 44.62 44.62 0 0 0-.076-1.592.408.408 0 0 1 .371-.435c.218 0 .408.155.427.377.038.54.067 1.09.076 1.621a.398.398 0 0 1-.389.415c0 .01-.01.01-.01.01Z"/>
    <path fill="#5F3381" d="m143.634 214.673-4.674 42.62h54.268l-7.068-42.62h-42.526Z"/>
    <path fill="#85649F" d="M29.796 88.55v117.244c0 9.641 7.563 17.526 17.054 17.777 42.155 1.101 189.588 3.784 229.71 3.185 6.897-.106 12.484-5.713 12.683-12.71.77-27.236 2.033-92.73-2.622-123.141-.979-6.4-6.299-11.196-12.674-11.398-35.324-1.149-191.611-4.797-231.714-3.88-6.917.154-12.437 5.897-12.437 12.923Z"/>
    <path fill="#E9E9F1" d="M37.036 87.98v111.386c0 5.627 4.446 10.221 9.995 10.307l223.761 2.809c5.492.087 9.995-4.411 10.024-9.989l.37-110.391c.019-3.996-3.116-7.258-7.04-7.364l-229.092-4.7c-4.398-.116-8.018 3.474-8.018 7.942Z"/>
    <path fill="#A2A8B5" d="m282.497 217.048-245.461-4.246a.315.315 0 0 1-.314-.328c0-.184.152-.309.323-.319l245.462 4.247c.18 0 .323.154.313.328a.326.326 0 0 1-.323.318ZM162.189 222.239c-1.586 0-2.878-1.313-2.878-2.924 0-1.612 1.292-2.924 2.878-2.924 1.587 0 2.879 1.312 2.879 2.924 0 1.611-1.292 2.924-2.879 2.924Zm0-5.192c-1.235 0-2.232 1.013-2.232 2.268 0 1.254.997 2.268 2.232 2.268 1.235 0 2.233-1.014 2.233-2.268 0-1.255-.998-2.268-2.233-2.268Z"/>
    <path fill="#85649F" d="M204.924 266.007h-79.426c-2.157 0-3.782-1.563-3.364-3.233l1.017-4.092c.304-1.235 1.643-2.132 3.221-2.181l76.576-2.422c1.653-.048 3.116.84 3.477 2.123l1.834 6.524c.484 1.67-1.14 3.281-3.335 3.281Z"/>
    <path fill="#A2A8B5" d="M168.251 257.661a.334.334 0 0 1-.323-.319.32.32 0 0 1 .313-.328l3.278-.048c.171 0 .314.145.323.318a.32.32 0 0 1-.313.328l-3.278.049ZM125.07 263.818h-.048a.329.329 0 0 1-.266-.377l.466-2.982a3.356 3.356 0 0 1 3.249-2.856l34.801-.522a.315.315 0 0 1 .323.319.32.32 0 0 1-.313.328l-34.801.521c-1.311.02-2.413.994-2.623 2.307l-.465 2.982a.329.329 0 0 1-.323.28Z"/>
    <path fill="#5F3381" d="M49.169 84.37h109.315c2.984 0 5.378 3.06 5.33 6.795l-1.539 106.27c-.076 4.999-3.354 8.995-7.344 8.927l-105.876-1.669c-2.917-.049-5.264-3.021-5.264-6.679l.048-106.965c0-3.687 2.384-6.679 5.33-6.679Z"/>
    <path fill="#85649F" d="M50.898 87.507h104.974c2.859 0 5.168 2.934 5.111 6.514l-1.472 101.851c-.067 4.796-3.221 8.618-7.06 8.56L50.784 202.84c-2.803-.048-5.055-2.896-5.055-6.399l.048-102.535c0-3.533 2.3-6.4 5.12-6.4Z"/>
    <path fill="#fff" d="M123.17 99.782h-.029L53.814 99c-1.89-.019-3.42-1.534-3.42-3.377v-2.76c0-.724.295-1.41.817-1.921a2.803 2.803 0 0 1 1.948-.782h70.486c.751 0 1.463.309 1.957.86.475.52.713 1.196.656 1.89l-.333 4.382c-.114 1.4-1.32 2.49-2.755 2.49Zm-70.02-8.657c-.485 0-.941.184-1.283.512a1.695 1.695 0 0 0-.523 1.216v2.76c0 1.312 1.112 2.384 2.47 2.403l69.327.782h.019c.941 0 1.72-.695 1.787-1.593l.332-4.381a1.585 1.585 0 0 0-.399-1.158 1.678 1.678 0 0 0-1.254-.54H53.149Z"/>
    <path fill="#fff" d="m122.325 98.296-67.247-.58c-1.586-.009-2.86-.955-2.86-2.113v-2.027c0-.897.989-1.62 2.214-1.62h68.377c1.207 0 2.157.752 2.071 1.63l-.323 3.214c-.095.85-1.073 1.505-2.232 1.496Z" opacity=".4"/>
    <path fill="#fff" d="M145.345 110.157H50.898c-.627 0-1.13-.57-1.13-1.274v-3.397c0-.705.513-1.274 1.14-1.274l94.456.936c.628.01 1.122.569 1.122 1.274v2.461c0 .704-.513 1.274-1.141 1.274Z" opacity=".59"/>
    <path fill="#fff" d="m152.822 133.302-99.473-1.351c-1.767-.019-3.192-1.486-3.192-3.281v-13.879c0-1.843 1.482-3.339 3.306-3.32l99.178 1.081c1.957.019 3.535 1.641 3.535 3.629v13.763c0 1.862-1.511 3.377-3.354 3.358Z" opacity=".4"/>
    <path fill="#fff" d="M136.766 143.628h-86.01c-.57 0-1.036-.569-1.036-1.273v-3.397c0-.705.465-1.274 1.045-1.274l86.01.936c.57.009 1.026.569 1.026 1.274v2.461c-.009.704-.465 1.273-1.035 1.273Z" opacity=".59"/>
    <path fill="#fff" d="m152.784 168.848-99.473-1.477c-1.767-.029-3.193-1.631-3.193-3.6V148.58c0-2.027 1.483-3.658 3.307-3.638l99.178 1.177c1.957.019 3.535 1.795 3.535 3.967v15.065c0 2.066-1.511 3.716-3.354 3.697Z" opacity=".4"/>
    <path fill="#fff" d="M155.33 179.742H51.173c-.693 0-1.254-.57-1.254-1.274v-3.397c0-.705.57-1.274 1.264-1.274l104.157.936c.684.01 1.244.569 1.244 1.274v2.461c0 .704-.56 1.274-1.254 1.274Z" opacity=".59"/>
    <path fill="#fff" d="m152.984 201.827-99.473-1.283c-1.767-.02-3.193-1.419-3.193-3.127v-13.203c0-1.757 1.483-3.175 3.307-3.156l99.178 1.023c1.957.019 3.534 1.563 3.534 3.445v13.097c0 1.795-1.51 3.233-3.353 3.204Z" opacity=".4"/>
    <path fill="#A2A8B5" d="M91.555 277.27h3.155v-34.668h-3.155v34.668Z"/>
    <path fill="#A2A8B5" d="M79.315 277.946h27.637v-1.901a.182.182 0 0 0-.18-.184H79.505a.192.192 0 0 0-.19.193v1.892ZM74.09 241.328c0 2.017 1.624 3.667 3.61 3.667h29.718c1.986 0 3.61-1.65 3.61-3.667v-3.31c0-2.017-1.624-3.667-3.61-3.667H77.699c-1.985 0-3.61 1.65-3.61 3.667v3.31Z"/>
    <path fill="#212736" d="M110.715 271.131s9.006 6.602 7.448 11.031c0 0-9.861-4.323-11.049-7.72-1.188-3.407.199-4.903.199-4.903l3.402 1.592Z"/>
    <path fill="#FFBE9D" d="m109.356 265.604-1.473 4.323c-.218.656 0 1.399.58 1.766.285.183.684.357 1.216.483a1.728 1.728 0 0 0 1.91-.879l1.767-3.368-4-2.325Z"/>
    <path fill="#212736" d="M95.02 226.659s18.507 3.262 26.45 10.713c7.942 7.451-7.287 31.212-7.287 31.212s-2.499-.019-5.52-2.644c0 0 9.025-17.874 1.244-23.086-8.75-5.858-18.83-7.181-18.83-7.181l3.762-8.435.18-.579ZM116.596 279.712c-1.986-.936-7.591-4.921-8.541-5.095-.95-.174-2.585.955-2.585.955s-.399.734.029 1.998c1.321 1.621 4.237 4.7 8.171 5.858 2.888.849 4.911.058 6.175-.869-.693-1.071-1.938-2.229-3.249-2.847Z"/>
    <path fill="#212736" d="M113.669 283.417c-3.933-1.149-6.859-4.237-8.17-5.858.285.859.95 1.968 2.375 3.262 3.525 3.213 10.251 4.381 11.686 4.149 1.149-.183 1.035-1.254.285-2.432-1.264.937-3.287 1.728-6.176.879Z"/>
    <path fill="#FFBE9D" d="M103.789 272.754c.019.55 1.14 2.461 1.786 3.523.313.511.855.82 1.444.82.37 0 .798-.029 1.187-.145.58-.173.913-.801.742-1.399l-1.274-4.42-3.885 1.621Z"/>
    <path fill="#212736" d="M77.205 221.015s-4.113 11.166 0 14.563c4.114 3.398 13.92 7.22 16.104 13.985 2.195 6.766 5.91 19.901 10.879 24.563 0 0 3.496-.348 4.807-1.757 0 0-2.831-19.621-4.703-24.649-1.615-4.363-4-10.655-8.57-14.168-1.31-1.004-1.083-2.606-.475-4.15l1.103-2.819-19.145-5.568Z"/>
    <path fill="#F49D37" d="M120.073 212.259c-6.888.425-4.741-10.76-4.617-11.204l-10.461 7.508s.551 5.983 9.254 9.12c2.204.791 4.209.83 5.986.444a9.824 9.824 0 0 1-.162-5.868Z"/>
    <path fill="#FFBE9D" d="M133.393 208.899c-2.565-1.814-5.482 0-5.482 0-3.43 2.278-5.976 3.252-7.848 3.368a9.792 9.792 0 0 0 .162 5.858c3.848-.839 6.603-3.667 7.791-5.115.427-.521 1.197-.617 1.719-.193.532.425 1.055 1.014.96 1.631-.19 1.216 1.206 1.602 1.311 1.168.104-.444-.475-3.059-.475-3.059s2.783 2.847 3.876 3.937c1.083 1.091 2.451 0 2.451 0s-1.89-5.781-4.465-7.595Z"/>
    <path fill="#F49D37" d="M87.932 183.789s10.023-4.082 28.683 11.572c0 0 1.558 3.282-.143 6.196-1.7 2.915-17.899 17.131-20.122 25.016 0 0-9.653 3.185-19.629-4.372 0-.009.884-21.947 11.211-38.412Z"/>
    <path fill="#FFBE9D" d="m107.76 180.142-4.931 6.08a2.003 2.003 0 0 0-.256 2.142c.684 1.419 2.308 3.484 5.919 3.204a3.028 3.028 0 0 0 2.489-1.727l3.449-7.248-6.67-2.451Z"/>
    <path fill="#212736" d="m107.76 180.142-4.931 6.08a2.003 2.003 0 0 0-.256 2.142c.684 1.419 2.308 3.484 5.919 3.204a3.028 3.028 0 0 0 2.489-1.727l3.449-7.248-6.67-2.451Z" opacity=".1"/>
    <path fill="#F49D37" d="M80.17 209.82c-1.169-4.816 10.622-15.549 10.622-15.549l-2.86-10.481s-25.462 17.218-18.973 31.058c.931 1.988 2.166 3.378 3.6 4.305 2.053-5.608 5.321-8.175 7.61-9.333Z"/>
    <path fill="#212736" d="M80.17 209.113a.275.275 0 0 1-.266-.213c-1.188-4.922 10.222-15.383 10.707-15.827a.27.27 0 0 1 .39.019.28.28 0 0 1-.02.396c-.113.106-11.647 10.674-10.545 15.267.038.155-.057.309-.2.338-.028.02-.047.02-.066.02Z"/>
    <path fill="#FFBE9D" d="M98.031 209.401s-13.975 5.51-17.386 1.37a2.354 2.354 0 0 1-.466-.955c-2.29 1.158-5.558 3.725-7.61 9.332 7.354 4.768 19.914-2.654 23.315-4.845a2.528 2.528 0 0 1 1.881-.347c1.311.28 3.573.685 4.798.492 1.786-.28 4.351 6.119 7.249 4.15-.009-.01-2.489-11.137-11.78-9.197ZM119.674 174.716s-.722 6.562-2.138 9.399c-1.406 2.838-1.834 4.97-5.282 3.697-3.449-1.274-5.188-4.411-5.064-7.991 0 0 .152-5.54 1.634-6.978 1.482-1.438 10.85 1.873 10.85 1.873Z"/>
    <path fill="#212736" d="m109.375 178.47.399.231s.295-4.352 2.071-4.111c1.777.241 8.123 2.384 10.508 1.052 2.299-1.284 2.689-4.449 1.52-6.09a.238.238 0 0 0-.323-.058l-.275.174a.247.247 0 0 1-.371-.27c.048-.203-.161-.386-.351-.28-.722.396-2.3.791-5.321-.29-4.275-1.534-7.733-1.438-9.339 1.236-.105.173-.333.154-.428-.02-.19-.347-.598-.694-1.501-.53-1.577.289-2.47 2.895-1.244 6.186.057.154-.038.328-.209.338-.58.028-1.587.328-.456 2.171 1.149 1.882 2.194 2.355 2.622 2.48.114.029.237-.019.285-.125l1.216-2.49a.249.249 0 0 1 .342-.106l.855.502Z"/>
    <path fill="#FFBE9D" d="M109.194 179.028s1.045-3.85-.969-3.773c-2.014.077-1.358 4.208-.247 5.028l1.216-1.255Z"/>
    <path fill="#212736" d="M105.195 220.272h.066l29.329-.029c.722 0 1.311-.599 1.311-1.332 0-.733-.589-1.341-1.311-1.332l-29.329.029c-.722 0-1.311.599-1.311 1.332a1.313 1.313 0 0 0 1.245 1.332Z"/>
    <path fill="#CACDD7" d="M160.955 193.228h-24.427a4.64 4.64 0 0 0-4.209 2.712l-11.287 24.321h30.355a2.84 2.84 0 0 0 2.632-1.815l8.76-22.506c.494-1.303-.456-2.712-1.824-2.712Z"/>
    <path fill="#212736" d="M145.349 204.376c-1.739.214-3.049 1.245-2.923 2.306.123 1.052 1.629 1.74 3.368 1.526 1.739-.214 3.049-1.245 2.923-2.306-.114-1.056-1.629-1.74-3.368-1.526Z"/>
    <path fill="#A2A8B5" d="M156.992 284.173c.162 0 .323-.029.485-.097.627-.26.912-.975.646-1.592l-25.851-59.095a1.24 1.24 0 0 0-1.616-.637c-.627.26-.912.974-.646 1.592l25.852 59.095a1.23 1.23 0 0 0 1.13.734Z"/>
    <path fill="#A2A8B5" d="M127.873 284.173c.475 0 .931-.271 1.13-.734l25.852-59.095a1.203 1.203 0 0 0-.646-1.592 1.236 1.236 0 0 0-1.615.637l-25.852 59.095a1.203 1.203 0 0 0 .646 1.592 1.2 1.2 0 0 0 .485.097ZM76.987 284.173c.161 0 .323-.029.484-.097.627-.26.912-.975.646-1.592l-25.851-59.095a1.239 1.239 0 0 0-1.615-.637c-.627.26-.912.974-.646 1.592l25.851 59.095c.2.454.646.734 1.13.734Z"/>
    <path fill="#A2A8B5" d="M47.867 284.172c.475 0 .93-.271 1.13-.734l25.852-59.095a1.203 1.203 0 0 0-.646-1.592 1.236 1.236 0 0 0-1.615.637l-25.852 59.095a1.203 1.203 0 0 0 .646 1.592 1.2 1.2 0 0 0 .485.097Z"/>
    <path fill="#A2A8B5" d="M44.836 221.563a1.456 1.456 0 0 1 .247-1.09 1.1 1.1 0 0 1 .893-.483h117.582c.456 0 .883.261 1.13.705.247.434.276.984.086 1.457l-1.273 3.137c-.295.714-.922 1.177-1.615 1.177H46.784c-.646 0-1.207-.521-1.33-1.245l-.618-3.658Z"/>
    <path fill="#CACDD7" d="M166.237 43.616H284.05c3.207 0 5.798 3.332 5.746 7.386l-1.661 115.519c-.074 5.434-3.615 9.775-10.855 9.7l-109.675-1.74c-3.813-.064-6.999-3.088-7.156-6.962 0-.127-.01-.244-.01-.371l.052-116.294c.01-3.99 2.58-7.238 5.746-7.238Z"/>
    <path fill="#85649F" d="M168.838 46.747H281.96c3.082 0 5.569 3.162 5.516 7.025l-1.588 109.767c-.073 5.169-3.468 9.287-7.605 9.223l-109.57-1.719c-3.019-.043-5.443-3.121-5.443-6.899l.052-110.5c0-3.82 2.466-6.897 5.516-6.897Z"/>
    <path fill="#fff" d="M276.402 68.937H172.829c-1.264 0-2.298-1.04-2.298-2.335v-5.678c0-1.347 1.076-2.45 2.413-2.45h103.061c1.296 0 2.351 1.071 2.351 2.387v6.102c-.011 1.093-.878 1.974-1.954 1.974Z"/>
    <path fill="#fff" d="M269.622 65.752h-39.511c-.648.244-1.181-.35-1.181-1.082v-1.953c0-.732.533-1.326 1.181-1.326h39.511c.648 0 1.18.594 1.18 1.326v1.963c0 .733-.532 1.327-1.18 1.072Z" opacity=".27"/>
    <path fill="#8F1DEA" d="M248.028 120.899c0 2.749-2.194 4.988-4.9 4.988l-68.815.149c-1.797 0-3.26-1.518-3.26-3.386V85.516c0-1.889 1.494-3.417 3.312-3.385l70.466 1.135c1.776.032 3.207 1.54 3.207 3.386v34.247h-.01Z"/>
    <path fill="#fff" d="m239.211 166.616-29.44-.244a1.821 1.821 0 0 1-1.787-1.847l.24-29.959a1.817 1.817 0 0 1 1.766-1.815l29.074.562c1.233.022 2.215 1.051 2.205 2.303l-.251 29.185c0 1.019-.804 1.826-1.807 1.815ZM201.767 166.616l-29.44-.244a1.82 1.82 0 0 1-1.786-1.847l.24-29.959a1.816 1.816 0 0 1 1.766-1.815l29.074.562c1.233.022 2.215 1.051 2.205 2.303l-.251 29.185a1.798 1.798 0 0 1-1.808 1.815ZM276.288 167.328l-29.44-.244a1.821 1.821 0 0 1-1.787-1.847l.24-29.959a1.817 1.817 0 0 1 1.766-1.815l29.075.562c1.232.022 2.214 1.051 2.204 2.303l-.251 29.185c0 1.008-.815 1.826-1.807 1.815ZM275.869 127.711h-21.291c-1.369 0-2.476-1.135-2.476-2.536V85.664c0-1.178.898-2.133 2.016-2.133l21.866-.128c1.327.064 2.372 1.178 2.372 2.526v39.246c-.011 1.401-1.118 2.536-2.487 2.536ZM195.259 56.235c-1.912 0-3.458-1.581-3.458-3.513 0-1.942 1.557-3.513 3.458-3.513 1.912 0 3.458 1.582 3.458 3.513 0 1.931-1.546 3.513-3.458 3.513Zm0-6.325c-1.515 0-2.758 1.252-2.758 2.802 0 1.549 1.233 2.801 2.758 2.801s2.758-1.252 2.758-2.801c0-1.54-1.243-2.802-2.758-2.802ZM184.498 56.49c-1.911 0-3.458-1.582-3.458-3.514 0-1.941 1.557-3.512 3.458-3.512 1.912 0 3.458 1.581 3.458 3.513 0 1.93-1.556 3.512-3.458 3.512Zm0-6.326c-1.514 0-2.758 1.252-2.758 2.802 0 1.539 1.233 2.801 2.758 2.801 1.526 0 2.758-1.252 2.758-2.801 0-1.539-1.243-2.802-2.758-2.802ZM174.155 56.49c-1.912 0-3.458-1.582-3.458-3.514 0-1.941 1.557-3.512 3.458-3.512 1.912 0 3.458 1.581 3.458 3.513 0 1.93-1.546 3.512-3.458 3.512Zm0-6.326c-1.525 0-2.758 1.252-2.758 2.802 0 1.539 1.233 2.801 2.758 2.801 1.515 0 2.758-1.252 2.758-2.801 0-1.539-1.243-2.802-2.758-2.802ZM211.139 111.44c-4.576 0-8.295-3.778-8.295-8.426s3.719-8.426 8.295-8.426c4.576 0 8.295 3.778 8.295 8.426v.011c-.01 4.637-3.729 8.415-8.295 8.415Zm0-16.364c-4.314 0-7.814 3.555-7.814 7.927 0 4.383 3.5 7.938 7.804 7.938 4.315 0 7.814-3.555 7.814-7.927v-.011c-.01-4.372-3.51-7.927-7.804-7.927Z"/>
    <path fill="#fff" d="M208.841 107.238a.438.438 0 0 1-.428-.424l-.199-7.44a.705.705 0 0 1 .314-.605.683.683 0 0 1 .668-.053l7.23 3.439a.706.706 0 0 1 .031 1.252l-6.383 3.46a.43.43 0 0 1-.585-.181.443.443 0 0 1 .177-.594l6.091-3.3-6.686-3.174.188 7.164a.421.421 0 0 1-.418.445c.011.011.011.011 0 .011Z"/>
    <path fill="#212736" d="M264.691 285.472c7.199-7.242 11.428-33.24 4.406-38.986h-35.73c-7.022 5.746-2.793 31.736 4.399 38.986l.201.196.243.237c.209.196.419.385.653.574l.17.134c.177.134.355.268.549.401.298.213.608.41.928.591 5.924 3.368 15.52 3.368 21.444 0 .323-.181.635-.378.937-.591.185-.126.347-.252.508-.377l.21-.166c.226-.181.436-.362.63-.551l.29-.275c.049-.055.113-.11.162-.173Z"/>
    <path fill="#A2A8B5" d="M236.473 244.172c-8.151 4.644-8.151 12.169 0 16.813 8.152 4.644 21.364 4.644 29.516 0 8.152-4.644 8.152-12.169 0-16.813-8.152-4.644-21.364-4.636-29.516 0Z"/>
    <path fill="#212736" d="M240.389 246.41c-5.981 3.408-5.981 8.933 0 12.341 5.981 3.409 15.698 3.409 21.687 0 5.988-3.408 5.98-8.933 0-12.341-5.981-3.409-15.698-3.409-21.687 0Z"/>
    <path fill="#85649F" d="M262.075 252.263c-5.989-3.408-15.698-3.408-21.687 0a9.999 9.999 0 0 0-3.584 3.243 9.845 9.845 0 0 0 3.584 3.243c5.989 3.408 15.698 3.408 21.687 0a9.842 9.842 0 0 0 3.583-3.243 9.987 9.987 0 0 0-3.583-3.243Z"/>
    <path fill="#8F1DEA" d="M262.075 252.263c-5.989-3.408-15.698-3.408-21.687 0a9.999 9.999 0 0 0-3.584 3.243 9.845 9.845 0 0 0 3.584 3.243c5.989 3.408 15.698 3.408 21.687 0a9.842 9.842 0 0 0 3.583-3.243 9.987 9.987 0 0 0-3.583-3.243Z" opacity=".3"/>
    <path fill="#85649F" d="m239.177 205.61 9.346 7.816-9.161-4.549a24.7 24.7 0 0 0 1.284 8.658 57.132 57.132 0 0 1 7.054 5.289l-7.038-3.022s-.678 4.604.936 11.68c.444 1.858 2.421 5.447 3.648 8.115a29.816 29.816 0 0 0 2.002 3.574c.04.071.088.142.129.22a98.247 98.247 0 0 1 5.206-2.463c1.243-2.314 2.97-8.076 3.696-12.822 2.785-18.175-10.952-29.17-22.187-33.106a32.698 32.698 0 0 1 5.085 10.61Z"/>
    <path fill="#fff" d="m239.177 205.61 9.346 7.816-9.161-4.549a24.7 24.7 0 0 0 1.284 8.658 57.132 57.132 0 0 1 7.054 5.289l-7.038-3.022s-.678 4.604.936 11.68c.444 1.858 2.421 5.447 3.648 8.115a29.816 29.816 0 0 0 2.002 3.574c.04.071.088.142.129.22a98.247 98.247 0 0 1 5.206-2.463c1.243-2.314 2.97-8.076 3.696-12.822 2.785-18.175-10.952-29.17-22.187-33.106a32.698 32.698 0 0 1 5.085 10.61Z" opacity=".45"/>
    <path fill="#fff" d="M247.167 206.656a17.596 17.596 0 0 1 3.728 7.155 36.144 36.144 0 0 1 1.397 7.966 33.388 33.388 0 0 1-2.672 15.742.262.262 0 0 0 0 .202.28.28 0 0 0 .441.095.265.265 0 0 0 .059-.085 33.895 33.895 0 0 0 2.422-16.002 36.823 36.823 0 0 0-1.542-7.973 17.69 17.69 0 0 0-3.833-7.1Z"/>
    <path fill="#85649F" d="M280.412 215.551a150.508 150.508 0 0 0-9.347 15.553l-10.218 2.519 7.757.637-3.527 6.699-10.008 2.935 8.071.575s-1.526 7.769-6.941 11.421c-2.995 2.015-4.351 2.18-5.529 1.621-1.437-.676-2.284-2.794-3.132-5.997-.847-3.204-.282-9.847 2.285-16.482a19.773 19.773 0 0 1 2.84-4.967c6.788-8.831 20.686-14.01 27.749-14.514Z"/>
    <path fill="#fff" d="M280.412 215.551a150.508 150.508 0 0 0-9.347 15.553l-10.218 2.519 7.757.637-3.527 6.699-10.008 2.935 8.071.575s-1.526 7.769-6.941 11.421c-2.995 2.015-4.351 2.18-5.529 1.621-1.437-.676-2.284-2.794-3.132-5.997-.847-3.204-.282-9.847 2.285-16.482a19.773 19.773 0 0 1 2.84-4.967c6.788-8.831 20.686-14.01 27.749-14.514Z" opacity=".65"/>
    <path fill="#fff" d="M269.848 219.786a42.244 42.244 0 0 0-13.519 10.957 27.49 27.49 0 0 0-4.286 7.572 25.79 25.79 0 0 0-1.501 8.485 33.248 33.248 0 0 1 1.986-8.312 30.962 30.962 0 0 1 4.116-7.493 42.844 42.844 0 0 1 13.196-11.169v-.04h.008Z"/>
    <path fill="#85649F" d="M219 215.143c1.03.033 2.057.127 3.075.283a50.491 50.491 0 0 1 11.671 3.329c1.38.575 2.768 1.22 4.132 1.929.678.354 1.348.732 2.01 1.117a33.838 33.838 0 0 1 8.725 7.084 21.076 21.076 0 0 1 2.913 4.4c.097.205.21.402.299.614.242.543.452 1.063.654 1.575a28.091 28.091 0 0 1 1.985 14.278c-.282 3.424-1.671 7.288-2.421 7.871a1.41 1.41 0 0 1-.323.204c-1.025.583-2.607.15-5.513-1.613-5.819-3.526-7.772-11.886-7.772-11.886l8.37-1.007-10.565-2.55-4.036-6.785 8.071-1.055-10.75-2.109A156.026 156.026 0 0 0 219 215.158v-.015Z"/>
    <path fill="#fff" d="M219 215.143c1.03.033 2.057.127 3.075.283a50.491 50.491 0 0 1 11.671 3.329c1.38.575 2.768 1.22 4.132 1.929.678.354 1.348.732 2.01 1.117a33.838 33.838 0 0 1 8.725 7.084 21.076 21.076 0 0 1 2.913 4.4c.097.205.21.402.299.614.242.543.452 1.063.654 1.575a28.091 28.091 0 0 1 1.985 14.278c-.282 3.424-1.671 7.288-2.421 7.871a1.41 1.41 0 0 1-.323.204c-1.025.583-2.607.15-5.513-1.613-5.819-3.526-7.772-11.886-7.772-11.886l8.37-1.007-10.565-2.55-4.036-6.785 8.071-1.055-10.75-2.109A156.026 156.026 0 0 0 219 215.158v-.015Z" opacity=".65"/>
    <path fill="#85649F" d="M222.059 215.425a50.491 50.491 0 0 1 11.671 3.329c1.38.575 2.768 1.22 4.132 1.929.678.354 1.348.732 2.01 1.117a33.834 33.834 0 0 1 8.724 7.084 21.041 21.041 0 0 1 2.914 4.4c.097.205.21.402.299.614.242.543.452 1.063.653 1.574a28.086 28.086 0 0 1 1.986 14.279c-.283 3.423-1.671 7.288-2.421 7.871a1.41 1.41 0 0 1-.323.204 1.812 1.812 0 0 1-.662.213c.985-5.29-1.057-18.891-4.843-24.629-3.93-5.919-13.551-14.742-27.199-18.253 1.024.027 2.046.116 3.059.268Z"/>
    <path fill="#fff" d="M222.059 215.425a50.491 50.491 0 0 1 11.671 3.329c1.38.575 2.768 1.22 4.132 1.929.678.354 1.348.732 2.01 1.117a33.834 33.834 0 0 1 8.724 7.084 21.041 21.041 0 0 1 2.914 4.4c.097.205.21.402.299.614.242.543.452 1.063.653 1.574a28.086 28.086 0 0 1 1.986 14.279c-.283 3.423-1.671 7.288-2.421 7.871a1.41 1.41 0 0 1-.323.204 1.812 1.812 0 0 1-.662.213c.985-5.29-1.057-18.891-4.843-24.629-3.93-5.919-13.551-14.742-27.199-18.253 1.024.027 2.046.116 3.059.268Z" opacity=".25"/>
  </g>
  <defs>
    <clipPath id="a">
      <path fill="#fff" d="M0 0h290v299.999H0z"/>
    </clipPath>
  </defs>
</svg>
