<svg xmlns="http://www.w3.org/2000/svg" fill="none" viewBox="0 0 20 20">
  <path fill="#F49D37" d="M18.504 4.625C15.512 0 9.404-1.375 4.667 1.5.055 4.375-1.44 10.625 1.551 15.25l.25.375-.998 3.75 3.74-1 .374.25C6.537 19.5 8.282 20 10.027 20c1.87 0 3.74-.5 5.36-1.5 4.613-3 5.984-9.125 3.117-13.875Zm-2.618 9.625c-.498.75-1.121 1.25-1.994 1.375-.499 0-1.122.25-3.615-.75-2.12-1-3.864-2.625-5.111-4.5-.748-.875-1.122-2-1.247-3.125 0-1 .374-1.875.998-2.5.249-.25.498-.375.748-.375h.623c.25 0 .499 0 .623.5.25.625.873 2.125.873 2.25a.381.381 0 0 1 0 .5c.124.25 0 .5-.125.625-.124.125-.25.375-.374.5-.25.125-.374.375-.25.625.5.75 1.123 1.5 1.746 2.125.748.625 1.496 1.125 2.368 1.5.25.125.5.125.624-.125.125-.25.748-.875.997-1.125.25-.25.374-.25.623-.125l1.995 1c.25.125.498.25.623.375.125.375.125.875-.124 1.25Z"/>
</svg>
