<svg xmlns="http://www.w3.org/2000/svg" fill="none" viewBox="0 0 20 20">
  <path fill="#F49D37" d="M17.622 15.415c-.897.793-2.196 1.362-3.899 1.707a18.883 18.883 0 0 1-5.263.302L5.03 20v-3.22c-1.131-.35-2.015-.806-2.652-1.365-.754-.664-1.338-1.616-1.754-2.859a11.91 11.91 0 0 1 0-7.61c.416-1.242 1.004-2.198 1.764-2.868.76-.67 1.849-1.184 3.265-1.541A17.685 17.685 0 0 1 10 0c1.482 0 2.93.179 4.347.537 1.417.357 2.505.871 3.265 1.541.76.67 1.348 1.626 1.764 2.868a11.91 11.91 0 0 1 0 7.61c-.416 1.243-1 2.195-1.754 2.859Zm-5.166-4.78 1.267.214c-.104-1.561-.705-2.894-1.803-4-1.098-1.106-2.427-1.71-3.986-1.815l.214 1.269a4.845 4.845 0 0 1 2.885 1.424 4.868 4.868 0 0 1 1.423 2.907ZM8.363 7.61l.233 1.405c.52.26.904.644 1.15 1.151l1.404.234a3.568 3.568 0 0 0-.994-1.785A3.794 3.794 0 0 0 8.363 7.61ZM6.277 8.76V7.512c0-.22-.081-.442-.244-.663a1.6 1.6 0 0 0-.516-.478c-.182-.098-.319-.107-.41-.03l-.896.918c-.507.507-.582 1.297-.225 2.37.358 1.074 1.04 2.114 2.047 3.122 1.007 1.008 2.047 1.691 3.119 2.05 1.072.357 1.855.282 2.349-.225l.916-.917c.091-.078.088-.212-.01-.4a1.48 1.48 0 0 0-.477-.517c-.221-.157-.442-.235-.663-.235H10.02l-.722.625c-.572-.156-1.283-.66-2.134-1.512s-1.355-1.571-1.511-2.156l.624-.703Zm1.247-6.244.195 1.268a7.22 7.22 0 0 1 3.606 1.025 7.404 7.404 0 0 1 2.632 2.634c.65 1.1.994 2.3 1.033 3.6l1.267.215c0-1.184-.23-2.316-.692-3.395a8.782 8.782 0 0 0-1.861-2.79 8.772 8.772 0 0 0-2.788-1.864 8.53 8.53 0 0 0-3.392-.693Z"/>
</svg>
