<svg xmlns="http://www.w3.org/2000/svg" fill="none" viewBox="0 0 30 30">
  <path fill="#fff" d="M15.531 2.45 8.175 0l-2.79 8.114.007-.002-.004.004c-1.11.374-1.922 1.518-1.922 2.888v2.887h9.431c1.418 0 2.568 1.223 2.568 2.726v4.635c0 1.504-1.152 2.803-2.57 2.803h-9.43v2.917C3.464 28.642 4.668 30 6.16 30h9.37V7.973H8.736h.006l1.566-4.556 5.224 1.788V2.451Z"/>
  <path fill="#fff" fill-rule="evenodd" d="M11.447 16.083H1.394c-1.062 0-1.925.937-1.925 2.098v1.638c0 1.157.863 2.097 1.925 2.097h10.053c1.063 0 1.924-.94 1.924-2.097v-1.638c0-1.159-.861-2.098-1.924-2.098Zm.04 3.925h-4.14v-2.04h4.14v2.04Z" clip-rule="evenodd"/>
  <path fill="#fff" d="M15 0h1.5v1.5H15zM18 0h1.5v1.5H18zM22.5 0H24v1.5h-1.5zM25.5 0H27v1.5h-1.5zM15 1.5h1.5V3H15zM16.5 1.5H18V3h-1.5zM18 1.5h1.5V3H18zM19.5 1.5H21V3h-1.5zM28.5 1.5H30V3h-1.5zM15 3h1.5v1.5H15zM16.5 3H18v1.5h-1.5zM18 3h1.5v1.5H18zM22.5 3H24v1.5h-1.5zM24 3h1.5v1.5H24zM15 4.5h1.5V6H15zM16.5 4.5H18V6h-1.5zM19.5 4.5H21V6h-1.5zM21 4.5h1.5V6H21zM27 4.5h1.5V6H27zM16.5 15H18v1.5h-1.5zM18 6h1.5v1.5H18zM19.5 6H21v1.5h-1.5zM22.5 6H24v1.5h-1.5zM25.5 6H27v1.5h-1.5zM15 7.5h1.5V9H15zM16.5 7.5H18V9h-1.5zM18 7.5h1.5V9H18zM24 7.5h1.5V9H24zM15 9h1.5v1.5H15zM21 9h1.5v1.5H21zM22.5 9H24v1.5h-1.5zM28.5 9H30v1.5h-1.5zM15 10.5h1.5V12H15zM16.5 10.5H18V12h-1.5zM18 10.5h1.5V12H18zM19.5 10.5H21V12h-1.5zM21 10.5h1.5V12H21zM25.5 10.5H27V12h-1.5zM15 12h1.5v1.5H15zM16.5 12H18v1.5h-1.5zM18 12h1.5v1.5H18zM21 12h1.5v1.5H21zM22.5 12H24v1.5h-1.5zM24 12h1.5v1.5H24zM27 12h1.5v1.5H27zM15 13.5h1.5V15H15zM16.5 13.5H18V15h-1.5zM18 13.5h1.5V15H18zM19.5 13.5H21V15h-1.5zM15 15h1.5v1.5H15zM18 15h1.5v1.5H18zM21 15h1.5v1.5H21zM22.5 15H24v1.5h-1.5zM25.5 15H27v1.5h-1.5zM28.5 15H30v1.5h-1.5zM15 16.5h1.5V18H15zM16.5 16.5H18V18h-1.5zM21 16.5h1.5V18H21zM24 16.5h1.5V18H24zM15 18h1.5v1.5H15zM16.5 18H18v1.5h-1.5zM18 18h1.5v1.5H18zM19.5 18H21v1.5h-1.5zM22.5 18H24v1.5h-1.5zM27 18h1.5v1.5H27zM15 19.5h1.5V21H15zM16.5 19.5H18V21h-1.5zM18 19.5h1.5V21H18zM25.5 19.5H27V21h-1.5zM28.5 19.5H30V21h-1.5zM15 21h1.5v1.5H15zM16.5 21H18v1.5h-1.5zM19.5 21H21v1.5h-1.5zM22.5 21H24v1.5h-1.5zM24 21h1.5v1.5H24zM28.5 21H30v1.5h-1.5zM15 22.5h1.5V24H15zM16.5 22.5H18V24h-1.5zM18 22.5h1.5V24H18zM19.5 22.5H21V24h-1.5zM21 22.5h1.5V24H21zM15 24h1.5v1.5H15zM18 24h1.5v1.5H18zM21 24h1.5v1.5H21zM22.5 24H24v1.5h-1.5zM25.5 24H27v1.5h-1.5zM15 25.5h1.5V27H15zM16.5 25.5H18V27h-1.5zM18 25.5h1.5V27H18zM24 25.5h1.5V27H24zM27 25.5h1.5V27H27zM15 27h1.5v1.5H15zM16.5 27H18v1.5h-1.5zM18 27h1.5v1.5H18zM19.5 27H21v1.5h-1.5zM22.5 27H24v1.5h-1.5zM25.5 28.5H27V30h-1.5zM15 28.5h1.5V30H15zM16.5 28.5H18V30h-1.5zM21 28.5h1.5V30H21zM28.5 27H30v1.5h-1.5z"/>
</svg>
