<svg xmlns="http://www.w3.org/2000/svg" fill="none" viewBox="0 0 60 60"><path fill="#F49D37" fill-rule="evenodd" d="M30 3H13.015c-.732 0-1.452.192-2.09.556a4.328 4.328 0 00-1.56 1.518l-.001.003-8.717 14.31a4.465 4.465 0 00.25 5.001l.002.003 25.698 33.902.002.003c.4.53.915.959 1.504 1.254.59.296 1.239.45 1.897.45V48.665l-8.642-24.903H30v-4.656h-7.299L30 9.208V3zM6.203 19.106l4.995-8.2 3.455 8.2h-8.45zm19 29.723l-8.699-25.067H6.201l19.002 25.067zM14.808 7.656h10.615l-6.755 9.16-3.86-9.16z" clip-rule="evenodd"/><path fill="#F49D37" d="M30 3h3v3h-3zm3 0h3v3h-3zm3 0h3v3h-3zm3 0h3v3h-3zm18 0h3v3h-3zM30 6h3v3h-3zm3 0h3v3h-3zm3 0h3v3h-3zm9 0h3v3h-3zm3 0h3v3h-3zM30 9h3v3h-3zm3 0h3v3h-3zm6 0h3v3h-3zm3 0h3v3h-3zm12 0h3v3h-3zm-21 3h3v3h-3zm3 0h3v3h-3zm3 0h3v3h-3zm6 0h3v3h-3zm6 0h3v3h-3zm-18 3h3v3h-3zm3 0h3v3h-3zm12 0h3v3h-3zm-18 3h3v3h-3zm12 0h3v3h-3zm3 0h3v3h-3zm12 0h3v3h-3zm-27 3h3v3h-3zm3 0h3v3h-3zm3 0h3v3h-3zm3 0h3v3h-3zm3 0h3v3h-3zm9 0h3v3h-3zm-18 3h3v3h-3zm3 0h3v3h-3zm6 0h3v3h-3zm3 0h3v3h-3zm3 0h3v3h-3zm6 0h3v3h-3zm-21 3h3v3h-3zm3 0h3v3h-3zm3 0h3v3h-3zm-3 3h3v3h-3zm6 0h3v3h-3zm3 0h3v3h-3zm6 0h3v3h-3zm6 0h3v3h-3zm-24 3h3v3h-3zm9 0h3v3h-3zm6 0h3v3h-3zm-15 3h3v3h-3zm3 0h3v3h-3zm3 0h3v3h-3zm6 0h3v3h-3zm9 0h3v3h-3zm-21 3h3v3h-3zm3 0h3v3h-3zm15 0h3v3h-3zm6 0h3v3h-3zm-24 3h3v3h-3zm6 0h3v3h-3zm6 0h3v3h-3zm3 0h3v3h-3zm9 0h3v3h-3zm-24 3h3v3h-3zm3 0h3v3h-3zm3 0h3v3h-3zm3 0h3v3h-3zm-12 3h3v3h-3zm6 0h3v3h-3zm6 0h3v3h-3zm3 0h3v3h-3zm6 0h3v3h-3zm-21 3h3v3h-3zm3 0h3v3h-3zm3 0h3v3h-3zm12 0h3v3h-3zm6 0h3v3h-3zm-24 3h3v3h-3zm3 0h3v3h-3zm3 0h3v3h-3zm3 0h3v3h-3zm6 0h3v3h-3zm6 3h3v3h-3zm-21 0h3v3h-3zm3 0h3v3h-3zm9 0h3v3h-3zm15-3h3v3h-3z"/></svg>