<svg xmlns="http://www.w3.org/2000/svg" fill="none" viewBox="0 0 60 60"><path fill="#F49D37" d="M30 0h3v3h-3zm21 0h3v3h-3zM30 3h3v3h-3zm3 0h3v3h-3zm24 0h3v3h-3zM33 6h3v3h-3zm3 0h3v3h-3zm12 0h3v3h-3zM30 9h3v3h-3zm3 0h3v3h-3zm6 0h3v3h-3zm15 0h3v3h-3zm-24 3h3v3h-3zm3 0h3v3h-3zm3 0h3v3h-3zm3 0h3v3h-3zm6 0h3v3h-3zm6 0h3v3h-3zm-21 3h3v3h-3zm3 0h3v3h-3zm3 0h3v3h-3zm12 0h3v3h-3zm-18 3h3v3h-3zm12 0h3v3h-3zm3 0h3v3h-3zm12 0h3v3h-3zm-27 3h3v3h-3zm3 0h3v3h-3zm3 0h3v3h-3zm3 0h3v3h-3zm3 0h3v3h-3zm9 0h3v3h-3zm-21 3h3v3h-3zm6 0h3v3h-3zm6 0h3v3h-3zm3 0h3v3h-3zm3 0h3v3h-3zm6 0h3v3h-3zm-24 3h3v3h-3zm3 0h3v3h-3zm3 0h3v3h-3zm3 0h3v3h-3zm-9 3h3v3h-3zm6 0h3v3h-3zm6 0h3v3h-3zm3 0h3v3h-3zm6 0h3v3h-3zm6 0h3v3h-3zm-27 3h3v3h-3zm12 0h3v3h-3zm6 0h3v3h-3zm-9 3h3v3h-3zm6 0h3v3h-3zm9 0h3v3h-3zm-3 3h3v3h-3zm6 0h3v3h-3zm-18 3h3v3h-3zm6 0h3v3h-3zm3 0h3v3h-3zm9 0h3v3h-3zm-15 3h3v3h-3zm3 3h3v3h-3zm6 0h3v3h-3zm-3 3h3v3h-3zm6 0h3v3h-3zm-9 3h3v3h-3zm6 3h3v3h-3zm6-3h3v3h-3zM5.482 37.557C3.637 46.514 6.863 53.072 19.117 60c-3.85-8.035-1.8-12.64 1.16-16.978 3.239-4.75 4.074-9.453 4.074-9.453s2.433 3.55 1.186 11.946c2.265-2.53 3.691-6.682 4.463-10.575V3.694C27.166 1.312 24.94 0 24.94 0c-.236 10.827-4.24 21.135-10.297 28.58-.213-3.633-1.009-6.14-2.914-9.618-.237 3.673-1.723 6.968-3.229 10.307-1.2 2.663-2.414 5.355-3.018 8.288z"/></svg>