<svg xmlns="http://www.w3.org/2000/svg" fill="none" viewBox="0 0 60 60"><g fill="#F49D37" clip-path="url(#a)"><path fill-rule="evenodd" d="M30.772 60H30V37.5a44.805 44.805 0 00-22.502 6.023A26.25 26.25 0 0130 3.758v-3.76h.683a30.009 30.009 0 10.088 60zM30 7.5a1.875 1.875 0 00-1.873 1.875V15A1.875 1.875 0 0030 16.875V7.5zm0 18.458L16.026 14.002a1.459 1.459 0 00-1.976.075h-.004a1.46 1.46 0 00-.109 1.943l12.878 16.114A3.412 3.412 0 0030 33.377v-7.42zm30 3.315v1.452c.012-.483.012-.967 0-1.452zM16.877 30a1.875 1.875 0 00-1.875-1.875H9.377a1.875 1.875 0 000 3.75h5.625A1.875 1.875 0 0016.877 30z" clip-rule="evenodd"/><path d="M30 0h3v3h-3zm6 0h3v3h-3zm9 0h3v3h-3zm6 0h3v3h-3zM30 3h3v3h-3zm3 0h3v3h-3zm3 0h3v3h-3zm3 0h3v3h-3zm18 0h3v3h-3zM30 6h3v3h-3zm3 0h3v3h-3zm3 0h3v3h-3zm9 0h3v3h-3zm3 0h3v3h-3zM30 9h3v3h-3zm3 0h3v3h-3zm6 0h3v3h-3zm3 0h3v3h-3zm12 0h3v3h-3zm-24 3h3v3h-3zm6 0h3v3h-3zm3 0h3v3h-3zm6 0h3v3h-3zm6 0h3v3h-3zm-21 3h3v3h-3zm6 0h3v3h-3zm12 0h3v3h-3zm-6 3h3v3h-3zm3 0h3v3h-3zm12 0h3v3h-3zm-24 3h3v3h-3zm3 0h3v3h-3zm3 0h3v3h-3zm3 0h3v3h-3zm9 0h3v3h-3zm-18 3h3v3h-3zm3 0h3v3h-3zm6 0h3v3h-3zm3 0h3v3h-3zm3 0h3v3h-3zm6 0h3v3h-3zm-24 3h3v3h-3zm3 0h3v3h-3zm3 0h3v3h-3zm3 0h3v3h-3zm-9 3h3v3h-3zm6 0h3v3h-3zm6 0h3v3h-3zm3 0h3v3h-3zm6 0h3v3h-3zm6 0h3v3h-3zm-24 3h3v3h-3zm9 0h3v3h-3zm6 0h3v3h-3zm-18 3h3v3h-3zm3 0h3v3h-3zm3 0h3v3h-3zm3 0h3v3h-3zm6 0h3v3h-3zm9 0h3v3h-3zm-24 3h3v3h-3zm3 0h3v3h-3zm3 0h3v3h-3zm15 0h3v3h-3zm6 0h3v3h-3zm-27 3h3v3h-3zm3 0h3v3h-3zm6 0h3v3h-3zm6 0h3v3h-3zm3 0h3v3h-3zm9 0h3v3h-3zm-27 3h3v3h-3zm3 0h3v3h-3zm3 0h3v3h-3zm3 0h3v3h-3zm3 0h3v3h-3zm-12 3h3v3h-3zm6 0h3v3h-3zm6 0h3v3h-3zm3 0h3v3h-3zm6 0h3v3h-3zm-21 3h3v3h-3zm3 0h3v3h-3zm3 0h3v3h-3zm12 0h3v3h-3zm6 0h3v3h-3zm-24 3h3v3h-3zm3 0h3v3h-3zm3 0h3v3h-3zm3 0h3v3h-3zm6 0h3v3h-3zm6 3h3v3h-3zm-21 0h3v3h-3zm3 0h3v3h-3zm9 0h3v3h-3zm15-3h3v3h-3z"/></g><defs><clipPath id="a"><path fill="#fff" d="M0 0h60v60H0z"/></clipPath></defs></svg>