<svg xmlns="http://www.w3.org/2000/svg" fill="none" viewBox="0 0 60 60"><g fill="#F49D37" clip-path="url(#a)"><path d="M31.063 4.901L16.349 0l-5.578 16.228.012-.004-.008.008c-2.22.747-3.843 3.036-3.843 5.775v5.775h18.862c2.835 0 5.136 2.445 5.136 5.453v9.268c0 3.008-2.305 5.606-5.14 5.606H6.928v5.835c0 3.341 2.41 6.056 5.394 6.056h18.741V15.947H17.47h.012l3.132-9.112 10.449 3.575V4.901z"/><path fill-rule="evenodd" d="M22.895 32.165H2.788c-2.124 0-3.851 1.876-3.851 4.197v3.276c0 2.314 1.727 4.193 3.851 4.193h20.107c2.124 0 3.847-1.88 3.847-4.193v-3.276c0-2.318-1.723-4.197-3.847-4.197zm.08 7.85h-8.28v-4.079h8.28v4.08z" clip-rule="evenodd"/><path d="M30 0h3v3h-3zm6 0h3v3h-3zm9 0h3v3h-3zm6 0h3v3h-3zM30 3h3v3h-3zm3 0h3v3h-3zm3 0h3v3h-3zm3 0h3v3h-3zm18 0h3v3h-3zM30 6h3v3h-3zm3 0h3v3h-3zm3 0h3v3h-3zm9 0h3v3h-3zm3 0h3v3h-3zM30 9h3v3h-3zm3 0h3v3h-3zm6 0h3v3h-3zm3 0h3v3h-3zm12 0h3v3h-3zM33 30h3v3h-3zm3-18h3v3h-3zm3 0h3v3h-3zm6 0h3v3h-3zm6 0h3v3h-3zm-21 3h3v3h-3zm3 0h3v3h-3zm3 0h3v3h-3zm12 0h3v3h-3zm-18 3h3v3h-3zm12 0h3v3h-3zm3 0h3v3h-3zm12 0h3v3h-3zm-27 3h3v3h-3zm3 0h3v3h-3zm3 0h3v3h-3zm3 0h3v3h-3zm3 0h3v3h-3zm9 0h3v3h-3zm-21 3h3v3h-3zm3 0h3v3h-3zm3 0h3v3h-3zm6 0h3v3h-3zm3 0h3v3h-3zm3 0h3v3h-3zm6 0h3v3h-3zm-24 3h3v3h-3zm3 0h3v3h-3zm3 0h3v3h-3zm3 0h3v3h-3zm-9 3h3v3h-3zm6 0h3v3h-3zm6 0h3v3h-3zm3 0h3v3h-3zm6 0h3v3h-3zm6 0h3v3h-3zm-27 3h3v3h-3zm3 0h3v3h-3zm9 0h3v3h-3zm6 0h3v3h-3zm-18 3h3v3h-3zm3 0h3v3h-3zm3 0h3v3h-3zm3 0h3v3h-3zm6 0h3v3h-3zm9 0h3v3h-3zm-24 3h3v3h-3zm3 0h3v3h-3zm3 0h3v3h-3zm15 0h3v3h-3zm6 0h3v3h-3zm-27 3h3v3h-3zm3 0h3v3h-3zm6 0h3v3h-3zm6 0h3v3h-3zm3 0h3v3h-3zm9 0h3v3h-3zm-27 3h3v3h-3zm3 0h3v3h-3zm3 0h3v3h-3zm3 0h3v3h-3zm3 0h3v3h-3zm-12 3h3v3h-3zm6 0h3v3h-3zm6 0h3v3h-3zm3 0h3v3h-3zm6 0h3v3h-3zm-21 3h3v3h-3zm3 0h3v3h-3zm3 0h3v3h-3zm12 0h3v3h-3zm6 0h3v3h-3zm-24 3h3v3h-3zm3 0h3v3h-3zm3 0h3v3h-3zm3 0h3v3h-3zm6 0h3v3h-3zm6 3h3v3h-3zm-21 0h3v3h-3zm3 0h3v3h-3zm9 0h3v3h-3zm15-3h3v3h-3z"/></g><defs><clipPath id="a"><path fill="#fff" d="M0 0h60v60H0z"/></clipPath></defs></svg>