<svg xmlns="http://www.w3.org/2000/svg" fill="none" viewBox="0 0 60 60"><path fill="#F49D37" d="M30 .008l-4.227 1.64-22.494 9.12c-.5.203-.965.48-1.38.825l10.122 3.91L30 8.51V.008zm0 13.332l-11.751 4.568L30 22.45v-9.11zm-2.25 13.064L0 15.682V44.59a5.25 5.25 0 003.279 4.866l22.494 9.12c.645.261 1.305.462 1.977.597V26.404zM30 0h3v3h-3zm6 0h3v3h-3zm9 0h3v3h-3zm6 0h3v3h-3zM30 3h3v3h-3zm3 0h3v3h-3zm3 0h3v3h-3zm3 0h3v3h-3zm18 0h3v3h-3zM30 6h3v3h-3zm3 0h3v3h-3zm3 0h3v3h-3zm9 0h3v3h-3zm3 0h3v3h-3zM33 9h3v3h-3zm6 0h3v3h-3zm3 0h3v3h-3zm12 0h3v3h-3zm-24 3h3v3h-3zm3 0h3v3h-3zm3 0h3v3h-3zm3 0h3v3h-3zm6 0h3v3h-3zm6 0h3v3h-3zm-21 3h3v3h-3zm3 0h3v3h-3zm3 0h3v3h-3zm12 0h3v3h-3zm-18 3h3v3h-3zm12 0h3v3h-3zm3 0h3v3h-3zm12 0h3v3h-3zm-27 3h3v3h-3zm3 0h3v3h-3zm3 0h3v3h-3zm3 0h3v3h-3zm3 0h3v3h-3zm9 0h3v3h-3zm-21 3h3v3h-3zm3 0h3v3h-3zm3 0h3v3h-3zm6 0h3v3h-3zm3 0h3v3h-3zm3 0h3v3h-3zm6 0h3v3h-3zm-24 3h3v3h-3zm3 0h3v3h-3zm3 0h3v3h-3zm3 0h3v3h-3zm-9 3h3v3h-3zm6 0h3v3h-3zm6 0h3v3h-3zm3 0h3v3h-3zm6 0h3v3h-3zm6 0h3v3h-3zm-27 3h3v3h-3zm3 0h3v3h-3zm9 0h3v3h-3zm6 0h3v3h-3zm-18 3h3v3h-3zm3 0h3v3h-3zm3 0h3v3h-3zm3 0h3v3h-3zm6 0h3v3h-3zm9 0h3v3h-3zm-24 3h3v3h-3zm3 0h3v3h-3zm3 0h3v3h-3zm15 0h3v3h-3zm6 0h3v3h-3zm-27 3h3v3h-3zm3 0h3v3h-3zm6 0h3v3h-3zm6 0h3v3h-3zm3 0h3v3h-3zm9 0h3v3h-3zm-27 3h3v3h-3zm3 0h3v3h-3zm3 0h3v3h-3zm3 0h3v3h-3zm3 0h3v3h-3zm-12 3h3v3h-3zm6 0h3v3h-3zm6 0h3v3h-3zm3 0h3v3h-3zm6 0h3v3h-3zm-21 3h3v3h-3zm3 0h3v3h-3zm3 0h3v3h-3zm12 0h3v3h-3zm6 0h3v3h-3zm-24 3h3v3h-3zm3 0h3v3h-3zm3 0h3v3h-3zm3 0h3v3h-3zm6 0h3v3h-3zm6 3h3v3h-3zm-21 0h3v3h-3zm3 0h3v3h-3zm9 0h3v3h-3zm15-3h3v3h-3z"/></svg>