<svg xmlns="http://www.w3.org/2000/svg" fill="none" viewBox="0 0 60 60"><path fill="#F49D37" fill-rule="evenodd" d="M29.89 8.098l.11.165v6.131l-1.987 6.11a.5.5 0 00.475.654H30V21h15v3h6v3h-9v-3h-3v3h3v3h-3v3h-3v-3h-3v3h3v3h6v3h-3v3h-3v3h3v-3h3v3h3v3h3v3h-6v-3h-3v6H16a3 3 0 01-3-3V22.036a6 6 0 011.535-4.008L25.333 6h.555c.782 0 1.552.19 2.248.555a4.968 4.968 0 011.753 1.543zM36 51v-3h-3v3h3z" clip-rule="evenodd"/><path fill="#F49D37" d="M51 51v3h-3v-3h3zm3 0h-3v-3h3v3zm0 0h3v3h-3v-3zm-3-9v3h-6v-3h6zm3-3v3h-3v-3h3zm3 0h-3v-3h3v3zm0 0h3v6h-3v-6zm-12-3h-3v-6h6v3h-3v3zm3 0v3h-3v-3h3zm3-3v3h-3v-3h3zm0 0v-3h3v3h-3zm3-9h-3v-3h3v3zm0 0h3v3h-3v-3zM8 54H5.333a5.473 5.473 0 01-3.77-1.487A4.956 4.956 0 010 48.923V26.077c0-1.347.562-2.638 1.562-3.59A5.473 5.473 0 015.333 21H8v33zm49-24h3v3h-3v-3z"/></svg>