<svg xmlns="http://www.w3.org/2000/svg" fill="none" viewBox="0 0 20 20"><path fill="#F49D37" d="M10 19.838A6.998 6.998 0 018.5 20c-3.86 0-7-3.141-7-7A7.008 7.008 0 0110 6.162V8.23A5.006 5.006 0 003.5 13a5.006 5.006 0 006.5 4.77v2.068zM10 0h-.5v4.059c.167.018.334.042.5.07V0z"/><path fill="#F49D37" d="M10 16.038l-1.5-.788-2.449 1.287.468-2.726-1.982-1.932 2.738-.398L8.5 9l1.225 2.48.275.04v4.518zM3.5 0h4v4.059a8.957 8.957 0 00-4 1.459V0zM10 0h1v1h-1zm2 0h1v1h-1zm3 0h1v1h-1zm2 0h1v1h-1zm-7 1h1v1h-1zm1 0h1v1h-1zm1 0h1v1h-1zm1 0h1v1h-1zm6 0h1v1h-1zm-9 1h1v1h-1zm1 0h1v1h-1zm1 0h1v1h-1zm3 0h1v1h-1zm1 0h1v1h-1zm-6 1h1v1h-1zm1 0h1v1h-1zm2 0h1v1h-1zm1 0h1v1h-1zm4 0h1v1h-1zm-8 1h1v1h-1zm1 0h1v1h-1zm1 0h1v1h-1zm1 0h1v1h-1zm2 0h1v1h-1zm2 0h1v1h-1zm-7 1h1v1h-1zm1 0h1v1h-1zm1 0h1v1h-1zm4 0h1v1h-1zm-6 1h1v1h-1zm4 0h1v1h-1zm1 0h1v1h-1zm4 0h1v1h-1zm-9 1h1v1h-1zm1 0h1v1h-1zm1 0h1v1h-1zm1 0h1v1h-1zm1 0h1v1h-1zm3 0h1v1h-1zm-7 1h1v1h-1zm1 0h1v1h-1zm1 0h1v1h-1zm2 0h1v1h-1zm1 0h1v1h-1zm1 0h1v1h-1zm2 0h1v1h-1zm-7 1h1v1h-1zm1 0h1v1h-1zm1 0h1v1h-1zm-1 1h1v1h-1zm2 0h1v1h-1zm1 0h1v1h-1zm2 0h1v1h-1zm2 0h1v1h-1zm-9 1h1v1h-1zm1 0h1v1h-1zm3 0h1v1h-1zm2 0h1v1h-1zm-6 1h1v1h-1zm1 0h1v1h-1zm1 0h1v1h-1zm1 0h1v1h-1zm2 0h1v1h-1zm3 0h1v1h-1zm-8 1h1v1h-1zm2 0h1v1h-1zm5 0h1v1h-1zm2 0h1v1h-1zm-9 1h1v1h-1zm1 0h1v1h-1zm2 0h1v1h-1zm2 0h1v1h-1zm1 0h1v1h-1zm3 0h1v1h-1zm-9 1h1v1h-1zm1 0h1v1h-1zm1 0h1v1h-1zm1 0h1v1h-1zm1 0h1v1h-1zm-2 1h1v1h-1zm2 0h1v1h-1zm1 0h1v1h-1zm2 0h1v1h-1zm-7 1h1v1h-1zm1 0h1v1h-1zm1 0h1v1h-1zm4 0h1v1h-1zm2 0h1v1h-1zm-8 1h1v1h-1zm1 0h1v1h-1zm1 0h1v1h-1zm1 0h1v1h-1zm2 0h1v1h-1zm2 1h1v1h-1zm-7 0h1v1h-1zm1 0h1v1h-1zm3 0h1v1h-1z"/><path fill="#212736" d="M19 18h1v1h-1z"/></svg>