<svg xmlns="http://www.w3.org/2000/svg" fill="none" viewBox="0 0 30 30"><path fill="#fff" fill-rule="evenodd" d="M6.563 0A.937.937 0 017.5.938v.937H15V7.5H0V5.625a3.75 3.75 0 013.75-3.75h1.875V.937A.937.937 0 016.563 0zM15 9.375H0V26.25A3.75 3.75 0 003.75 30H15v-3.96c-.534.16-1.114.24-1.74.24-1.107 0-2.087-.253-2.94-.76a4.497 4.497 0 01-1.86-2.2l2.36-1.36c.333 1.08 1.147 1.62 2.44 1.62.707 0 1.253-.167 1.64-.5.035-.03.068-.061.1-.093v-2.594a1.856 1.856 0 00-.1-.093c-.387-.347-.933-.52-1.64-.52h-.6l-1.06-1.6 2.76-3.6H8.88V12H15V9.375z" clip-rule="evenodd"/><path fill="#fff" d="M15 0h1.5v1.5H15zm3 0h1.5v1.5H18zm4.5 0H24v1.5h-1.5zm3 0H27v1.5h-1.5zM15 1.5h1.5V3H15zm1.5 0H18V3h-1.5zm1.5 0h1.5V3H18zm1.5 0H21V3h-1.5zm9 0H30V3h-1.5zM15 3h1.5v1.5H15zm1.5 0H18v1.5h-1.5zM18 3h1.5v1.5H18zm4.5 0H24v1.5h-1.5zM24 3h1.5v1.5H24zm-9 1.5h1.5V6H15zm1.5 0H18V6h-1.5zm3 0H21V6h-1.5zm1.5 0h1.5V6H21zm6 0h1.5V6H27zM15 6h1.5v1.5H15zm1.5 0H18v1.5h-1.5zM18 6h1.5v1.5H18zm1.5 0H21v1.5h-1.5zm3 0H24v1.5h-1.5zm3 0H27v1.5h-1.5zM15 7.5h1.5V9H15zm1.5 0H18V9h-1.5zm1.5 0h1.5V9H18zm6 0h1.5V9H24zM15 9h1.5v1.5H15zm6 0h1.5v1.5H21zm1.5 0H24v1.5h-1.5zm6 0H30v1.5h-1.5zM15 10.5h1.5V12H15zm1.5 0H18V12h-1.5zm1.5 0h1.5V12H18zm1.5 0H21V12h-1.5zm1.5 0h1.5V12H21zm4.5 0H27V12h-1.5zm-9 4.5H18v1.5h-1.5zm1.5-3h1.5v1.5H18zm3 0h1.5v1.5H21zm1.5 0H24v1.5h-1.5zm1.5 0h1.5v1.5H24zm3 0h1.5v1.5H27zm-10.5 1.5H18V15h-1.5zm1.5 0h1.5V15H18zm1.5 0H21V15h-1.5zm-4.5 3h1.5V18H15zm3-1.5h1.5v1.5H18zm3 0h1.5v1.5H21zm1.5 0H24v1.5h-1.5zm3 0H27v1.5h-1.5zm3 0H30v1.5h-1.5zm-12 1.5H18V18h-1.5zm4.5 0h1.5V18H21zm3 0h1.5V18H24zM16.5 18H18v1.5h-1.5zm1.5 0h1.5v1.5H18zm1.5 0H21v1.5h-1.5zm3 0H24v1.5h-1.5zm4.5 0h1.5v1.5H27zm-10.5 1.5H18V21h-1.5zm1.5 0h1.5V21H18zm7.5 0H27V21h-1.5zm3 0H30V21h-1.5zM15 21h1.5v1.5H15zm3 0h1.5v1.5H18zm1.5 0H21v1.5h-1.5zm3 0H24v1.5h-1.5zm1.5 0h1.5v1.5H24zm4.5 0H30v1.5h-1.5zm-12 1.5H18V24h-1.5zm1.5 0h1.5V24H18zm1.5 0H21V24h-1.5zm1.5 0h1.5V24H21zM18 24h1.5v1.5H18zm3 0h1.5v1.5H21zm1.5 0H24v1.5h-1.5zm3 0H27v1.5h-1.5zM15 25.5h1.5V27H15zm1.5 0H18V27h-1.5zm1.5 0h1.5V27H18zm6 0h1.5V27H24zm3 0h1.5V27H27zM15 27h1.5v1.5H15zm1.5 0H18v1.5h-1.5zm1.5 0h1.5v1.5H18zm1.5 0H21v1.5h-1.5zm3 0H24v1.5h-1.5zm3 1.5H27V30h-1.5zm-10.5 0h1.5V30H15zm1.5 0H18V30h-1.5zm4.5 0h1.5V30H21zm7.5-1.5H30v1.5h-1.5z"/></svg>