<svg xmlns="http://www.w3.org/2000/svg" fill="none" viewBox="0 0 30 30"><g clip-path="url(#a)"><path fill="#fff" fill-rule="evenodd" d="M15 0c-1.33 0-3.554.497-5.647 1.05-1.869.5-3.725 1.044-5.568 1.631-.53.17-1 .483-1.357.902a2.848 2.848 0 00-.656 1.465c-1.15 8.394 1.518 14.615 4.754 18.73a22.43 22.43 0 004.854 4.6 13.89 13.89 0 002.021 1.172c.542.247 1.12.45 1.599.45h3v-1.5h3V30h1.5v-1.5H24V27h1.5v-1.5H27V27h1.5v-1.5H27V24h-1.5v1.5H24V24h-1.5v-1.5h3V21H27v-1.5h1.5v3H30v-3h-1.5V18H27v1.5h-1.5V21h-3v1.5H21V21h-1.5v-1.5H21V18h1.5v1.5H24V18h1.5v-1.5H27V15h-1.5v1.5H24V15h-3v-1.5h4.5V12H27v1.5h1.5V12H27v-1.5h-1.5V12h-3v-1.5H24V9h1.5V7.5H27V6h1.5V4.5H27V6h-1.5v1.5H24V6h-1.5V4.5h3V3h-3v1.5h-3V3H21V1.5h-1.5V0H18v1.5h-1.5V0H15zm4.5 4.5V6H18V4.5h1.5zM19.09 9h.41V7.5H21V6h1.5v1.5H24V9h-3v1.5h-1.181a.932.932 0 01-.086.102l-5.453 5.623a.908.908 0 01-.643.275.884.884 0 01-.644-.275l-2.726-2.812A.941.941 0 0110 12.75a.963.963 0 01.267-.664.907.907 0 01.643-.274.885.885 0 01.643.274l2.083 2.15L17.26 10.5h-.76V9h2.59zM21 13.5h-1.5V12H21v1.5zm-3 3h1.5V15H21v3h-3v-1.5zm0 0h-1.5V15H18v1.5zm6 0V18h-1.5v-1.5H24zM19.5 21v1.5H18V21h1.5zm4.5 4.5V27h-1.5v1.5H21V27h-1.5v-3H21v1.5h3zm-7.5 0H18V24h-1.5v1.5zM24 0h-1.5v1.5H24V0zm4.5 9H30v1.5h-1.5V9zm0 6H30v1.5h-1.5V15z" clip-rule="evenodd"/></g><defs><clipPath id="a"><path fill="#fff" d="M0 0h30v30H0z"/></clipPath></defs></svg>