<svg xmlns="http://www.w3.org/2000/svg" fill="none" viewBox="0 0 21 20"><path fill="#F49D37" fill-rule="evenodd" d="M10 0c-.884 0-1.753.146-2.575.426A5.354 5.354 0 0110 2.749V0zm.012 20H10V7.917a5.332 5.332 0 01-7.782 1.746c1.189 4.946 6.842 9.845 7.13 10.096l.002.001A1 1 0 0010 20h.012z" clip-rule="evenodd"/><path fill="#F49D37" fill-rule="evenodd" d="M10.667 5.333A5.333 5.333 0 110 5.333a5.333 5.333 0 0110.667 0zm-5.946-4h1.225v2.015H8.19v1.225H5.946v1.756l1.244.447V8l-1.244-.447v1.78H4.72v-2.22l-1.245-.446V5.442l1.245.447V4.573H2.476V3.348h2.245V1.333z" clip-rule="evenodd"/><path fill="#F49D37" d="M10.011 0h1v1h-1zm2 0h1v1h-1zm3 0h1v1h-1zm2 0h1v1h-1zm-7 1h1v1h-1zm1 0h1v1h-1zm1 0h1v1h-1zm1 0h1v1h-1zm6 0h1v1h-1zm-9 1h1v1h-1zm1 0h1v1h-1zm1 0h1v1h-1zm3 0h1v1h-1zm1 0h1v1h-1zm-6 1h1v1h-1zm1 0h1v1h-1zm2 0h1v1h-1zm1 0h1v1h-1zm4 0h1v1h-1zm-8 1h1v1h-1zm1 0h1v1h-1zm1 0h1v1h-1zm1 0h1v1h-1zm2 0h1v1h-1zm2 0h1v1h-1zm-7 1h1v1h-1zm1 0h1v1h-1zm1 0h1v1h-1zm4 0h1v1h-1zm-6 1h1v1h-1zm4 0h1v1h-1zm1 0h1v1h-1zm4 0h1v1h-1zm-9 1h1v1h-1zm1 0h1v1h-1zm1 0h1v1h-1zm1 0h1v1h-1zm1 0h1v1h-1zm3 0h1v1h-1zm-7 1h1v1h-1zm1 0h1v1h-1zm1 0h1v1h-1zm2 0h1v1h-1zm1 0h1v1h-1zm1 0h1v1h-1zm2 0h1v1h-1zm-8 1h1v1h-1zm1 0h1v1h-1zm1 0h1v1h-1zm1 0h1v1h-1zm-3 1h1v1h-1zm2 0h1v1h-1zm2 0h1v1h-1zm1 0h1v1h-1zm2 0h1v1h-1zm2 0h1v1h-1zm-9 1h1v1h-1zm1 0h1v1h-1zm3 0h1v1h-1zm2 0h1v1h-1zm-6 1h1v1h-1zm1 0h1v1h-1zm1 0h1v1h-1zm1 0h1v1h-1zm2 0h1v1h-1zm3 0h1v1h-1zm-8 1h1v1h-1zm1 0h1v1h-1zm1 0h1v1h-1zm5 0h1v1h-1zm2 0h1v1h-1zm-9 1h1v1h-1zm1 0h1v1h-1zm2 0h1v1h-1zm2 0h1v1h-1zm1 0h1v1h-1zm3 0h1v1h-1zm-9 1h1v1h-1zm1 0h1v1h-1zm1 0h1v1h-1zm1 0h1v1h-1zm1 0h1v1h-1zm-4 1h1v1h-1zm2 0h1v1h-1zm2 0h1v1h-1zm1 0h1v1h-1zm2 0h1v1h-1zm-7 1h1v1h-1zm1 0h1v1h-1zm1 0h1v1h-1zm4 0h1v1h-1zm2 0h1v1h-1zm-8 1h1v1h-1zm1 0h1v1h-1zm1 0h1v1h-1zm1 0h1v1h-1zm2 0h1v1h-1zm2 1h1v1h-1zm-7 0h1v1h-1zm1 0h1v1h-1zm3 0h1v1h-1zm5-1h1v1h-1z"/></svg>