<svg xmlns="http://www.w3.org/2000/svg" fill="none" viewBox="0 0 20 20"><path fill="#F49D37" fill-rule="evenodd" d="M10 11.53V8.47l-5.358 5.357 1.531 1.53L10 11.531zm0-6.121V2.348L7.705 4.644l1.53 1.53L10 5.41zM14.103.022h.977a5.422 5.422 0 00-.977 0zM10 14.592v3.06l-.765.766A5.396 5.396 0 015.408 20a5.393 5.393 0 01-3.826-1.582 5.418 5.418 0 010-7.653l3.062-3.06 1.53 1.53-3.061 3.06a3.252 3.252 0 000 4.592 3.254 3.254 0 004.592 0L10 14.591z" clip-rule="evenodd"/><path fill="#F49D37" d="M10 0h1v1h-1zm2 0h1v1h-1zm3 0h1v1h-1zm2 0h1v1h-1zm-6 1h1v1h-1zm1 0h1v1h-1zm1 0h1v1h-1zm6 0h1v1h-1zm-9 1h1v1h-1zm1 0h1v1h-1zm1 0h1v1h-1zm3 0h1v1h-1zm1 0h1v1h-1zm-6 1h1v1h-1zm1 0h1v1h-1zm2 0h1v1h-1zm-1 1h1v1h-1zm-1 1h1v1h-1zm3-2h1v1h-1zm4 0h1v1h-1zm-8 1h1v1h-1zm4-2h1v1h-1zm-1 0h1v1h-1zm2 2h1v1h-1zm2 0h1v1h-1zm-3 0h1v1h-1zm-1 1h1v1h-1zm-1 1h1v1h-1zm4-1h1v1h-1zm-1 0h1v1h-1zm-2 1h1v1h-1zm2 0h1v1h-1zm4 0h1v1h-1zm-8 1h1v1h-1zm1 0h1v1h-1zm1 0h1v1h-1zm1-6h1v1h-1zm3 6h1v1h-1zm-3 0h1v1h-1zm-4 1h1v1h-1zm1 0h1v1h-1zm1 0h1v1h-1zm3 1h1v1h-1zm0-1h1v1h-1zm1 0h1v1h-1zm2 0h1v1h-1zm-8 1h1v1h-1zm1 0h1v1h-1zm1 0h1v1h-1zm-2 1h1v1h-1zm3 1h1v1h-1zm1-1h1v1h-1zm1 0h1v1h-1zm2 0h1v1h-1zm2 0h1v1h-1zm-5 1h1v1h-1zm2 0h1v1h-1zm-4 1h1v1h-1zm1 0h1v1h-1zm2 0h1v1h-1zm3 0h1v1h-1zm-7 1h1v1h-1zm1 0h1v1h-1zm5 0h1v1h-1zm2 0h1v1h-1zm-9 1h1v1h-1zm1 0h1v1h-1zm2 0h1v1h-1zm2 0h1v1h-1zm1 0h1v1h-1zm3 0h1v1h-1zm-9 1h1v1h-1zm1 0h1v1h-1zm1 0h1v1h-1zm1 0h1v1h-1zm1 0h1v1h-1zm-4 1h1v1h-1zm2 0h1v1h-1zm2 0h1v1h-1zm1 0h1v1h-1zm2 0h1v1h-1zm-5 1h1v1h-1zm4 0h1v1h-1zm2 0h1v1h-1zm-7 1h1v1h-1zm1 0h1v1h-1zm1 0h1v1h-1zm2 0h1v1h-1zm2 1h1v1h-1zm-7 0h1v1h-1zm1 0h1v1h-1zm3 0h1v1h-1zm0-11h1v1h-1z"/></svg>