<svg xmlns="http://www.w3.org/2000/svg" fill="none" viewBox="0 0 40 40"><path fill="#F49D37" fill-rule="evenodd" d="M0 15h15V0H0v15zm30 2.5V20h5v-2.5h-5zm0 5h2.5V25H30v-2.5zm0 5V30h-2.5v2.5h-5V35H30v-5h2.5v5H35v-2.5h5V30h-7.5v-2.5H30zM20 30h-2.5v10H30v-2.5H20V30zm-5 0v-5H0v15h15V30zm0-7.5V20H7.5v-2.5H0v5h2.5V20H5v2.5h10zM30 15v-2.5h7.5v-10H30V0h10v15H30zm0-10v5h5V5h-5zM2.5 2.5h10v10h-10v-10zM10 5H5v5h5V5zM5 30v5h5v-5H5zm-2.5-2.5v10h10v-10h-10zm37.5-5h-2.5v-5H40v5zm-2.5 0V25H40v2.5h-5v-5h2.5zM40 40h-7.5v-2.5h5V35H40v5z" clip-rule="evenodd"/><path fill="#F49D37" d="M20 0h2v2h-2zm4 0h2v2h-2zm6 0h2v2h-2zm4 0h2v2h-2zM20 2h2v2h-2zm2 0h2v2h-2zm2 0h2v2h-2zm2 0h2v2h-2zm12 0h2v2h-2zM20 4h2v2h-2zm2 0h2v2h-2zm2 0h2v2h-2zm6 0h2v2h-2zm2 0h2v2h-2zM20 6h2v2h-2zm2 0h2v2h-2zm4 0h2v2h-2zm2 0h2v2h-2zm8 0h2v2h-2zM20 8h2v2h-2zm2 0h2v2h-2zm2 0h2v2h-2zm2 0h2v2h-2zm4 0h2v2h-2zm4 0h2v2h-2zm-14 2h2v2h-2zm2 0h2v2h-2zm2 0h2v2h-2zm8 0h2v2h-2zm-12 2h2v2h-2zm8 0h2v2h-2zm2 0h2v2h-2zm8 0h2v2h-2zm-18 2h2v2h-2zm2 0h2v2h-2zm2 0h2v2h-2zm2 0h2v2h-2zm2 0h2v2h-2zm6 0h2v2h-2zm-14 2h2v2h-2zm2 0h2v2h-2zm2 0h2v2h-2zm4 0h2v2h-2zm2 0h2v2h-2zm2 0h2v2h-2zm4 0h2v2h-2zm-16 2h2v2h-2zm2 0h2v2h-2zm2 0h2v2h-2zm2 0h2v2h-2zm-6 2h2v2h-2zm4 0h2v2h-2zm4 0h2v2h-2zm2 0h2v2h-2zm4 0h2v2h-2zm4 0h2v2h-2zm-18 2h2v2h-2zm2 0h2v2h-2zm6 0h2v2h-2zm4 0h2v2h-2zm-12 2h2v2h-2zm2 0h2v2h-2zm2 0h2v2h-2zm2 0h2v2h-2zm4 0h2v2h-2zm6 0h2v2h-2zm-16 2h2v2h-2zm2 0h2v2h-2zm2 0h2v2h-2zm10 0h2v2h-2zm4 0h2v2h-2zm-18 2h2v2h-2zm2 0h2v2h-2zm4 0h2v2h-2zm4 0h2v2h-2zm2 0h2v2h-2zm6 0h2v2h-2zm-18 2h2v2h-2zm2 0h2v2h-2zm2 0h2v2h-2zm2 0h2v2h-2zm2 0h2v2h-2zm-8 2h2v2h-2zm4 0h2v2h-2zm4 0h2v2h-2zm2 0h2v2h-2zm4 0h2v2h-2zm-14 2h2v2h-2zm2 0h2v2h-2zm2 0h2v2h-2zm8 0h2v2h-2zm4 0h2v2h-2zm-16 2h2v2h-2zm2 0h2v2h-2zm2 0h2v2h-2zm2 0h2v2h-2zm4 0h2v2h-2zm4 2h2v2h-2zm-14 0h2v2h-2zm2 0h2v2h-2zm6 0h2v2h-2zm10-2h2v2h-2z"/></svg>