<svg xmlns="http://www.w3.org/2000/svg" fill="none" viewBox="0 0 30 30"><path fill="#fff" fill-rule="evenodd" d="M14.945 4.05c.019.026.037.054.055.081v3.066l-.993 3.055a.25.25 0 00.237.327H15V10.5h7.5V12h3v1.5H21V12h-1.5v1.5H21V15h-1.5v1.5H18V15h-1.5v1.5H18V18h3v1.5h-1.5V21H18v1.5h1.5V21H21v1.5h1.5V24H24v1.5h-3V24h-1.5v3H8a1.5 1.5 0 01-1.5-1.5V11.018a3 3 0 01.768-2.004L12.667 3h.277c.39 0 .776.095 1.124.278.348.182.648.447.877.771zM18 25.5V24h-1.5v1.5H18z" clip-rule="evenodd"/><path fill="#fff" d="M25.5 25.5V27H24v-1.5h1.5zm1.5 0h-1.5V24H27v1.5zm0 0h1.5V27H27v-1.5zM25.5 21v1.5h-3V21h3zm1.5-1.5V21h-1.5v-1.5H27zm1.5 0H27V18h1.5v1.5zm0 0H30v3h-1.5v-3zm-6-1.5H21v-3h3v1.5h-1.5V18zm1.5 0v1.5h-1.5V18H24zm1.5-1.5V18H24v-1.5h1.5zm0 0V15H27v1.5h-1.5zM27 12h-1.5v-1.5H27V12zm0 0h1.5v1.5H27V12zM4 27H2.667a2.736 2.736 0 01-1.886-.744A2.478 2.478 0 010 24.462V13.039c0-.674.281-1.32.781-1.796a2.736 2.736 0 011.886-.743H4V27zm24.5-12H30v1.5h-1.5V15z"/></svg>