<svg viewBox="0 0 20 20" fill="none" xmlns="http://www.w3.org/2000/svg"><path fill="#F49D37" d="M10 0h1v1h-1zm2 0h1v1h-1zm3 0h1v1h-1zm2 0h1v1h-1zm-7 1h1v1h-1zm1 0h1v1h-1zm1 0h1v1h-1zm1 0h1v1h-1zm6 0h1v1h-1zm-9 1h1v1h-1zm1 0h1v1h-1zm1 0h1v1h-1zm3 0h1v1h-1zm1 0h1v1h-1zm-6 1h1v1h-1zm1 0h1v1h-1zm2 0h1v1h-1zm1 0h1v1h-1zm4 0h1v1h-1zm-6 1h1v1h-1zm1 0h1v1h-1zm2 0h1v1h-1zm2 0h1v1h-1zm-7 1h1v1h-1zm1 0h1v1h-1zm1 0h1v1h-1zm4 0h1v1h-1zm-2 1h1v1h-1zm1 0h1v1h-1zm4 0h1v1h-1zm-6 1h1v1h-1zm1 0h1v1h-1zm3 0h1v1h-1zm-3 1h1v1h-1zm1 0h1v1h-1zm1 0h1v1h-1zm2 0h1v1h-1zm-5 1h1v1h-1zm1 1h1v1h-1zm1 0h1v1h-1zm2 0h1v1h-1zm2 0h1v1h-1zm-5 1h1v1h-1zm2 0h1v1h-1zm-3 1h1v1h-1zm2 0h1v1h-1zm3 0h1v1h-1zm-1 1h1v1h-1zm2 0h1v1h-1zm-6 1h1v1h-1zm2 0h1v1h-1zm1 0h1v1h-1zm3 0h1v1h-1zm-6 1h1v1h-1zm1 0h1v1h-1zm-4 1h1v1h-1zm2 0h1v1h-1zm2 0h1v1h-1zm1 0h1v1h-1zm2 0h1v1h-1zm-7 1h1v1h-1zm1 0h1v1h-1zm1 0h1v1h-1zm4 0h1v1h-1zm2 0h1v1h-1zm-8 1h1v1h-1zm1 0h1v1h-1zm1 0h1v1h-1zm1 0h1v1h-1zm2 0h1v1h-1zm2 1h1v1h-1zm-7 0h1v1h-1zm1 0h1v1h-1zm3 0h1v1h-1zm5-1h1v1h-1z"/><path fill-rule="evenodd" clip-rule="evenodd" d="M10 0H2.222C1.632 0 1.068.237.651.659A2.263 2.263 0 000 2.25v15.5c0 .597.234 1.169.65 1.591.418.422.983.659 1.572.659H10v-2.25H3.333a1.121 1.121 0 01-1.11-1.125V4.5H10V0zM3.716 2.167a.833.833 0 11-1.667 0 .833.833 0 011.667 0zm2.788 0a.833.833 0 11-1.667 0 .833.833 0 011.667 0zM8.459 3a.833.833 0 100-1.667.833.833 0 000 1.667z" fill="#F49D37"/></svg>