<svg xmlns="http://www.w3.org/2000/svg" fill="none" viewBox="0 0 20 20"><g fill="#F49D37" clip-path="url(#a)"><path fill-rule="evenodd" d="M20 5.104v9.953c.004-.154.005-.308.005-.461l-.001-4.746c0-1.582 0-3.164-.002-4.747H20zM10 19.999H5.601a14.3 14.3 0 01-1.387-.051 5.216 5.216 0 01-1.077-.19C1.89 19.385.982 18.608.44 17.426c-.287-.625-.374-1.299-.417-1.98l-.02-.351V4.908c0-.013.002-.026.004-.039a8.224 8.224 0 01.087-1.022c.059-.404.14-.8.303-1.175C.867 1.565 1.67.797 2.784.357 3.37.123 3.99.058 4.61.023 4.737.016 4.864.01 4.991 0H10v3.88c-.507.1-1.011.202-1.517.304l-.264.053-.192.04c-.152.03-.304.061-.453.1-.227.056-.397.193-.455.43a1.428 1.428 0 00-.036.31v7.526c-.016.326-.183.528-.501.596l-.717.146a5.041 5.041 0 00-.924.257 1.558 1.558 0 00-.96 1.732c.136.784.8 1.315 1.598 1.285a3.64 3.64 0 00.899-.143c.553-.16.963-.495 1.194-1.028.14-.325.179-.67.179-1.022.002-1.084.002-2.168.002-3.252l.001-3.252v-.036c-.001-.024-.002-.048 0-.072.01-.24.091-.345.323-.41.009 0 .019-.003.029-.006a.228.228 0 01.013-.004L10 7.075V20z" clip-rule="evenodd"/><path d="M10 0h1v1h-1zm2 0h1v1h-1zm3 0h1v1h-1zm2 0h1v1h-1zm-7 1h1v1h-1zm1 0h1v1h-1zm1 0h1v1h-1zm1 0h1v1h-1zm6 0h1v1h-1zm-9 1h1v1h-1zm1 0h1v1h-1zm1 0h1v1h-1zm3 0h1v1h-1zm1 0h1v1h-1zm-6 1h1v1h-1zm1 0h1v1h-1zm2 0h1v1h-1zm1 0h1v1h-1zm4 0h1v1h-1zm-6 1h1v1h-1zm1 0h1v1h-1zm2 0h1v1h-1zm2 0h1v1h-1zm-5 1h1v1h-1zm4 0h1v1h-1zm-2 1h1v1h-1zm1 0h1v1h-1zm4 0h1v1h-1zm-9 1h1v1h-1zm1 0h1v1h-1zm1 0h1v1h-1zm1 0h1v1h-1zm1 0h1v1h-1zm3 0h1v1h-1zm-7 1h1v1h-1zm1 0h1v1h-1zm1 0h1v1h-1zm2 0h1v1h-1zm1 0h1v1h-1zm1 0h1v1h-1zm2 0h1v1h-1zm-8 1h1v1h-1zm1 0h1v1h-1zm1 0h1v1h-1zm1 0h1v1h-1zm-3 1h1v1h-1zm2 0h1v1h-1zm2 0h1v1h-1zm1 0h1v1h-1zm2 0h1v1h-1zm2 0h1v1h-1zm-9 1h1v1h-1zm1 0h1v1h-1zm3 0h1v1h-1zm2 0h1v1h-1zm-6 1h1v1h-1zm1 0h1v1h-1zm1 0h1v1h-1zm1 0h1v1h-1zm2 0h1v1h-1zm3 0h1v1h-1zm-8 1h1v1h-1zm1 0h1v1h-1zm1 0h1v1h-1zm5 0h1v1h-1zm2 0h1v1h-1zm-9 1h1v1h-1zm1 0h1v1h-1zm2 0h1v1h-1zm2 0h1v1h-1zm1 0h1v1h-1zm3 0h1v1h-1zm-9 1h1v1h-1zm1 0h1v1h-1zm1 0h1v1h-1zm1 0h1v1h-1zm1 0h1v1h-1zm-4 1h1v1h-1zm2 0h1v1h-1zm2 0h1v1h-1zm1 0h1v1h-1zm2 0h1v1h-1zm-7 1h1v1h-1zm1 0h1v1h-1zm1 0h1v1h-1zm4 0h1v1h-1zm2 0h1v1h-1zm-8 1h1v1h-1zm1 0h1v1h-1zm1 0h1v1h-1zm1 0h1v1h-1zm2 0h1v1h-1zm2 1h1v1h-1zm-7 0h1v1h-1zm1 0h1v1h-1zm3 0h1v1h-1zm5-1h1v1h-1z"/></g><defs><clipPath id="a"><path fill="#fff" d="M0 0h20v20H0z"/></clipPath></defs></svg>