<svg xmlns="http://www.w3.org/2000/svg" fill="none" viewBox="0 0 20 20"><path fill="#F49D37" d="M10 0h1v1h-1zm2 0h1v1h-1zm3 0h1v1h-1zm2 0h1v1h-1zm-7 1h1v1h-1zm1 0h1v1h-1zm1 0h1v1h-1zm1 0h1v1h-1zm6 0h1v1h-1zm-9 1h1v1h-1zm1 0h1v1h-1zm1 0h1v1h-1zm3 0h1v1h-1zm1 0h1v1h-1zm-6 1h1v1h-1zm1 0h1v1h-1zm2 0h1v1h-1zm1 0h1v1h-1zm4 0h1v1h-1zm-8 1h1v1h-1zm1 0h1v1h-1zm1 0h1v1h-1zm1 0h1v1h-1zm2 0h1v1h-1zm2 0h1v1h-1zm-7 1h1v1h-1zm1 0h1v1h-1zm1 0h1v1h-1zm4 0h1v1h-1zm-2 1h1v1h-1zm1 0h1v1h-1zm4 0h1v1h-1zm-9 0h1v1h-1zm2 1h1v1h-1zm1 0h1v1h-1zm1 0h1v1h-1zm3 0h1v1h-1zm-7 1h1v1h-1zm1-2h1v1h-1zm1 2h1v1h-1zm2 0h1v1h-1zm1 0h1v1h-1zm1 0h1v1h-1zm2 0h1v1h-1zm-8 1h1v1h-1zm1 0h1v1h-1zm1 0h1v1h-1zm1 0h1v1h-1zm-3 1h1v1h-1zm2 0h1v1h-1zm2 0h1v1h-1zm1 0h1v1h-1zm2 0h1v1h-1zm2 0h1v1h-1zm-9 1h1v1h-1zm1 0h1v1h-1zm3 0h1v1h-1zm2 0h1v1h-1zm-6 1h1v1h-1zm1 0h1v1h-1zm1 0h1v1h-1zm1 0h1v1h-1zm2 0h1v1h-1zm3 0h1v1h-1zm-8 1h1v1h-1zm1 0h1v1h-1zm1 0h1v1h-1zm5 0h1v1h-1zm2 0h1v1h-1zm-6 1h1v1h-1zm2 0h1v1h-1zm1 0h1v1h-1zm3 0h1v1h-1zm-8 0h1v1h-1zm1 2h1v1h-1zm1-1h1v1h-1zm1 0h1v1h-1zm-4-1h1v1h-1zm1 2h1v1h-1zm3 0h1v1h-1zm1 0h1v1h-1zm2 0h1v1h-1zm-7 1h1v1h-1zm1 0h1v1h-1zm1 0h1v1h-1zm4 0h1v1h-1zm2 0h1v1h-1zm-8 1h1v1h-1zm1 0h1v1h-1zm1 0h1v1h-1zm1 0h1v1h-1zm2 0h1v1h-1zm2 1h1v1h-1zm-7 0h1v1h-1zm1 0h1v1h-1zm3 0h1v1h-1zm5-1h1v1h-1z"/><path fill="#F49D37" fill-rule="evenodd" d="M7 0L5.17 2H2C.9 2 0 2.9 0 4v14c0 1.1.9 2 2 2h8v-3c-2.76 0-5-2.24-5-5s2.24-5 5-5V0H7zm3 8.8a3.2 3.2 0 000 6.4V8.8z" clip-rule="evenodd"/></svg>