<svg width="30" height="30" fill="none" xmlns="http://www.w3.org/2000/svg"><path fill-rule="evenodd" clip-rule="evenodd" d="M11.25 11.25V0H0v11.25h11.25zM1.875 1.875h7.5v7.5h-7.5v-7.5zM7.5 3.75H3.75V7.5H7.5V3.75zM3.75 22.5v3.75H7.5V22.5H3.75zm7.5-3.75V30H0V18.75h11.25zm-9.375 1.875v7.5h7.5v-7.5h-7.5zm11.25-18.75H15V7.5h-1.875V1.875zM15 11.25h-1.875v1.875H11.25V15H5.625v-1.875H0v3.75h1.875V15H3.75v1.875h7.5V15h1.875v1.875H15V11.25zm0 7.5h-1.875v1.875H15V18.75zm0 3.75h-1.875V30H15v-7.5z" fill="#fff"/><path fill="#fff" d="M15 0h1.5v1.5H15zm3 0h1.5v1.5H18zm4.5 0H24v1.5h-1.5zm3 0H27v1.5h-1.5zM15 1.5h1.5V3H15zm1.5 0H18V3h-1.5zm1.5 0h1.5V3H18zm1.5 0H21V3h-1.5zm9 0H30V3h-1.5zM15 3h1.5v1.5H15zm1.5 0H18v1.5h-1.5zM18 3h1.5v1.5H18zm4.5 0H24v1.5h-1.5zM24 3h1.5v1.5H24zm-9 1.5h1.5V6H15zm1.5 0H18V6h-1.5zm3 0H21V6h-1.5zm1.5 0h1.5V6H21zm6 0h1.5V6H27zM15 6h1.5v1.5H15zm1.5 0H18v1.5h-1.5zM18 6h1.5v1.5H18zm1.5 0H21v1.5h-1.5zm3 0H24v1.5h-1.5zm3 0H27v1.5h-1.5zM15 7.5h1.5V9H15zm1.5 0H18V9h-1.5zm1.5 0h1.5V9H18zm6 0h1.5V9H24zM15 9h1.5v1.5H15zm6 0h1.5v1.5H21zm1.5 0H24v1.5h-1.5zm6 0H30v1.5h-1.5zM15 10.5h1.5V12H15zm1.5 0H18V12h-1.5zm1.5 0h1.5V12H18zm1.5 0H21V12h-1.5zm1.5 0h1.5V12H21zm4.5 0H27V12h-1.5zM15 12h1.5v1.5H15zm1.5 0H18v1.5h-1.5zm1.5 0h1.5v1.5H18zm3 0h1.5v1.5H21zm1.5 0H24v1.5h-1.5zm1.5 0h1.5v1.5H24zm3 0h1.5v1.5H27zm-12 1.5h1.5V15H15zm1.5 0H18V15h-1.5zm1.5 0h1.5V15H18zm1.5 0H21V15h-1.5zM15 15h1.5v1.5H15zm3 0h1.5v1.5H18zm3 0h1.5v1.5H21zm1.5 0H24v1.5h-1.5zm3 0H27v1.5h-1.5zm3 0H30v1.5h-1.5zM15 16.5h1.5V18H15zm1.5 0H18V18h-1.5zm4.5 0h1.5V18H21zm3 0h1.5V18H24zM15 18h1.5v1.5H15zm1.5 0H18v1.5h-1.5zm1.5 0h1.5v1.5H18zm1.5 0H21v1.5h-1.5zm3 0H24v1.5h-1.5zm4.5 0h1.5v1.5H27zm-12 1.5h1.5V21H15zm1.5 0H18V21h-1.5zm1.5 0h1.5V21H18zm7.5 0H27V21h-1.5zm3 0H30V21h-1.5zM15 21h1.5v1.5H15zm1.5 0H18v1.5h-1.5zm3 0H21v1.5h-1.5zm3 0H24v1.5h-1.5zm1.5 0h1.5v1.5H24zm4.5 0H30v1.5h-1.5zM15 22.5h1.5V24H15zm1.5 0H18V24h-1.5zm1.5 0h1.5V24H18zm1.5 0H21V24h-1.5zm1.5 0h1.5V24H21zM15 24h1.5v1.5H15zm3 0h1.5v1.5H18zm3 0h1.5v1.5H21zm1.5 0H24v1.5h-1.5zm3 0H27v1.5h-1.5zM15 25.5h1.5V27H15zm1.5 0H18V27h-1.5zm1.5 0h1.5V27H18zm6 0h1.5V27H24zm3 0h1.5V27H27zM15 27h1.5v1.5H15zm1.5 0H18v1.5h-1.5zm1.5 0h1.5v1.5H18zm1.5 0H21v1.5h-1.5zm3 0H24v1.5h-1.5zm3 1.5H27V30h-1.5zm-10.5 0h1.5V30H15zm1.5 0H18V30h-1.5zm4.5 0h1.5V30H21zm7.5-1.5H30v1.5h-1.5z"/></svg>