<svg xmlns="http://www.w3.org/2000/svg" fill="none" viewBox="0 0 290 300"><g clip-path="url(#a)"><circle cx="145" cy="150" r="135" fill="#E9E9F1"/><path fill="#5F3381" d="M2.672 97.402c9.724-4.183 14.37 25.633 14.996 27.954.625 2.322 2.278 2.599 5.105-.88 2.827-3.479 5.265-2.132 5.265-2.132 5.32 3.161-1.896 21.558-1.827 23.054.07 1.496-1.07 3.649 4.46.603 5.528-3.046 10.168-4.671 10.974 0 .736 4.25-4.91 16.522-4.862 18.275.048 1.753 5.758-2.653 8.161-4.115 3.112-1.882 6.432-1.753 7.015 2.03.758 4.962-9.363 19.474-9.363 19.474l-4.862 7.391-8.883-2.335s-17.365-4.779-20.08-9.029c-2.085-3.27.34-5.47 3.951-6.011 2.779-.413 10.051-.677 8.947-2.031-1.105-1.353-13.58-7.086-15.865-10.782-2.5-4.061 2.084-5.767 8.335-6.958 6.252-1.192 3.939-2.105 2.987-3.283S-1.579 138.041.36 132.267c0 0 .951-2.559 5.418-1.712 4.466.846 5.556-.407 4.459-2.573-1.098-2.166-17.406-27.751-7.252-30.743"/><path fill="#fff" d="M42.895 202.897c-.188.068-8.488-21.599-18.532-48.389C14.32 127.718 6.304 105.943 6.5 105.875c.194-.068 8.488 21.599 18.538 48.396s18.046 48.559 17.858 48.626z"/><path fill="#fff" d="M19.82 141.39c-.181-.068.562-2.511 1.882-5.361 1.32-2.849 2.68-5.029 2.854-4.934.174.095-.896 2.382-2.194 5.218-1.3 2.837-2.327 5.138-2.542 5.077zm-11.955-4.9c.042-.183 2.862.358 6.127 1.651 3.264 1.293 5.695 2.796 5.598 2.951-.097.156-2.64-1.035-5.862-2.301-3.223-1.266-5.918-2.105-5.863-2.301zm19.231 24.664c-.153-.129 1.924-2.707 4.64-5.828 2.716-3.12 5.036-5.489 5.188-5.367.153.121-1.924 2.707-4.64 5.827-2.715 3.121-5.035 5.497-5.188 5.368z"/><path fill="#fff" d="M10.997 157.981c0-.182 3.8.122 8.377 1.002 4.577.88 8.196 1.977 8.147 2.159-.048.183-3.73-.602-8.286-1.468-4.557-.867-8.287-1.489-8.238-1.693zm4.97 18.94c0-.197 3.987.209 8.842.906 4.855.698 8.765 1.415 8.73 1.605-.034.189-3.98-.217-8.835-.907-4.855-.691-8.765-1.415-8.737-1.604zm18.009 2.192c-.132-.17 2.556-2.275 5.348-5.361 2.792-3.087 4.633-5.923 4.813-5.814.181.108-1.389 3.147-4.271 6.281-2.883 3.134-5.793 5.043-5.89 4.894z"/><path fill="#85649F" d="M286.997 129.402c-9.724-4.183-14.371 25.633-14.996 27.954-.625 2.322-2.278 2.599-5.105-.88-2.827-3.479-5.265-2.132-5.265-2.132-5.321 3.161 1.896 21.558 1.826 23.054-.069 1.496 1.07 3.649-4.459.603-5.529-3.046-10.169-4.671-10.974 0-.737 4.25 4.91 16.522 4.862 18.275-.049 1.753-5.758-2.653-8.162-4.115-3.111-1.882-6.431-1.753-7.015 2.03-.757 4.962 9.363 19.474 9.363 19.474l4.862 7.391 8.884-2.335s17.365-4.779 20.08-9.029c2.084-3.27-.34-5.47-3.952-6.011-2.778-.413-10.05-.677-8.946-2.031 1.104-1.353 13.579-7.086 15.864-10.782 2.501-4.061-2.083-5.767-8.335-6.958-6.251-1.192-3.938-2.105-2.986-3.283.951-1.178 18.705-10.586 16.767-16.36 0 0-.952-2.559-5.418-1.712-4.466.846-5.557-.407-4.459-2.573 1.097-2.166 17.406-27.751 7.251-30.743"/><path fill="#fff" d="M246.774 234.897c.187.068 8.487-21.599 18.531-48.389 10.044-26.79 18.059-48.565 17.865-48.633-.195-.068-8.488 21.599-18.539 48.396-10.05 26.797-18.045 48.559-17.857 48.626z"/><path fill="#fff" d="M269.849 173.39c.181-.068-.562-2.511-1.882-5.361-1.32-2.849-2.681-5.029-2.855-4.934-.173.095.896 2.382 2.195 5.218 1.299 2.837 2.327 5.138 2.542 5.077zm11.954-4.9c-.041-.183-2.861.358-6.126 1.651-3.264 1.293-5.695 2.796-5.598 2.951.097.156 2.639-1.035 5.862-2.301 3.223-1.266 5.918-2.105 5.862-2.301zm-19.23 24.664c.153-.129-1.924-2.707-4.64-5.828-2.716-3.12-5.036-5.489-5.189-5.367-.152.121 1.924 2.707 4.64 5.827 2.716 3.121 5.036 5.497 5.189 5.368z"/><path fill="#fff" d="M278.672 189.981c0-.182-3.8.122-8.377 1.002-4.577.88-8.196 1.977-8.148 2.159.049.183 3.73-.602 8.287-1.468 4.556-.867 8.286-1.489 8.238-1.693zm-4.97 18.94c0-.197-3.987.209-8.842.906-4.855.698-8.766 1.415-8.731 1.605.035.189 3.98-.217 8.835-.907 4.855-.691 8.766-1.415 8.738-1.604zm-18.009 2.192c.132-.17-2.556-2.275-5.348-5.361-2.792-3.087-4.633-5.923-4.814-5.814-.18.108 1.389 3.147 4.272 6.281s5.793 5.043 5.89 4.894z"/><path fill="#A2A8B5" d="M244.328 10.402c-9.724-4.183-14.371 25.633-14.996 27.954-.625 2.322-2.278 2.6-5.105-.88-2.827-3.479-5.265-2.132-5.265-2.132-5.321 3.161 1.896 21.558 1.827 23.054-.07 1.496 1.069 3.649-4.46.603-5.528-3.046-10.168-4.67-10.974 0-.736 4.25 4.911 16.522 4.862 18.275-.048 1.753-5.758-2.653-8.161-4.115-3.112-1.882-6.432-1.753-7.016 2.03-.757 4.962 9.363 19.474 9.363 19.474l4.863 7.391 8.883-2.335s17.365-4.779 20.081-9.03c2.084-3.269-.341-5.469-3.952-6.01-2.779-.413-10.051-.677-8.947-2.03 1.105-1.354 13.579-7.087 15.865-10.783 2.5-4.061-2.084-5.767-8.335-6.958-6.252-1.192-3.939-2.105-2.987-3.283.951-1.178 18.705-10.586 16.767-16.36 0 0-.951-2.559-5.418-1.712-4.466.846-5.556-.407-4.459-2.572 1.098-2.166 17.406-27.752 7.252-30.744"/><path fill="#fff" d="M204.105 115.897c.187.068 8.488-21.599 18.531-48.389 10.044-26.79 18.06-48.565 17.865-48.633-.194-.067-8.488 21.599-18.538 48.396-10.051 26.797-18.046 48.559-17.858 48.626z"/><path fill="#fff" d="M227.181 54.39c.18-.068-.563-2.511-1.883-5.36-1.32-2.85-2.681-5.03-2.855-4.935-.173.095.896 2.382 2.195 5.218 1.299 2.837 2.327 5.138 2.543 5.077zm11.954-4.9c-.042-.183-2.862.358-6.127 1.651-3.264 1.293-5.695 2.796-5.598 2.951.097.156 2.639-1.035 5.862-2.301 3.223-1.266 5.918-2.105 5.863-2.301zm-19.231 24.664c.153-.129-1.924-2.707-4.64-5.828-2.716-3.12-5.036-5.49-5.188-5.367-.153.121 1.924 2.707 4.639 5.827 2.716 3.12 5.036 5.497 5.189 5.368z"/><path fill="#fff" d="M236.003 70.981c0-.182-3.799.122-8.377 1.002-4.577.88-8.196 1.977-8.147 2.16.048.182 3.73-.603 8.286-1.47 4.557-.866 8.287-1.488 8.238-1.692zm-4.97 18.939c0-.196-3.987.21-8.842.907-4.855.698-8.765 1.415-8.731 1.605.035.19 3.98-.217 8.835-.907 4.856-.69 8.766-1.415 8.738-1.605zm-18.009 2.193c.132-.17-2.556-2.275-5.348-5.361-2.792-3.087-4.633-5.923-4.813-5.814-.181.108 1.389 3.147 4.271 6.28 2.883 3.135 5.793 5.044 5.89 4.895z"/><path fill="#85649F" d="M129.307 15c-34.285 0-62.21 27.937-62.21 62.512H50c-5.523 0-10 4.478-10 10v187.176c0 5.523 4.477 10 10 10h158.891c5.522 0 10-4.477 10-10V87.512c0-5.522-4.478-10-10-10h-17.097c0-34.575-27.925-62.512-62.487-62.512z"/><path fill="#CACDD7" d="M145.057 15c-34.285 0-62.21 27.937-62.21 62.512H65.75c-5.523 0-10 4.478-10 10v187.176c0 5.523 4.477 10 10 10h158.891c5.522 0 10-4.477 10-10V87.512c0-5.522-4.478-10-10-10h-17.097c0-34.575-27.925-62.512-62.487-62.512z"/><path fill="#85649F" d="M118 215a4 4 0 014-4h39a4 4 0 014 4v39a4 4 0 01-4 4h-39a4 4 0 01-4-4v-39z"/><path fill="#fff" d="M121 215a4 4 0 014-4h39a4 4 0 014 4v39a4 4 0 01-4 4h-39a4 4 0 01-4-4v-39z"/><path fill="#212736" d="M164.106 214.423h-38.667a.666.666 0 00-.666.667v38.667c0 .368.298.667.666.667h38.667a.667.667 0 00.667-.667V215.09a.667.667 0 00-.667-.667zm-.667 38.667h-37.333v-37.334h37.333v37.334z"/><path fill="#212736" d="M140.774 218.421h-12v12h12v-12zm-1.334 10.667h-9.333v-9.334h9.333v9.334z"/><path fill="#212736" d="M138.107 221.09h-6.666v6.666h6.666v-6.666zm-1.333 5.333h-4v-4h4v4zm24-8.002h-12v12h12v-12zm-1.333 10.667h-9.333v-9.334h9.333v9.334zm-18.667 9.333h-12v12h12v-12zm-1.334 10.667h-9.333v-9.334h9.333v9.334zm-6.666-17.334h-4v3.334h4v-3.334zm-1.334 2.001h-1.333v-.667h1.333v.667zm8-2.001h-5.333v3.334h5.333v-3.334zm-1.333 2.001h-2.667v-.667h2.667v.667zm-9.333 2.001h1.333v1.333h-1.333v-1.333zm2.667 0h1.333v1.333h-1.333v-1.333zm11.998-2.666h2.667v2.667h-2.667v-2.667z"/><path fill="#212736" d="M133.439 223.091h2.666v2.666h-2.666v-2.666zm24.667-2.001h-6.667v6.666h6.667v-6.666zm-1.334 5.333h-4v-4h4v4z"/><path fill="#212736" d="M153.44 223.091h2.666v2.666h-2.666v-2.666zm-15.334 17.999h-6.667v6.666h6.667v-6.666zm-1.334 5.333h-4v-4h4v4z"/><path fill="#212736" d="M133.439 243.09h2.666v2.667h-2.666v-2.667zm14.668-24.669h-6.667v4h6.667v-4zm-1.333 2.667h-4v-1.334h4v1.334zm-1.333 2.67h-4v5.333h4v-5.333zm-1.334 4h-1.333v-2.667h1.333v2.667zm1.999-4h2v1.333h-2v-1.333zm0 2.669h1.333v2.666h-1.333v-2.666zm-4.665 3.998h6v1.333h-6v-1.333zm-.668 2.001h1.333v5.333h-1.333v-5.333zm-6.666 3.333h5.333v1.333h-5.333v-1.333zm13.333 2h5.334v-5.333h-5.334v5.333zm1.334-4h2.666v2.667h-2.666v-2.667zm5.333 1.998h6.667v-4h-6.667v4zm1.334-2.666h4v1.333h-4v-1.333zm-1.334 3.336h6.667v1.333h-6.667v-1.333zm-10.001 5.331h-1.333v5.334h5.333v-4h3.333v-1.334h-6v-4.667h-1.333v2.001h-2v1.333h2v1.333zm2.667 4h-2.667v-2.666h2.667v2.666z"/><path fill="#212736" d="M147.44 239.093h7.334v1.333h-7.334v-1.333zm9.333 2.664h-4v1.334h2.667v7.333h5.333v-5.333h-4v-3.334zm2.667 7.334h-2.667v-2.667h2.667v2.667z"/><path fill="#212736" d="M157.44 239.093h1.333v4.666h-1.333v-4.666zm2 1.332h1.334v3.333h-1.334v-3.333zm-16.666 7.334h1.333v2.667h-1.333v-2.667zm2.666.665h4.667v1.333h-4.667v-1.333zm5.332-3.998h-1.333v3.333h3.333v2.667h1.334v-4h-3.334v-2zm1.335-.668h2v1.334h-2v-1.334z"/><g clip-path="url(#b)"><path fill="#85649F" d="M145.703 42.004c-14.633-.25-26.699 11.41-26.949 26.043-.142 8.297 3.556 15.754 9.444 20.713a7.041 7.041 0 011.257-.894l7.907-4.313a3.23 3.23 0 001.683-2.835v-3.24s-2.321-2.776-3.206-6.633a2.66 2.66 0 01-1.226-2.231v-3.546c0-.78.347-1.477.886-1.965v-5.126S134.446 50 145.249 50s9.75 7.977 9.75 7.977v5.126c.54.488.886 1.185.886 1.965v3.546c0 1.192-.8 2.195-1.886 2.53a19.482 19.482 0 01-2.632 5.304c-.291.41-.563.759-.801 1.03V80.8c0 1.223.691 2.342 1.785 2.888l8.467 4.233a7.05 7.05 0 011.39.932c5.71-4.762 9.399-11.882 9.536-19.9.252-14.633-11.407-26.7-26.041-26.95z"/></g><path fill="#fff" d="M96.75 116.5a6.5 6.5 0 016.5-6.5h83a6.5 6.5 0 110 13h-83a6.5 6.5 0 01-6.5-6.5zm20 22a6.5 6.5 0 016.5-6.5h43a6.5 6.5 0 110 13h-43a6.5 6.5 0 01-6.5-6.5z"/><path fill="#85649F" d="M222.977 208.936c-2.995 1.752-4.11 5.443-2.491 8.246l.065.113c1.615 2.798 5.343 3.655 8.337 1.913 9.795-5.697 10.746-6.274 25.347-14.832 8.198-4.806 11.248-14.917 6.816-22.594l-9.516-16.482c-2.912-5.043-8.515-7.986-14.641-7.691l-36.645 1.775-.384 2.278c-1.079 4.884 2.04 9.455 6.996 10.258l7.368 1.192-34.342 20.117c-2.993 1.752-4.107 5.443-2.489 8.244l.001.002c1.618 2.803 5.359 3.655 8.354 1.903l20.792-12.161c-2.893 1.782-3.947 5.402-2.354 8.161l.069.12c1.619 2.803 5.358 3.656 8.353 1.904l1.746-1.021c-2.996 1.752-4.111 5.443-2.492 8.248l.007.012c1.619 2.803 5.358 3.656 8.353 1.904l2.75-1.609z"/><path fill="#FFBE9D" d="M227.977 208.482c-2.995 1.752-4.11 5.443-2.491 8.246l.065.113c1.615 2.797 5.343 3.655 8.337 1.913 9.795-5.697 10.746-6.274 25.347-14.832 8.198-4.806 11.248-14.917 6.816-22.594l-9.516-16.482c-2.912-5.043-8.515-7.986-14.641-7.691l-36.645 1.775-.384 2.278c-1.079 4.884 2.04 9.455 6.996 10.258l7.368 1.191-34.342 20.117c-2.993 1.753-4.107 5.444-2.489 8.245l.001.002c1.618 2.803 5.359 3.655 8.354 1.903l20.792-12.161c-2.893 1.782-3.947 5.402-2.354 8.161l.069.12c1.619 2.803 5.358 3.656 8.353 1.904l1.746-1.021c-2.996 1.752-4.111 5.443-2.492 8.248l.007.011c1.619 2.804 5.358 3.657 8.353 1.905l2.75-1.609zM22.582 220c1.907.144 3.764.663 5.46 1.525a14.102 14.102 0 014.407 3.492 24.515 24.515 0 014.958 9.956c1.843 6.968.587 15.159-1.494 22.065-7.706-2.756-12.394-10.839-14.523-15.066-3.337-6.689-5.212-20.78 1.192-21.972zm24.388 45.554a11.63 11.63 0 01-1.865-5.87 11.601 11.601 0 011.404-5.991 15.876 15.876 0 014.112-4.717 16.332 16.332 0 015.66-2.808 6.953 6.953 0 015.705.325 5.06 5.06 0 011.644 2.117c.343.836.45 1.747.31 2.637a10.05 10.05 0 01-2.256 4.846c-3.798 4.924-8.406 9.012-14.714 9.461zm-8.008 6.841a28.175 28.175 0 00-9.906-8.714 29.01 29.01 0 00-12.895-3.348c-2.288 0-5.005.511-5.895 2.555-.89 2.043.604 4.351 2.256 5.899a24.488 24.488 0 0012.623 6.018 24.8 24.8 0 0013.928-1.822"/><path fill="#212736" d="M46.995 289.456a5.845 5.845 0 01-.381-1.471 83.906 83.906 0 01-.683-4.057 49.215 49.215 0 01-.366-13.579 25.15 25.15 0 015.228-12.574 16.933 16.933 0 013.05-2.895 4.417 4.417 0 011.32-.79 35.966 35.966 0 00-3.91 4.042 26.277 26.277 0 00-4.862 12.387 56.77 56.77 0 00.128 13.409c.272 1.832.431 3.678.476 5.528z"/><path fill="#212736" d="M24.979 230.589c.448.714.83 1.466 1.144 2.245.683 1.456 1.589 3.577 2.796 6.194 2.304 5.264 5.37 12.604 8.549 20.795a567.633 567.633 0 017.706 21.104c.921 2.725 1.589 4.94 2.129 6.473.295.778.513 1.581.651 2.4a16.847 16.847 0 01-.953-2.307c-.62-1.642-1.414-3.779-2.383-6.38a1294.849 1294.849 0 00-7.945-21.012c-3.178-8.175-6.149-15.484-8.31-20.872-1.033-2.555-1.89-4.645-2.558-6.302a15.383 15.383 0 01-.826-2.338z"/><path fill="#212736" d="M20.091 265.816a5.12 5.12 0 011.494 0c.582.03 1.16.103 1.732.217.76.105 1.514.255 2.256.449a30.167 30.167 0 015.657 2.013 35.019 35.019 0 016.244 3.855 35.176 35.176 0 015.148 5.157 29.507 29.507 0 013.178 5.001c.354.666.661 1.354.922 2.059.229.5.415 1.018.556 1.549a5.1 5.1 0 01.334 1.409c-.16 0-.747-1.936-2.336-4.831a32.98 32.98 0 00-3.258-4.785 33.447 33.447 0 00-11.122-8.81 33.388 33.388 0 00-5.482-2.122c-3.225-.851-5.339-1.006-5.323-1.161z"/></g><defs><clipPath id="a"><path fill="#fff" d="M0 0h290v300H0z"/></clipPath><clipPath id="b"><path fill="#fff" d="M0 0h53v53H0z" transform="translate(118.75 42)"/></clipPath></defs></svg>