<svg xmlns="http://www.w3.org/2000/svg" fill="none" viewBox="0 0 30 30"><path fill="#fff" d="M15.531 2.45L8.175 0l-2.79 8.114.007-.002-.004.004c-1.11.374-1.922 1.518-1.922 2.888v2.887h9.431c1.418 0 2.568 1.223 2.568 2.726v4.635c0 1.504-1.152 2.803-2.57 2.803h-9.43v2.917C3.464 28.642 4.668 30 6.16 30h9.37V7.973H8.736h.006l1.566-4.556 5.224 1.788V2.451z"/><path fill="#fff" fill-rule="evenodd" d="M11.447 16.083H1.394c-1.062 0-1.925.937-1.925 2.098v1.638c0 1.157.863 2.097 1.925 2.097h10.053c1.063 0 1.924-.94 1.924-2.097v-1.638c0-1.159-.861-2.098-1.924-2.098zm.04 3.925h-4.14v-2.04h4.14v2.04z" clip-rule="evenodd"/><path fill="#fff" d="M15 0h1.5v1.5H15zm3 0h1.5v1.5H18zm4.5 0H24v1.5h-1.5zm3 0H27v1.5h-1.5zM15 1.5h1.5V3H15zm1.5 0H18V3h-1.5zm1.5 0h1.5V3H18zm1.5 0H21V3h-1.5zm9 0H30V3h-1.5zM15 3h1.5v1.5H15zm1.5 0H18v1.5h-1.5zM18 3h1.5v1.5H18zm4.5 0H24v1.5h-1.5zM24 3h1.5v1.5H24zm-9 1.5h1.5V6H15zm1.5 0H18V6h-1.5zm3 0H21V6h-1.5zm1.5 0h1.5V6H21zm6 0h1.5V6H27zM16.5 15H18v1.5h-1.5zM18 6h1.5v1.5H18zm1.5 0H21v1.5h-1.5zm3 0H24v1.5h-1.5zm3 0H27v1.5h-1.5zM15 7.5h1.5V9H15zm1.5 0H18V9h-1.5zm1.5 0h1.5V9H18zm6 0h1.5V9H24zM15 9h1.5v1.5H15zm6 0h1.5v1.5H21zm1.5 0H24v1.5h-1.5zm6 0H30v1.5h-1.5zM15 10.5h1.5V12H15zm1.5 0H18V12h-1.5zm1.5 0h1.5V12H18zm1.5 0H21V12h-1.5zm1.5 0h1.5V12H21zm4.5 0H27V12h-1.5zM15 12h1.5v1.5H15zm1.5 0H18v1.5h-1.5zm1.5 0h1.5v1.5H18zm3 0h1.5v1.5H21zm1.5 0H24v1.5h-1.5zm1.5 0h1.5v1.5H24zm3 0h1.5v1.5H27zm-12 1.5h1.5V15H15zm1.5 0H18V15h-1.5zm1.5 0h1.5V15H18zm1.5 0H21V15h-1.5zM15 15h1.5v1.5H15zm3 0h1.5v1.5H18zm3 0h1.5v1.5H21zm1.5 0H24v1.5h-1.5zm3 0H27v1.5h-1.5zm3 0H30v1.5h-1.5zM15 16.5h1.5V18H15zm1.5 0H18V18h-1.5zm4.5 0h1.5V18H21zm3 0h1.5V18H24zM15 18h1.5v1.5H15zm1.5 0H18v1.5h-1.5zm1.5 0h1.5v1.5H18zm1.5 0H21v1.5h-1.5zm3 0H24v1.5h-1.5zm4.5 0h1.5v1.5H27zm-12 1.5h1.5V21H15zm1.5 0H18V21h-1.5zm1.5 0h1.5V21H18zm7.5 0H27V21h-1.5zm3 0H30V21h-1.5zM15 21h1.5v1.5H15zm1.5 0H18v1.5h-1.5zm3 0H21v1.5h-1.5zm3 0H24v1.5h-1.5zm1.5 0h1.5v1.5H24zm4.5 0H30v1.5h-1.5zM15 22.5h1.5V24H15zm1.5 0H18V24h-1.5zm1.5 0h1.5V24H18zm1.5 0H21V24h-1.5zm1.5 0h1.5V24H21zM15 24h1.5v1.5H15zm3 0h1.5v1.5H18zm3 0h1.5v1.5H21zm1.5 0H24v1.5h-1.5zm3 0H27v1.5h-1.5zM15 25.5h1.5V27H15zm1.5 0H18V27h-1.5zm1.5 0h1.5V27H18zm6 0h1.5V27H24zm3 0h1.5V27H27zM15 27h1.5v1.5H15zm1.5 0H18v1.5h-1.5zm1.5 0h1.5v1.5H18zm1.5 0H21v1.5h-1.5zm3 0H24v1.5h-1.5zm3 1.5H27V30h-1.5zm-10.5 0h1.5V30H15zm1.5 0H18V30h-1.5zm4.5 0h1.5V30H21zm7.5-1.5H30v1.5h-1.5z"/></svg>